<?xml version="1.0" encoding="UTF-8"?>
<svg id="Capa_1" data-name="Capa 1" xmlns="http://www.w3.org/2000/svg" xmlns:xlink="http://www.w3.org/1999/xlink" viewBox="0 0 497.04 387.93">
  <defs>
    <style>
      .cls-1 {
        fill: #201f34;
      }

      .cls-1, .cls-2 {
        stroke-width: 0px;
      }

      .cls-2 {
        fill: url(#Degradado_sin_nombre_6);
      }
    </style>
    <linearGradient id="Degradado_sin_nombre_6" data-name="Degradado sin nombre 6" x1="70.45" y1="246.41" x2="525.06" y2="45.46" gradientUnits="userSpaceOnUse">
      <stop offset=".16" stop-color="#337ff5"/>
      <stop offset=".79" stop-color="#34aadc"/>
    </linearGradient>
  </defs>
  <g id="Flechita">
    <path id="Azul" class="cls-2" d="M354.22,281.61c-8.25-21.17-16.5-42.33-24.75-63.5-.82-2.1-3.09-3.27-5.27-2.69-16.16,4.31-38.02,11.72-61.77,24.94-42.34,23.56-67.77,52.81-87.96,76.46-13.73,16.09-31.15,38.93-47.92,68.84-1.35,2.4-4.54,3-6.67,1.26-39.41-32.14-78.83-64.28-118.24-96.42-1.68-1.37-2.13-3.76-1.05-5.65,17.34-30.47,42.93-67.85,80.09-104.77,20.45-20.32,62.56-58.56,125.72-90.3,23.4-11.76,44.32-19.94,60.58-25.54,2.36-.82,3.58-3.43,2.7-5.77-6.62-17.48-13.25-34.97-19.87-52.45-1.29-3.41,1.85-6.84,5.36-5.85l238.65,67.03c2.88.81,4.15,4.17,2.53,6.68l-134.24,208.52c-1.96,3.05-6.56,2.59-7.87-.79Z"/>
    <path id="Negro" class="cls-1" d="M31.9,284.74c-1.47-1.2-1.83-3.31-.82-4.92,18.87-30.15,41.09-58,66.23-82.99,34.36-34.15,75.74-63.87,119.68-85.96,18.61-9.35,38.02-17.54,57.68-24.32,7.12-2.46,13.04-7.78,16.24-14.6,3.2-6.83,3.5-14.79.83-21.84l-3.78-9.97c-1.1-2.89,1.57-5.8,4.54-4.96l165.04,46.35c2.44.69,3.52,3.54,2.15,5.67l-93.12,144.64c-1.67,2.59-5.56,2.2-6.68-.67l-8.43-21.63c-4.76-12.2-17.13-19.55-30.52-17.53-.98.15-1.95.38-2.91.64-23.46,6.27-46.03,15.38-67.08,27.09-46.92,26.11-74.38,58.28-94.43,81.76-13.26,15.54-25.55,32.12-36.69,49.51-1.22,1.9-3.81,2.33-5.56.9l-82.37-67.17Z"/>
  </g>
</svg>