<?xml version="1.0" encoding="utf-8"?>
<!-- Generator: Adobe Illustrator 28.1.0, SVG Export Plug-In . SVG Version: 6.00 Build 0)  -->
<svg version="1.1" xmlns="http://www.w3.org/2000/svg" xmlns:xlink="http://www.w3.org/1999/xlink"
	x="0px" y="0px"
	viewBox="0 0 2160 3840" style="enable-background:new 0 0 2160 3840;" xml:space="preserve">
<style type="text/css">
	.st0{clip-path:url(#SVGID_00000103967892689652548680000008250731603643614878_);}
	.st1{fill:#936EDB;stroke:#FFFFFF;stroke-width:4;stroke-miterlimit:10;}
	.st2{fill:none;}
</style>
<g id="Capa_1">
	<g id="Capa_1-2">
		<g>
			<defs>
				<rect id="SVGID_1_" width="2160" height="3840"/>
			</defs>
			<clipPath id="SVGID_00000163065074449321998420000003013072144327795332_">
				<use xlink:href="#SVGID_1_"  style="overflow:visible;"/>
			</clipPath>
			<g style="clip-path:url(#SVGID_00000163065074449321998420000003013072144327795332_);">
				<polygon id="Cir1" class="st1" points="292.6,4009.7 232.6,4009.7 232.6,2958.6 232.6,2946.2 241.4,2937.4 421.8,2757 
					593.5,2585.4 593.5,1660.8 264.4,1660.8 264.4,1600.8 623.5,1600.8 653.5,1600.8 653.5,1630.8 653.5,2597.8 653.5,2610.2 
					644.7,2619 464.2,2799.4 292.6,2971.1 				"/>
				<polygon id="Cir2" class="st1" points="956.5,3916.9 896.5,3916.9 896.5,1177.5 264.4,1177.5 264.4,1117.5 926.5,1117.5 
					956.5,1117.5 956.5,1147.5 				"/>
				<path id="Cir3" class="st1" d="M1479.9,3296.3l-239-240v-597.4c66.3-13.2,116.4-71.7,116.4-141.9c0-79.9-64.8-144.7-144.7-144.7
					s-144.7,64.8-144.7,144.7c0,69,48.3,126.8,113,141.2v623.1l8.8,8.8l239,240v666.5h60v-691.5L1479.9,3296.3L1479.9,3296.3z
					 M1117.6,2317c0-52.4,42.6-95,95-95s95,42.6,95,95s-42.6,95-95,95S1117.6,2369.4,1117.6,2317z"/>
				<polygon id="Cir4" class="st1" points="1915.7,4029.5 1855.7,4029.5 1855.7,3309.8 1649.1,3103.1 1433.7,2887.7 1424.9,2878.9 
					1424.9,2866.5 1424.9,-30 1484.9,-30 1484.9,2854.1 1691.5,3060.7 1906.9,3276.1 1915.7,3284.9 1915.7,3297.3 				"/>
				<path id="Cir5" class="st1" d="M1946.2,2685.3v-645.9l395.6-398.9l-42.4-42.8L1895,2005.6l-8.8,8.9v670.7
					c-65.8,13.6-115.2,71.9-115.2,141.7c0,79.9,64.8,144.7,144.7,144.7s144.7-64.8,144.7-144.7
					C2060.4,2757.4,2011.5,2699.4,1946.2,2685.3L1946.2,2685.3z M1915.7,2921.8c-52.4,0-95-42.6-95-95s42.6-95,95-95s95,42.6,95,95
					S1968.1,2921.8,1915.7,2921.8z"/>
			</g>
		</g>
	</g>
</g>
<g id="Capa_2">
	<path id="Linea1" class="st2" d="M261.7,3840c0-294.6,0-589.2,0-883.7c120.5-120.5,241-241,361.5-361.5c0-321.3,0-642.7,0-964
		c-119.6,0-239.2,0-358.8,0"/>
	<path id="Linea2" class="st2" d="M264.4,1144c220.4,0,440.8,0,661.2,0c0,898.7,0,1797.3,0,2696"/>
	<path id="Linea3" class="st2" d="M1214.4,2456.8c0,204.4,0,408.8,0,613.3c81.2,81.2,162.5,162.5,243.7,243.7
		c0,175.4,0,350.8,0,526.2"/>
	<path id="Linea4" class="st2" d="M1457.5,0c0,954.6,0,1909.2,0,2863.8c142.5,142.5,285,285,427.5,427.5c0,182.9,0,365.8,0,548.7"/>
	<path id="Linea5" class="st2" d="M2160,1782.2c-81.2,81.2-162.4,162.4-243.6,243.6c0,221.1,0,442.2,0,663.3"/>
</g>
</svg>