<?xml version="1.0" encoding="UTF-8"?>
<svg xmlns="http://www.w3.org/2000/svg" xmlns:xlink="http://www.w3.org/1999/xlink" viewBox="0 0 2160 3840">
  <defs>
    <style>
      .cls-1 {
        opacity: .5;
      }

      .cls-2 {
        isolation: isolate;
      }

      .cls-3 {
        fill: #c255ff;
      }

      .cls-3, .cls-4 {
        stroke-width: 0px;
      }

      .cls-4 {
        fill: none;
      }

      .cls-5 {
        mix-blend-mode: overlay;
        opacity: .6;
      }

      .cls-6 {
        clip-path: url(#clippath);
      }
    </style>
    <clipPath id="clippath">
      <rect class="cls-4" x="-840" y="840" width="3840" height="2160" transform="translate(-840 3000) rotate(-90)"/>
    </clipPath>
  </defs>
  <g class="cls-2">
    <g id="Capa_2" data-name="Capa 2">
      <g id="Capa_1-2" data-name="Capa 1">
        <g class="cls-1">
          <g class="cls-6">
            <g class="cls-5">
              <g>
                <path class="cls-3" d="M628.51,3608.83c21.74,0,39.41,17.67,39.41,39.42s-17.67,39.14-39.41,39.14c-21.75,0-39.43-17.53-39.43-39.14s17.67-39.42,39.43-39.42ZM628.51,3673.09c13.87,0,25.06-11.12,25.06-24.85,0-13.73-11.19-25.06-25.06-25.06s-25.13,11.33-25.13,25.06c0,13.73,11.26,24.85,25.13,24.85Z"/>
                <path class="cls-3" d="M-5.02,3448.4c21.75,0,39.42,17.67,39.42,39.42s-17.67,39.42-39.42,39.42-39.28-17.67-39.28-39.42,17.53-39.42,39.28-39.42ZM-5.02,3512.95c13.87,0,25.06-11.26,25.06-25.13,0-14.01-11.05-25.06-25.06-25.06-13.73,0-24.99,11.33-24.99,25.06s11.26,25.13,24.99,25.13Z"/>
                <path class="cls-3" d="M300.06,3608.83c21.75,0,39.42,17.67,39.42,39.42s-17.67,39.14-39.42,39.14c-21.68,0-39.35-17.53-39.35-39.14s17.67-39.42,39.35-39.42ZM300.06,3673.09c13.94,0,25.13-11.12,25.13-24.85,0-13.73-11.19-25.06-25.13-25.06s-25.06,11.33-25.06,25.06c0,13.73,11.19,24.85,25.06,24.85Z"/>
                <path class="cls-3" d="M427.96,3608.83c21.75,0,39.42,17.67,39.42,39.42s-17.67,39.14-39.42,39.14c-21.75,0-39.42-17.53-39.42-39.14s17.67-39.42,39.42-39.42ZM427.96,3673.09c13.87,0,25.13-11.12,25.13-24.85,0-13.73-11.26-25.06-25.13-25.06s-25.06,11.33-25.06,25.06c0,13.73,11.19,24.85,25.06,24.85Z"/>
                <path class="cls-3" d="M427.96,3288.05c21.75,0,39.42,17.67,39.42,39.35,0,21.75-17.67,39.42-39.42,39.42-21.75,0-39.42-17.67-39.42-39.42,0-21.68,17.67-39.35,39.42-39.35ZM427.96,3352.53c13.87,0,25.13-11.19,25.13-25.13s-11.26-25.06-25.13-25.06-25.06,11.33-25.06,25.06,11.19,25.13,25.06,25.13Z"/>
                <path class="cls-3" d="M332.37,2935.82c21.68,0,39.21,17.53,39.21,39.07,0,21.75-17.53,39.42-39.21,39.42-21.75,0-39.42-17.67-39.42-39.42,0-21.54,17.67-39.07,39.42-39.07ZM332.37,3000.01c13.73,0,24.92-11.19,24.92-25.13s-11.19-24.78-24.92-24.78c-13.94,0-25.13,11.19-25.13,24.78s11.05,25.13,25.13,25.13Z"/>
                <path class="cls-3" d="M174.48,2775.39c21.68,0,39.35,17.53,39.35,39.07,0,21.75-17.67,39.42-39.35,39.42-21.75,0-39.42-17.67-39.42-39.42,0-21.54,17.67-39.07,39.42-39.07ZM174.48,2839.59c13.87,0,25.06-11.19,25.06-25.13s-11.19-24.78-25.06-24.78-25.13,11.19-25.13,24.78,11.19,25.13,25.13,25.13Z"/>
                <path class="cls-3" d="M174.48,3095.89c21.68,0,39.35,17.67,39.35,39.42s-17.67,39.42-39.35,39.42c-21.75,0-39.42-17.67-39.42-39.42s17.67-39.42,39.42-39.42ZM174.48,3160.43c13.87,0,25.06-11.26,25.06-25.13,0-13.73-11.19-25.06-25.06-25.06s-25.13,11.33-25.13,25.06c0,13.87,11.19,25.13,25.13,25.13Z"/>
                <path class="cls-3" d="M1219.93,3063.93c21.83,0,39.41,17.67,39.41,39.42,0,21.61-17.59,39.14-39.41,39.14-21.68,0-39.41-17.53-39.41-39.14,0-21.75,17.73-39.42,39.41-39.42ZM1219.93,3128.2c13.94,0,25.06-11.12,25.06-24.85,0-13.73-11.11-25.13-25.06-25.13-13.8,0-25.06,11.4-25.06,25.13,0,13.73,11.26,24.85,25.06,24.85Z"/>
                <path class="cls-3" d="M67.63,3063.93c21.68,0,39.21,17.53,39.21,39.14,0,21.75-17.53,39.42-39.21,39.42-21.75,0-39.42-17.67-39.42-39.42,0-21.61,17.67-39.14,39.42-39.14ZM67.63,3128.2c13.73,0,24.92-11.26,24.92-25.13,0-13.59-11.19-24.85-24.92-24.85-13.94,0-25.13,11.26-25.13,24.85,0,14.15,11.05,25.13,25.13,25.13Z"/>
                <path class="cls-3" d="M942.59,3192.11c21.68,0,39.41,17.67,39.41,39.42,0,21.61-17.73,39.14-39.41,39.14s-39.43-17.53-39.43-39.14c0-21.75,17.75-39.42,39.43-39.42ZM942.59,3256.31c13.94,0,25.06-11.05,25.06-24.78,0-13.73-11.11-25.13-25.06-25.13s-25.06,11.4-25.06,25.13c0,13.73,11.11,24.78,25.06,24.78Z"/>
                <path class="cls-3" d="M1154.88,3192.11c21.68,0,39.43,17.67,39.43,39.42,0,21.61-17.75,39.14-39.43,39.14-21.68,0-39.41-17.53-39.41-39.14,0-21.75,17.73-39.42,39.41-39.42ZM1154.88,3256.31c13.94,0,25.07-11.05,25.07-24.78s-11.13-25.13-25.07-25.13-25.06,11.4-25.06,25.13,11.13,24.78,25.06,24.78Z"/>
                <path class="cls-3" d="M2041.96,2935.82c21.67,0,39.41,17.53,39.41,39.07,0,21.75-17.75,39.42-39.41,39.42-21.68,0-39.43-17.67-39.43-39.42,0-21.54,17.75-39.07,39.43-39.07ZM2041.96,3000.01c13.93,0,25.06-11.33,25.06-25.13,0-13.73-11.13-24.78-25.06-24.78-13.94,0-25.07,11.05-25.07,24.78s11.13,25.13,25.07,25.13Z"/>
                <path class="cls-3" d="M974.83,2807.35c21.83,0,39.43,17.67,39.43,39.42,0,21.68-17.6,39.35-39.43,39.35-21.68,0-39.41-17.67-39.41-39.35,0-21.75,17.73-39.42,39.41-39.42ZM974.83,2871.83c13.94,0,25.06-11.19,25.06-25.06s-11.11-25.13-25.06-25.13c-13.8,0-25.06,11.33-25.06,25.13s11.26,25.06,25.06,25.06Z"/>
                <path class="cls-3" d="M1775.45,3063.93c21.83,0,39.43,17.53,39.43,39.14,0,21.75-17.6,39.42-39.43,39.42-21.68,0-39.27-17.67-39.27-39.42,0-21.61,17.59-39.14,39.27-39.14ZM1775.45,3128.2c13.94,0,25.2-11.4,25.2-25.13,0-13.73-11.26-24.85-25.2-24.85-13.8,0-25.06,11.12-25.06,24.85,0,13.73,11.26,25.13,25.06,25.13Z"/>
                <path class="cls-3" d="M838.55,3448.4c21.75,0,39.41,17.67,39.41,39.42s-17.66,39.42-39.41,39.42c-21.75,0-39.41-17.67-39.41-39.42s17.66-39.42,39.41-39.42ZM838.55,3512.95c13.87,0,25.13-11.26,25.13-25.13s-11.26-25.06-25.13-25.06-25.13,11.33-25.13,25.06,11.26,25.13,25.13,25.13Z"/>
                <path class="cls-3" d="M1332.13,3288.05c21.68,0,39.43,17.67,39.43,39.35,0,21.75-17.75,39.42-39.43,39.42-21.68,0-39.41-17.67-39.41-39.42,0-21.68,17.73-39.35,39.41-39.35ZM1332.13,3352.53c13.94,0,25.07-11.19,25.07-25.13,0-13.73-11.13-25.06-25.07-25.06s-25.06,11.33-25.06,25.06c0,13.94,11.11,25.13,25.06,25.13Z"/>
                <path class="cls-3" d="M1443.49,3448.4c21.68,0,39.41,17.67,39.41,39.42,0,21.61-17.73,39.14-39.41,39.14-21.83,0-39.41-17.53-39.41-39.14,0-21.75,17.59-39.42,39.41-39.42ZM1443.49,3512.67c13.8,0,25.06-11.12,25.06-24.85s-11.26-25.06-25.06-25.06c-13.94,0-25.06,11.33-25.06,25.06s11.11,24.85,25.06,24.85Z"/>
                <path class="cls-3" d="M1939.32,3320.29c21.68,0,39.43,17.67,39.43,39.42,0,21.54-17.75,39.07-39.43,39.07-21.81,0-39.41-17.53-39.41-39.07,0-21.75,17.6-39.42,39.41-39.42ZM1939.32,3384.49c13.8,0,25.07-11.05,25.07-24.78,0-13.8-11.27-25.13-25.07-25.13-13.93,0-25.06,11.33-25.06,25.13,0,13.73,11.13,24.78,25.06,24.78Z"/>
                <path class="cls-3" d="M2143.47,3448.4c21.67,0,39.41,17.67,39.41,39.42,0,21.61-17.75,39.14-39.41,39.14-21.68,0-39.43-17.53-39.43-39.14,0-21.75,17.75-39.42,39.43-39.42ZM2143.47,3512.67c13.93,0,25.06-11.12,25.06-24.85,0-13.73-11.13-25.06-25.06-25.06s-25.07,11.33-25.07,25.06c0,13.73,11.13,24.85,25.07,24.85Z"/>
                <path class="cls-3" d="M1396.47,3576.59c21.83,0,39.43,17.67,39.43,39.42s-17.6,39.42-39.43,39.42c-21.68,0-39.41-17.67-39.41-39.42s17.73-39.42,39.41-39.42ZM1396.47,3641.14c13.94,0,25.06-11.26,25.06-25.13,0-13.73-11.11-25.13-25.06-25.13-13.8,0-25.06,11.4-25.06,25.13,0,13.87,11.26,25.13,25.06,25.13Z"/>
                <path class="cls-3" d="M1262.73,3448.4c21.68,0,39.41,17.67,39.41,39.42,0,21.61-17.73,39.14-39.41,39.14-21.68,0-39.43-17.53-39.43-39.14,0-21.75,17.75-39.42,39.43-39.42ZM1262.73,3512.67c13.94,0,25.06-11.12,25.06-24.85s-11.11-25.06-25.06-25.06-25.06,11.33-25.06,25.06,11.11,24.85,25.06,24.85Z"/>
                <path class="cls-3" d="M824.26,3320.29c21.75,0,39.41,17.67,39.41,39.42,0,21.54-17.66,39.07-39.41,39.07-21.75,0-39.43-17.53-39.43-39.07,0-21.75,17.67-39.42,39.43-39.42ZM824.26,3384.49c13.87,0,25.06-11.05,25.06-24.78s-11.19-25.13-25.06-25.13-25.13,11.33-25.13,25.13,11.26,24.78,25.13,24.78Z"/>
                <polygon class="cls-3" points="-956.28 3224.35 -207.53 3224.35 -207.53 3352.53 307.24 3352.53 307.24 3616.01 292.95 3616.01 292.95 3366.82 -221.82 3366.82 -221.82 3238.64 -956.28 3238.64 -956.28 3224.35"/>
                <polygon class="cls-3" points="-956.28 3095.89 6.6 3095.89 6.6 3224.35 531.57 3224.35 531.57 3352.53 764.93 3352.53 764.93 3495 635.61 3495 635.61 3616.01 621.33 3616.01 621.33 3480.71 750.63 3480.71 750.63 3366.82 517.29 3366.82 517.29 3238.64 -7.69 3238.64 -7.69 3110.25 -956.28 3110.25 -956.28 3095.89"/>
                <rect class="cls-3" x="-229.42" y="2967.77" width="529.48" height="14.29"/>
                <polygon class="cls-3" points="96.77 3095.89 667.92 3095.89 667.92 3224.35 910.34 3224.35 910.34 3238.64 653.56 3238.64 653.56 3110.25 96.77 3110.25 96.77 3095.89"/>
                <polygon class="cls-3" points="1324.95 3359.71 1339.31 3359.71 1339.31 3623.19 1096.18 3623.19 1096.18 3495 869.95 3495 869.95 3480.71 1110.39 3480.71 1110.39 3608.83 1324.95 3608.83 1324.95 3359.71"/>
                <polygon class="cls-3" points="856.5 3352.53 1171.92 3352.53 1171.92 3480.71 1230.49 3480.71 1230.49 3495 1157.56 3495 1157.56 3366.82 856.5 3366.82 856.5 3352.53"/>
                <polygon class="cls-3" points="1431.24 2967.77 2009.71 2967.77 2009.71 2982.06 1445.6 2982.06 1445.6 3095.89 1608.49 3095.89 1608.49 3238.64 1187.13 3238.64 1187.13 3224.35 1594.27 3224.35 1594.27 3110.25 1431.24 3110.25 1431.24 2967.77"/>
                <polygon class="cls-3" points="1807.83 3095.89 1973.53 3095.89 1973.53 3224.35 2084.89 3224.35 2084.89 3096.17 2241.58 3096.17 2241.58 3110.53 2099.11 3110.53 2099.11 3238.64 1959.17 3238.64 1959.17 3110.25 1807.83 3110.25 1807.83 3095.89"/>
                <polygon class="cls-3" points="1768.42 3480.71 2049.14 3480.71 2049.14 3608.83 2427 3608.83 2427 3623.19 2034.78 3623.19 2034.78 3495 1782.63 3495 1782.63 3623.19 1430.82 3623.19 1430.82 3608.83 1768.42 3608.83 1768.42 3480.71"/>
                <polygon class="cls-3" points="1686.91 3352.53 1909.48 3352.53 1909.48 3366.82 1701.27 3366.82 1701.27 3495 1475.73 3495 1475.73 3480.71 1686.91 3480.71 1686.91 3352.53"/>
                <polygon class="cls-3" points="86.56 2711.41 367.14 2711.41 367.14 2839.59 630.34 2839.59 630.34 2967.77 926.55 2967.77 926.55 3096.17 1187.13 3096.17 1187.13 3110.53 912.17 3110.53 912.17 2982.06 616.04 2982.06 616.04 2853.88 352.78 2853.88 352.78 2725.7 100.85 2725.7 100.85 2853.88 -220.41 2853.88 -220.41 2839.59 86.56 2839.59 86.56 2711.41"/>
                <rect class="cls-3" x="420.85" y="3359.71" width="14.29" height="256.29"/>
                <rect class="cls-3" x="167.3" y="2846.77" width="14.29" height="256.58"/>
                <polygon class="cls-3" points="1323.12 2711.41 1737.31 2711.41 1737.31 2839.59 2137.69 2839.59 2137.69 2967.77 2639.02 2967.77 2639.02 2982.06 2123.47 2982.06 2123.47 2853.88 1722.8 2853.88 1722.8 2725.7 1337.48 2725.7 1337.48 2853.88 1008.2 2853.88 1008.2 2839.59 1323.12 2839.59 1323.12 2711.41"/>
                <rect class="cls-3" x="1423.35" y="2839.59" width="202.17" height="14.29"/>
              </g>
              <g>
                <path class="cls-3" d="M2098.55,569.34c21.83,0,39.43,17.73,39.43,39.41,0,21.68-17.6,39.41-39.43,39.41-21.68,0-39.27-17.73-39.27-39.41,0-21.68,17.59-39.41,39.27-39.41ZM2098.55,633.81c13.94,0,25.2-11.11,25.2-25.06,0-13.94-11.11-25.06-25.2-25.06s-24.91,11.26-24.91,25.06c0,13.94,11.26,25.06,24.91,25.06Z"/>
                <path class="cls-3" d="M1929.06,537.1c21.81,0,39.27,17.75,39.27,39.43,0,21.68-17.46,39.41-39.27,39.41s-39.28-17.73-39.28-39.41c0-21.68,17.6-39.43,39.28-39.43ZM1929.06,601.58c14.07,0,24.91-10.99,24.91-25.06,0-13.94-11.11-25.07-24.91-25.07-13.67,0-24.93,11.13-24.93,25.07,0,14.07,10.99,25.06,24.93,25.06Z"/>
                <path class="cls-3" d="M1934.4,408.99c21.68,0,39.27,17.59,39.27,39.41,0,21.68-17.59,39.41-39.27,39.41s-39.28-17.73-39.28-39.41c0-21.83,17.6-39.41,39.28-39.41ZM1934.4,473.46c13.8,0,24.91-11.26,24.91-25.06,0-14.08-10.84-25.2-24.91-25.2-14.08,0-24.93,11.11-24.93,25.2,0,13.8,11.13,25.06,24.93,25.06Z"/>
                <path class="cls-3" d="M1344.8,408.99c21.68,0,39.43,17.59,39.43,39.41,0,21.68-17.75,39.41-39.43,39.41s-39.27-17.73-39.27-39.41c0-21.83,17.46-39.41,39.27-39.41ZM1344.8,473.46c13.8,0,25.06-11.26,25.06-25.06,0-14.08-11.11-25.2-25.06-25.2-13.8,0-25.06,11.26-25.06,25.2,0,13.8,11.26,25.06,25.06,25.06Z"/>
                <path class="cls-3" d="M1502.61,569.34c21.83,0,39.43,17.73,39.43,39.41,0,21.68-17.6,39.41-39.43,39.41s-39.41-17.73-39.41-39.41c0-21.68,17.75-39.41,39.41-39.41ZM1502.61,633.81c13.94,0,25.07-11.11,25.07-25.06,0-13.8-11.13-25.06-25.07-25.06-13.8,0-25.06,11.26-25.06,25.06,0,13.94,11.26,25.06,25.06,25.06Z"/>
                <path class="cls-3" d="M1502.61,248.5c21.83,0,39.43,17.73,39.43,39.41,0,21.83-17.6,39.41-39.43,39.41s-39.41-17.59-39.41-39.41c0-21.68,17.75-39.41,39.41-39.41ZM1502.61,312.97c13.94,0,25.07-11.11,25.07-25.06,0-13.8-11.13-25.06-25.07-25.06-13.8,0-25.06,11.26-25.06,25.06,0,13.94,11.26,25.06,25.06,25.06Z"/>
                <path class="cls-3" d="M457.17,280.73c21.68,0,39.34,17.75,39.34,39.41,0,21.68-17.66,39.14-39.34,39.14-21.75,0-39.42-17.46-39.42-39.14,0-21.67,17.67-39.41,39.42-39.41ZM457.17,345.07c13.87,0,25.06-11.26,25.06-24.93s-11.19-25.06-25.06-25.06c-13.94,0-25.13,11.26-25.13,25.06s11.19,24.93,25.13,24.93Z"/>
                <path class="cls-3" d="M1609.48,280.73c21.81,0,39.41,17.75,39.41,39.41,0,21.83-17.6,39.43-39.41,39.43s-39.28-17.6-39.28-39.43,17.6-39.41,39.28-39.41ZM1609.48,345.35c13.93,0,25.06-11.26,25.06-25.2s-10.99-25.06-25.06-25.06-24.93,11.26-24.93,25.06c0,13.94,11.26,25.2,24.93,25.2Z"/>
                <path class="cls-3" d="M734.51,152.62c21.75,0,39.43,17.75,39.43,39.43s-17.67,39.14-39.43,39.14-39.41-17.6-39.41-39.14,17.66-39.43,39.41-39.43ZM734.51,216.81c13.87,0,25.06-11.11,25.06-24.77s-11.19-25.07-25.06-25.07c-13.87,0-25.13,11.13-25.13,25.07s11.26,24.77,25.13,24.77Z"/>
                <path class="cls-3" d="M522.22,152.62c21.74,0,39.41,17.75,39.41,39.43s-17.67,39.14-39.41,39.14c-21.75,0-39.43-17.6-39.43-39.14s17.67-39.43,39.43-39.43ZM522.22,216.81c13.87,0,25.06-11.11,25.06-24.77s-11.19-25.07-25.06-25.07-25.14,11.13-25.14,25.07,11.27,24.77,25.14,24.77Z"/>
                <path class="cls-3" d="M702.27,537.1c21.68,0,39.34,17.75,39.34,39.43,0,21.68-17.66,39.41-39.34,39.41s-39.41-17.73-39.41-39.41c0-21.68,17.66-39.43,39.41-39.43ZM702.27,601.58c13.87,0,25.06-11.13,25.06-25.06s-11.19-25.07-25.06-25.07-25.13,11.13-25.13,25.07,11.19,25.06,25.13,25.06Z"/>
                <polygon class="cls-3" points="2091.51 441.23 2633.38 441.23 2633.38 455.44 2105.72 455.44 2105.72 576.52 2091.51 576.52 2091.51 441.23"/>
                <rect class="cls-3" x="1377.05" y="441.23" width="529.47" height="14.21"/>
                <polygon class="cls-3" points="766.76 184.87 1023.54 184.87 1023.54 312.97 1580.33 312.97 1580.33 327.33 1009.18 327.33 1009.18 199.23 766.76 199.23 766.76 184.87"/>
                <polygon class="cls-3" points="68.61 184.87 489.97 184.87 489.97 199.23 82.9 199.23 82.9 312.97 245.86 312.97 245.86 455.44 -332.62 455.44 -332.62 441.23 231.5 441.23 231.5 327.33 68.61 327.33 68.61 184.87"/>
                <polygon class="cls-3" points="489.97 312.97 764.93 312.97 764.93 441.23 1061.12 441.23 1061.12 569.34 1324.24 569.34 1324.24 697.59 1576.25 697.59 1576.25 569.34 1897.51 569.34 1897.51 583.7 1590.61 583.7 1590.61 711.8 1310.03 711.8 1310.03 583.7 1046.76 583.7 1046.76 455.44 750.63 455.44 750.63 327.33 489.97 327.33 489.97 312.97"/>
                <rect class="cls-3" x="1495.43" y="320.15" width="14.37" height="256.38"/>
                <polygon class="cls-3" points="-956.28 441.23 -442.36 441.23 -442.36 569.34 -43.31 569.34 -43.31 697.59 340.75 697.59 340.75 569.34 668.9 569.34 668.9 583.7 355.03 583.7 355.03 711.8 -57.6 711.8 -57.6 583.7 -456.72 583.7 -456.72 455.44 -956.28 455.44 -956.28 441.23"/>
                <rect class="cls-3" x="51.65" y="569.34" width="202.02" height="14.36"/>
              </g>
              <rect class="cls-3" x="2029.15" y="807.69" width="604.24" height="14.36"/>
              <path class="cls-3" d="M1993.38,775.44c21.83,0,39.43,17.75,39.43,39.43,0,21.83-17.6,39.41-39.43,39.41-21.67,0-39.41-17.59-39.41-39.41,0-21.68,17.75-39.43,39.41-39.43ZM1993.38,840.06c13.94,0,25.2-11.26,25.2-25.2,0-13.8-11.26-25.06-25.2-25.06-13.8,0-25.06,11.26-25.06,25.06,0,13.94,11.26,25.2,25.06,25.2Z"/>
              <path class="cls-3" d="M1048.59,743.49c21.68,0,39.28,17.59,39.28,39.14,0,21.81-17.6,39.41-39.28,39.41s-39.41-17.6-39.41-39.41,17.73-39.14,39.41-39.14ZM1048.59,807.69c14.08,0,24.93-10.99,24.93-25.06s-11.13-24.78-24.93-24.78-25.06,11.26-25.06,24.78c0,13.93,11.13,25.06,25.06,25.06Z"/>
              <path class="cls-3" d="M1682.12,903.7c21.81,0,39.27,17.6,39.27,39.41,0,21.68-17.46,39.43-39.27,39.43s-39.43-17.75-39.43-39.43c0-21.81,17.75-39.41,39.43-39.41ZM1682.12,968.18c13.8,0,24.91-11.27,24.91-25.07,0-13.93-11.11-25.2-24.91-25.2-13.8,0-25.07,11.27-25.07,25.2s11.13,25.07,25.07,25.07Z"/>
              <path class="cls-3" d="M1377.05,743.49c21.67,0,39.41,17.59,39.41,39.14,0,21.81-17.75,39.41-39.41,39.41s-39.43-17.6-39.43-39.41c0-21.55,17.6-39.14,39.43-39.14ZM1377.05,807.69c13.8,0,25.06-11.13,25.06-25.06s-11.26-24.78-25.06-24.78c-13.94,0-25.21,11.26-25.21,24.78s11.27,25.06,25.21,25.06Z"/>
              <path class="cls-3" d="M2098.55,1577.06c21.83,0,39.43,17.6,39.43,39.41,0,21.54-17.6,39-39.43,39-21.68,0-39.27-17.46-39.27-39,0-21.81,17.59-39.41,39.27-39.41ZM2098.55,1641.25c13.94,0,25.2-11.26,25.2-24.78s-11.26-25.2-25.2-25.2-24.91,11.13-24.91,25.2c0,13.52,11.26,24.78,24.91,24.78Z"/>
              <path class="cls-3" d="M1929.06,1544.82c21.81,0,39.27,17.59,39.27,39.41,0,21.68-17.46,39.28-39.27,39.28-21.68,0-39.43-17.6-39.43-39.28,0-21.83,17.75-39.41,39.43-39.41ZM1929.06,1609.29c13.8,0,24.91-11.26,24.91-25.06,0-14.08-10.84-25.2-24.91-25.2s-25.07,11.26-25.07,25.2c0,13.8,11.27,25.06,25.07,25.06Z"/>
              <path class="cls-3" d="M1934.4,1416.56c21.68,0,39.27,17.75,39.27,39.41,0,21.68-17.59,39.14-39.27,39.14-21.68,0-39.43-17.46-39.43-39.14,0-21.67,17.75-39.41,39.43-39.41ZM1934.4,1480.76c13.8,0,24.91-11.11,24.91-24.78,0-13.93-10.84-25.06-24.91-25.06s-25.07,11.26-25.07,25.06c0,13.67,11.13,24.78,25.07,24.78Z"/>
              <path class="cls-3" d="M1344.8,1416.56c21.68,0,39.43,17.75,39.43,39.41,0,21.68-17.75,39.14-39.43,39.14-21.81,0-39.27-17.46-39.27-39.14,0-21.67,17.46-39.41,39.27-39.41ZM1344.8,1480.76c13.8,0,25.06-11.11,25.06-24.78,0-13.93-11.11-25.06-25.06-25.06s-25.06,11.13-25.06,25.06c0,13.67,11.26,24.78,25.06,24.78Z"/>
              <path class="cls-3" d="M1502.61,1577.06c21.83,0,39.28,17.6,39.28,39.41,0,21.54-17.46,39-39.28,39-21.67,0-39.41-17.46-39.41-39,0-21.81,17.75-39.41,39.41-39.41ZM1502.61,1641.25c13.8,0,24.93-11.26,24.93-24.78,0-14.07-10.84-25.2-24.93-25.2s-25.06,11.27-25.06,25.2,11.26,24.78,25.06,24.78Z"/>
              <path class="cls-3" d="M1502.61,1256.21c21.83,0,39.28,17.6,39.28,39.41s-17.46,39.43-39.28,39.43-39.41-17.75-39.41-39.43,17.75-39.41,39.41-39.41ZM1502.61,1320.7c13.8,0,24.93-11.27,24.93-25.07s-10.84-25.2-24.93-25.2c-13.8,0-25.06,11.27-25.06,25.2,0,13.8,11.26,25.07,25.06,25.07Z"/>
              <path class="cls-3" d="M457.17,1288.45c21.68,0,39.34,17.46,39.34,39.14,0,21.68-17.66,39.43-39.34,39.43-21.75,0-39.42-17.75-39.42-39.43,0-21.68,17.67-39.14,39.42-39.14ZM457.17,1352.66c13.87,0,25.06-11.27,25.06-25.07,0-13.65-11.19-24.91-25.06-24.91-13.94,0-25.13,11.26-25.13,24.91,0,13.8,11.19,25.07,25.13,25.07Z"/>
              <path class="cls-3" d="M1609.48,1288.45c21.81,0,39.41,17.6,39.41,39.43,0,21.54-17.6,39.14-39.41,39.14s-39.28-17.6-39.28-39.14c0-21.83,17.6-39.43,39.28-39.43ZM1609.48,1352.66c13.93,0,25.06-11.27,25.06-24.78,0-13.94-11.13-25.2-25.06-25.2s-24.93,11.11-24.93,25.2c0,13.51,11.26,24.78,24.93,24.78Z"/>
              <path class="cls-3" d="M734.51,1160.35c21.75,0,39.43,17.46,39.43,39,0,21.81-17.67,39.41-39.43,39.41s-39.41-17.6-39.41-39.41c0-21.54,17.66-39,39.41-39ZM734.51,1224.54c13.87,0,25.06-11.26,25.06-25.2s-11.19-24.78-25.06-24.78c-13.87,0-25.13,11.26-25.13,24.78s11.26,25.2,25.13,25.2Z"/>
              <path class="cls-3" d="M522.22,1160.35c21.74,0,39.41,17.46,39.41,39,0,21.81-17.67,39.41-39.41,39.41-21.75,0-39.43-17.6-39.43-39.41,0-21.54,17.67-39,39.43-39ZM522.22,1224.54c13.87,0,25.06-11.26,25.06-25.2s-11.19-24.78-25.06-24.78-25.14,11.26-25.14,24.78,11.27,25.2,25.14,25.2Z"/>
              <path class="cls-3" d="M702.27,1544.82c21.68,0,39.34,17.59,39.34,39.41,0,21.68-17.66,39.28-39.34,39.28-21.75,0-39.41-17.6-39.41-39.28,0-21.83,17.66-39.41,39.41-39.41ZM702.27,1609.29c13.87,0,25.06-11.26,25.06-25.06s-11.19-25.2-25.06-25.2-25.13,11.26-25.13,25.2,11.19,25.06,25.13,25.06Z"/>
              <path class="cls-3" d="M838.55,903.7c21.75,0,39.41,17.6,39.41,39.41,0,21.68-17.66,39.43-39.41,39.43s-39.41-17.75-39.41-39.43c0-21.81,17.66-39.41,39.41-39.41ZM838.55,968.18c13.87,0,25.13-11.27,25.13-25.07s-11.26-25.2-25.13-25.2c-13.87,0-25.13,11.27-25.13,25.2s11.26,25.07,25.13,25.07Z"/>
              <path class="cls-3" d="M344.97,1064.05c21.75,0,39.42,17.73,39.42,39.41,0,21.68-17.67,39.43-39.42,39.43s-39.42-17.75-39.42-39.43c0-21.68,17.67-39.41,39.42-39.41ZM344.97,1128.53c13.87,0,25.13-11.13,25.13-25.07s-11.26-25.06-25.13-25.06-25.13,11.26-25.13,25.06,11.26,25.07,25.13,25.07Z"/>
              <path class="cls-3" d="M233.61,903.97c21.75,0,39.42,17.46,39.42,39.14s-17.67,39.43-39.42,39.43c-21.75,0-39.42-17.75-39.42-39.43s17.67-39.14,39.42-39.14ZM233.61,968.18c13.87,0,25.13-11.27,25.13-25.07s-11.26-24.91-25.13-24.91c-13.87,0-25.06,11.26-25.06,24.91s11.19,25.07,25.06,25.07Z"/>
              <path class="cls-3" d="M280.63,775.44c21.68,0,39.35,17.75,39.35,39.43,0,21.83-17.67,39.41-39.35,39.41-21.75,0-39.42-17.59-39.42-39.41,0-21.68,17.67-39.43,39.42-39.43ZM280.63,840.06c13.87,0,25.06-11.26,25.06-25.2s-11.19-25.06-25.06-25.06-25.13,11.26-25.13,25.06,11.19,25.2,25.13,25.2Z"/>
              <path class="cls-3" d="M414.37,903.97c21.75,0,39.42,17.46,39.42,39.14s-17.67,39.43-39.42,39.43-39.42-17.75-39.42-39.43,17.67-39.14,39.42-39.14ZM414.37,968.18c13.87,0,25.13-11.27,25.13-25.07s-11.26-24.91-25.13-24.91-25.13,11.26-25.13,24.91,11.26,25.07,25.13,25.07Z"/>
              <path class="cls-3" d="M852.84,1032.09c21.75,0,39.43,17.6,39.43,39.14,0,21.68-17.67,39.41-39.43,39.41s-39.41-17.73-39.41-39.41c0-21.54,17.66-39.14,39.41-39.14ZM852.84,1096.28c13.87,0,25.13-11.11,25.13-25.06s-11.26-24.78-25.13-24.78c-13.87,0-25.06,11.13-25.06,24.78s11.19,25.06,25.06,25.06Z"/>
              <path class="cls-3" d="M2156.97,1032.09c21.68,0,39.41,17.6,39.41,39.14,0,21.68-17.73,39.41-39.41,39.41-21.83,0-39.28-17.73-39.28-39.41,0-21.54,17.46-39.14,39.28-39.14ZM2156.97,1096.28c13.8,0,25.06-11.11,25.06-25.06,0-13.65-11.26-24.78-25.06-24.78-13.8,0-25.06,11.13-25.06,24.78,0,14.08,10.99,25.06,25.06,25.06Z"/>
              <rect class="cls-3" x="1709.01" y="935.93" width="924.37" height="14.23"/>
              <polygon class="cls-3" points="1369.86 814.86 1384.23 814.86 1384.23 1064.05 1898.93 1064.05 1898.93 1192.29 2633.38 1192.29 2633.38 1206.52 1884.57 1206.52 1884.57 1078.41 1369.86 1078.41 1369.86 814.86"/>
              <polygon class="cls-3" points="1041.41 814.86 1055.77 814.86 1055.77 950.16 926.55 950.16 926.55 1064.05 1159.81 1064.05 1159.81 1192.29 1684.79 1192.29 1684.79 1320.7 2633.38 1320.7 2633.38 1335.05 1670.43 1335.05 1670.43 1206.52 1145.45 1206.52 1145.45 1078.41 912.17 1078.41 912.17 935.93 1041.41 935.93 1041.41 814.86"/>
              <polygon class="cls-3" points="2091.51 1448.8 2633.38 1448.8 2633.38 1463.17 2105.72 1463.17 2105.72 1584.24 2091.51 1584.24 2091.51 1448.8"/>
              <rect class="cls-3" x="1377.05" y="1448.8" width="529.47" height="14.37"/>
              <polygon class="cls-3" points="766.76 1192.29 1023.54 1192.29 1023.54 1320.7 1580.33 1320.7 1580.33 1335.05 1009.18 1335.05 1009.18 1206.52 766.76 1206.52 766.76 1192.29"/>
              <polygon class="cls-3" points="337.79 807.69 580.99 807.69 580.99 935.93 807.15 935.93 807.15 950.16 566.63 950.16 566.63 822.04 352.15 822.04 352.15 1071.23 337.79 1071.23 337.79 807.69"/>
              <polygon class="cls-3" points="446.61 935.93 519.54 935.93 519.54 1064.05 820.6 1064.05 820.6 1078.41 505.25 1078.41 505.25 950.16 446.61 950.16 446.61 935.93"/>
              <polygon class="cls-3" points="68.61 1192.29 489.97 1192.29 489.97 1206.52 82.9 1206.52 82.9 1320.7 245.86 1320.7 245.86 1463.17 -332.62 1463.17 -332.62 1448.8 231.5 1448.8 231.5 1335.05 68.61 1335.05 68.61 1192.29"/>
              <polygon class="cls-3" points="-749.89 807.69 -357.68 807.69 -357.68 935.93 -105.61 935.93 -105.61 807.69 246.28 807.69 246.28 822.04 -91.25 822.04 -91.25 950.16 -371.97 950.16 -371.97 822.04 -749.89 822.04 -749.89 807.69"/>
              <polygon class="cls-3" points="-24.09 935.93 201.37 935.93 201.37 950.16 -9.8 950.16 -9.8 1078.41 -232.31 1078.41 -232.31 1064.05 -24.09 1064.05 -24.09 935.93"/>
              <polygon class="cls-3" points="489.97 1320.41 764.93 1320.41 764.93 1448.8 1061.12 1448.8 1061.12 1577.06 1324.24 1577.06 1324.24 1705.17 1576.25 1705.17 1576.25 1577.06 1897.51 1577.06 1897.51 1591.27 1590.61 1591.27 1590.61 1719.53 1310.03 1719.53 1310.03 1591.27 1046.76 1591.27 1046.76 1463.17 750.63 1463.17 750.63 1334.77 489.97 1334.77 489.97 1320.41"/>
              <g>
                <g>
                  <path class="cls-3" d="M1249.08,743.49c21.81,0,39.27,17.59,39.27,39.14,0,21.81-17.46,39.41-39.27,39.41-21.68,0-39.43-17.6-39.43-39.41,0-21.55,17.75-39.14,39.43-39.14ZM1249.08,807.69c14.07,0,25.06-10.99,25.06-25.06,0-13.52-11.26-24.78-25.06-24.78-13.8,0-25.07,11.26-25.07,24.78,0,13.93,11.27,25.06,25.07,25.06Z"/>
                  <path class="cls-3" d="M1249.08,1064.05c21.81,0,39.27,17.73,39.27,39.41s-17.46,39.43-39.27,39.43c-21.68,0-39.43-17.75-39.43-39.43,0-21.68,17.75-39.41,39.43-39.41ZM1249.08,1128.53c14.07,0,25.06-10.99,25.06-25.07,0-13.8-11.26-25.06-25.06-25.06-13.8,0-25.07,11.26-25.07,25.06,0,13.94,11.27,25.07,25.07,25.07Z"/>
                </g>
                <rect class="cls-3" x="1242.03" y="814.86" width="14.23" height="256.36"/>
              </g>
              <g>
                <g>
                  <path class="cls-3" d="M428.8,2725.56c0-21.68,17.53-39.21,39.14-39.21,21.75,0,39.41,17.53,39.41,39.21,0,21.75-17.66,39.42-39.41,39.42-21.61,0-39.14-17.67-39.14-39.42ZM493.07,2725.56c0-14.01-11.11-24.92-25.13-24.92-13.59,0-24.85,11.19-24.85,24.92s11.26,25.13,24.85,25.13c13.87,0,25.13-11.19,25.13-25.13Z"/>
                  <path class="cls-3" d="M749.36,2725.56c0-21.68,17.67-39.21,39.43-39.21,21.75,0,39.41,17.53,39.41,39.21,0,21.75-17.66,39.42-39.41,39.42-21.75,0-39.43-17.67-39.43-39.42ZM813.84,2725.56c0-14.01-11.04-24.92-25.06-24.92-13.87,0-25.13,11.19-25.13,24.92s11.26,25.13,25.13,25.13,25.06-11.19,25.06-25.13Z"/>
                </g>
                <rect class="cls-3" x="500.18" y="2718.45" width="256.38" height="14.29"/>
              </g>
              <g>
                <g>
                  <path class="cls-3" d="M534.82,711.67c0-21.68,17.52-39.28,39.14-39.28s39.41,17.6,39.41,39.28c0,21.81-17.67,39.41-39.41,39.41s-39.14-17.6-39.14-39.41ZM599.08,711.67c0-13.94-11.13-24.93-25.13-24.93-13.59,0-24.85,11.26-24.85,24.93,0,13.93,11.26,25.06,24.85,25.06,13.85,0,25.13-11.13,25.13-25.06Z"/>
                  <path class="cls-3" d="M855.37,711.67c0-21.68,17.67-39.28,39.41-39.28,21.75,0,39.36,17.6,39.36,39.28,0,21.81-17.6,39.41-39.36,39.41-21.74,0-39.41-17.6-39.41-39.41ZM919.93,711.67c0-13.94-11.13-24.93-25.14-24.93-13.87,0-25.13,11.26-25.13,24.93,0,13.93,11.26,25.06,25.13,25.06,13.87,0,25.14-11.13,25.14-25.06Z"/>
                </g>
                <rect class="cls-3" x="606.19" y="704.49" width="256.36" height="14.36"/>
              </g>
              <path class="cls-3" d="M2112.21,312.84c0-21.68,17.46-39.14,39.13-39.14,21.68,0,39.43,17.46,39.43,39.14,0,21.81-17.75,39.41-39.43,39.41-21.67,0-39.13-17.6-39.13-39.41ZM2176.41,312.84c0-13.94-11.13-24.93-25.07-24.93s-24.77,11.26-24.77,24.93c0,13.93,11.11,25.2,24.77,25.2,13.8,0,25.07-11.27,25.07-25.2Z"/>
              <g>
                <g>
                  <path class="cls-3" d="M1664.66,209.07c0-21.68,17.46-39.13,39.14-39.13,21.67,0,39.27,17.44,39.27,39.13,0,21.83-17.6,39.43-39.27,39.43-21.68,0-39.14-17.6-39.14-39.43ZM1728.86,209.07c0-13.93-11.13-24.91-25.06-24.91-13.67,0-24.93,11.26-24.93,24.91,0,13.94,11.26,25.2,24.93,25.2,13.8,0,25.06-11.26,25.06-25.2Z"/>
                  <path class="cls-3" d="M1985.22,209.07c0-21.68,17.6-39.13,39.28-39.13,21.81,0,39.41,17.44,39.41,39.13,0,21.83-17.6,39.43-39.41,39.43-21.68,0-39.28-17.6-39.28-39.43ZM2049.7,209.07c0-13.93-11.13-24.91-25.2-24.91-13.8,0-25.07,11.26-25.07,24.91,0,13.94,11.27,25.2,25.07,25.2,13.93,0,25.2-11.26,25.2-25.2Z"/>
                </g>
                <rect class="cls-3" x="1736.04" y="202.04" width="256.22" height="14.21"/>
              </g>
              <g>
                <g>
                  <path class="cls-3" d="M742.88,1719.39c0-21.83,17.53-39.28,39.14-39.28s39.41,17.46,39.41,39.28c0,21.68-17.66,39.41-39.41,39.41s-39.14-17.73-39.14-39.41ZM807.15,1719.39c0-14.08-11.11-25.06-25.13-25.06s-24.78,11.26-24.78,25.06,11.2,25.06,24.78,25.06,25.13-11.26,25.13-25.06Z"/>
                  <path class="cls-3" d="M1063.51,1719.39c0-21.83,17.6-39.28,39.43-39.28,21.68,0,39.27,17.46,39.27,39.28,0,21.68-17.59,39.41-39.27,39.41-21.83,0-39.43-17.73-39.43-39.41ZM1128,1719.39c0-14.08-11.11-25.06-25.06-25.06s-25.2,11.26-25.2,25.06,11.26,25.06,25.2,25.06,25.06-11.26,25.06-25.06Z"/>
                </g>
                <rect class="cls-3" x="814.26" y="1712.21" width="256.3" height="14.21"/>
              </g>
              <g>
                <g>
                  <path class="cls-3" d="M1482.49,782.63c0-21.68,17.46-39.28,39.14-39.28,21.68,0,39.41,17.6,39.41,39.28s-17.73,39.41-39.41,39.41c-21.68,0-39.14-17.6-39.14-39.41ZM1546.68,782.63c0-13.94-11.11-24.93-25.06-24.93s-24.93,11.26-24.93,24.93c0,13.93,11.27,25.06,24.93,25.06,13.8,0,25.06-11.13,25.06-25.06Z"/>
                  <path class="cls-3" d="M1803.04,782.63c0-21.68,17.6-39.28,39.43-39.28,21.68,0,39.27,17.6,39.27,39.28,0,21.81-17.59,39.41-39.27,39.41-21.83,0-39.43-17.6-39.43-39.41ZM1867.53,782.63c0-13.94-11.13-24.93-25.06-24.93-13.94,0-25.2,11.26-25.2,24.93,0,13.93,11.26,25.06,25.2,25.06,13.8,0,25.06-11.13,25.06-25.06Z"/>
                </g>
                <rect class="cls-3" x="1553.86" y="775.44" width="256.36" height="14.37"/>
              </g>
              <rect class="cls-3" x="1495.43" y="1327.59" width="14.37" height="256.65"/>
              <polygon class="cls-3" points="-956.28 1448.8 -442.36 1448.8 -442.36 1577.06 -43.31 1577.06 -43.31 1705.17 340.75 1705.17 340.75 1577.06 668.9 1577.06 668.9 1591.27 355.03 1591.27 355.03 1719.53 -57.6 1719.53 -57.6 1591.27 -456.72 1591.27 -456.72 1463.17 -956.28 1463.17 -956.28 1448.8"/>
              <rect class="cls-3" x="51.65" y="1577.06" width="202.02" height="14.21"/>
              <g>
                <path class="cls-3" d="M628.51,1749.79c21.74,0,39.41,17.46,39.41,39.14,0,21.68-17.67,39.43-39.41,39.43s-39.28-17.75-39.28-39.43c0-21.68,17.53-39.14,39.28-39.14ZM628.51,1813.99c13.87,0,25.06-11.26,25.06-25.06s-11.19-24.91-25.06-24.91c-13.72,0-25,11.26-25,24.91s10.99,25.06,25,25.06Z"/>
                <path class="cls-3" d="M-4.88,1909.94c21.75,0,39.28,17.66,39.28,39.34s-17.53,39.43-39.28,39.43c-21.75,0-39.42-17.67-39.42-39.43s17.67-39.34,39.42-39.34ZM-4.88,1974.41c14.01,0,24.92-10.9,24.92-25.13,0-13.72-11.19-25.06-24.92-25.06-13.87,0-25.13,11.33-25.13,25.06s11.26,25.13,25.13,25.13Z"/>
                <path class="cls-3" d="M300.06,1749.79c21.75,0,39.42,17.46,39.42,39.14,0,21.68-17.67,39.43-39.42,39.43-21.68,0-39.21-17.75-39.21-39.43,0-21.68,17.53-39.14,39.21-39.14ZM300.06,1813.99c13.94,0,25.13-11.26,25.13-25.06s-11.19-24.91-25.13-24.91-24.92,11.26-24.92,24.91,10.91,25.06,24.92,25.06Z"/>
                <path class="cls-3" d="M427.96,1749.79c21.75,0,39.42,17.46,39.42,39.14,0,21.68-17.67,39.43-39.42,39.43s-39.28-17.75-39.28-39.43c0-21.68,17.53-39.14,39.28-39.14ZM427.96,1813.99c13.87,0,25.13-11.26,25.13-25.06s-11.26-24.91-25.13-24.91c-13.73,0-24.92,11.26-24.92,24.91s10.91,25.06,24.92,25.06Z"/>
                <path class="cls-3" d="M427.96,2070.29c21.75,0,39.42,17.66,39.42,39.41s-17.67,39.43-39.42,39.43c-21.75,0-39.42-17.67-39.42-39.43s17.67-39.41,39.42-39.41ZM427.96,2134.83c13.87,0,25.13-11.26,25.13-25.13,0-13.72-11.26-25.06-25.13-25.06s-25.06,11.33-25.06,25.06c0,13.87,11.19,25.13,25.06,25.13Z"/>
                <path class="cls-3" d="M332.37,2422.88c21.68,0,39.21,17.67,39.21,39.35s-17.53,39.14-39.21,39.14c-21.75,0-39.42-17.53-39.42-39.14s17.67-39.35,39.42-39.35ZM332.37,2487.07c13.73,0,24.92-11.05,24.92-24.85s-11.19-25.06-24.92-25.06c-14.08,0-25.13,11.05-25.13,25.06s11.19,24.85,25.13,24.85Z"/>
                <path class="cls-3" d="M174.48,2583.23c21.68,0,39.35,17.67,39.35,39.42s-17.67,39.14-39.35,39.14c-21.75,0-39.42-17.53-39.42-39.14s17.67-39.42,39.42-39.42ZM174.48,2647.49c13.87,0,25.06-11.12,25.06-24.85,0-13.73-11.19-25.06-25.06-25.06-13.94,0-25.13,11.33-25.13,25.06,0,13.73,11.19,24.85,25.13,24.85Z"/>
                <path class="cls-3" d="M174.48,2262.46c21.68,0,39.35,17.66,39.35,39.35s-17.67,39.42-39.35,39.42c-21.75,0-39.28-17.67-39.28-39.42s17.53-39.35,39.28-39.35ZM174.48,2326.93c13.87,0,25.06-11.19,25.06-25.13s-11.19-25.06-25.06-25.06c-14.08,0-24.99,11.05-24.99,25.06s11.19,25.13,24.99,25.13Z"/>
                <path class="cls-3" d="M1219.93,2294.69c21.83,0,39.41,17.53,39.41,39.14,0,21.68-17.59,39.35-39.41,39.35-21.68,0-39.41-17.67-39.41-39.35,0-21.61,17.73-39.14,39.41-39.14ZM1219.93,2358.89c13.94,0,25.06-11.33,25.06-25.06s-11.11-24.85-25.06-24.85c-13.8,0-25.06,11.05-25.06,24.85,0,13.73,11.26,25.06,25.06,25.06Z"/>
                <path class="cls-3" d="M67.63,2294.69c21.68,0,39.21,17.67,39.21,39.42,0,21.54-17.53,39.07-39.21,39.07-21.75,0-39.42-17.53-39.42-39.07,0-21.75,17.67-39.42,39.42-39.42ZM67.63,2358.89c13.73,0,24.92-11.05,24.92-24.78s-10.91-25.13-24.92-25.13-25.13,11.33-25.13,25.13,11.19,24.78,25.13,24.78Z"/>
                <path class="cls-3" d="M942.59,2166.52c21.68,0,39.41,17.52,39.41,39.13s-17.73,39.43-39.41,39.43c-21.68,0-39.43-17.67-39.43-39.43s17.75-39.13,39.43-39.13ZM942.59,2230.71c13.94,0,25.06-11.33,25.06-25.07s-11.11-24.84-25.06-24.84-25.06,11.11-25.06,24.84,11.11,25.07,25.06,25.07Z"/>
                <path class="cls-3" d="M1154.88,2166.52c21.68,0,39.43,17.52,39.43,39.13,0,21.75-17.75,39.43-39.43,39.43-21.68,0-39.41-17.67-39.41-39.43,0-21.61,17.73-39.13,39.41-39.13ZM1154.88,2230.71c13.94,0,25.07-11.33,25.07-25.07,0-13.72-11.13-24.84-25.07-24.84s-25.06,11.11-25.06,24.84c0,13.74,11.13,25.07,25.06,25.07Z"/>
                <path class="cls-3" d="M2041.96,2422.88c21.67,0,39.41,17.67,39.41,39.35,0,21.61-17.75,39.14-39.41,39.14-21.68,0-39.43-17.53-39.43-39.14,0-21.68,17.75-39.35,39.43-39.35ZM2041.96,2487.07c13.93,0,25.06-11.05,25.06-24.85,0-13.73-11.13-25.06-25.06-25.06s-25.07,11.33-25.07,25.06c0,13.8,11.13,24.85,25.07,24.85Z"/>
                <path class="cls-3" d="M974.83,2550.99c21.83,0,39.43,17.67,39.43,39.42,0,21.75-17.6,39.42-39.43,39.42-21.68,0-39.41-17.67-39.41-39.42,0-21.75,17.73-39.42,39.41-39.42ZM974.83,2615.54c13.94,0,25.06-11.26,25.06-25.13,0-13.73-11.11-25.13-25.06-25.13-13.8,0-25.06,11.4-25.06,25.13,0,13.87,11.26,25.13,25.06,25.13Z"/>
                <path class="cls-3" d="M1775.45,2294.69c21.83,0,39.43,17.67,39.43,39.42,0,21.54-17.6,39.07-39.43,39.07-21.68,0-39.27-17.53-39.27-39.07,0-21.75,17.59-39.42,39.27-39.42ZM1775.45,2358.89c13.94,0,25.2-11.05,25.2-24.78,0-13.8-11.26-25.13-25.2-25.13-13.8,0-25.06,11.33-25.06,25.13,0,13.73,11.26,24.78,25.06,24.78Z"/>
                <path class="cls-3" d="M838.55,1909.94c21.75,0,39.41,17.66,39.41,39.34s-17.66,39.43-39.41,39.43c-21.75,0-39.41-17.67-39.41-39.43s17.66-39.34,39.41-39.34ZM838.55,1974.41c13.87,0,25.13-11.33,25.13-25.13s-11.26-25.06-25.13-25.06c-13.87,0-25.13,11.33-25.13,25.06s11.26,25.13,25.13,25.13Z"/>
                <path class="cls-3" d="M1332.13,2070.29c21.68,0,39.43,17.66,39.43,39.41s-17.75,39.43-39.43,39.43-39.41-17.67-39.41-39.43,17.73-39.41,39.41-39.41ZM1332.13,2134.83c13.94,0,25.07-11.4,25.07-25.13s-11.13-25.06-25.07-25.06-25.06,11.33-25.06,25.06,11.11,25.13,25.06,25.13Z"/>
                <path class="cls-3" d="M1443.49,1910.21c21.68,0,39.41,17.53,39.41,39.07,0,21.75-17.73,39.43-39.41,39.43-21.83,0-39.41-17.67-39.41-39.43,0-21.54,17.59-39.07,39.41-39.07ZM1443.49,1974.41c13.8,0,25.06-11.33,25.06-25.13,0-13.72-11.26-24.78-25.06-24.78-13.94,0-25.06,11.06-25.06,24.78,0,13.8,11.11,25.13,25.06,25.13Z"/>
                <path class="cls-3" d="M1939.32,2038.33c21.68,0,39.43,17.53,39.43,39.14,0,21.75-17.75,39.41-39.43,39.41-21.81,0-39.41-17.66-39.41-39.41,0-21.61,17.6-39.14,39.41-39.14ZM1939.32,2102.6c13.8,0,25.07-11.4,25.07-25.13,0-13.72-11.27-24.85-25.07-24.85-13.93,0-25.06,11.13-25.06,24.85,0,13.72,11.13,25.13,25.06,25.13Z"/>
                <path class="cls-3" d="M2143.47,1910.21c21.67,0,39.41,17.53,39.41,39.07,0,21.75-17.75,39.43-39.41,39.43-21.68,0-39.43-17.67-39.43-39.43,0-21.54,17.75-39.07,39.43-39.07ZM2143.47,1974.41c13.93,0,25.06-11.33,25.06-25.13s-11.13-24.78-25.06-24.78c-13.94,0-25.07,11.06-25.07,24.78s11.13,25.13,25.07,25.13Z"/>
                <path class="cls-3" d="M1396.47,1781.75c21.83,0,39.43,17.6,39.43,39.43,0,21.67-17.6,39.34-39.43,39.34-21.68,0-39.41-17.67-39.41-39.34,0-21.83,17.73-39.43,39.41-39.43ZM1396.47,1846.24c13.94,0,25.06-11.26,25.06-25.06,0-13.94-11.11-25.07-25.06-25.07s-25.06,11.13-25.06,25.07c0,13.8,11.26,25.06,25.06,25.06Z"/>
                <path class="cls-3" d="M1262.73,1910.21c21.68,0,39.41,17.53,39.41,39.07,0,21.75-17.73,39.43-39.41,39.43-21.68,0-39.43-17.67-39.43-39.43,0-21.54,17.75-39.07,39.43-39.07ZM1262.73,1974.41c13.94,0,25.06-11.33,25.06-25.13,0-13.72-11.11-24.78-25.06-24.78s-25.06,11.06-25.06,24.78c0,13.8,11.11,25.13,25.06,25.13Z"/>
                <path class="cls-3" d="M824.26,2038.33c21.75,0,39.41,17.53,39.41,39.14s-17.66,39.41-39.41,39.41c-21.75,0-39.43-17.66-39.43-39.41s17.67-39.14,39.43-39.14ZM824.26,2102.6c13.87,0,25.06-11.4,25.06-25.13,0-13.72-11.19-24.85-25.06-24.85-13.87,0-25.13,11.13-25.13,24.85,0,13.72,11.26,25.13,25.13,25.13Z"/>
                <polygon class="cls-3" points="292.95 1821.18 307.24 1821.18 307.24 2084.65 -207.53 2084.65 -207.53 2212.76 -956.28 2212.76 -956.28 2198.46 -221.82 2198.46 -221.82 2070.29 292.95 2070.29 292.95 1821.18"/>
                <polygon class="cls-3" points="621.33 1821.18 635.61 1821.18 635.61 1942.17 764.93 1942.17 764.93 2084.65 531.57 2084.65 531.57 2212.76 6.6 2212.76 6.6 2341.22 -956.28 2341.22 -956.28 2326.93 -7.69 2326.93 -7.69 2198.46 517.29 2198.46 517.29 2070.29 750.63 2070.29 750.63 1956.46 621.33 1956.46 621.33 1821.18"/>
                <rect class="cls-3" x="-229.42" y="2455.11" width="529.48" height="14.29"/>
                <polygon class="cls-3" points="653.56 2198.46 910.34 2198.46 910.34 2212.76 667.92 2212.76 667.92 2341.22 96.77 2341.22 96.77 2326.93 653.56 2326.93 653.56 2198.46"/>
                <polygon class="cls-3" points="1096.18 1813.99 1339.31 1813.99 1339.31 2077.47 1324.95 2077.47 1324.95 1828.36 1110.39 1828.36 1110.39 1956.46 869.95 1956.46 869.95 1942.17 1096.18 1942.17 1096.18 1813.99"/>
                <polygon class="cls-3" points="1157.56 1942.17 1230.49 1942.17 1230.49 1956.46 1171.92 1956.46 1171.92 2084.65 856.5 2084.65 856.5 2070.29 1157.56 2070.29 1157.56 1942.17"/>
                <polygon class="cls-3" points="1187.13 2198.46 1608.49 2198.46 1608.49 2341.22 1445.6 2341.22 1445.6 2455.11 2009.71 2455.11 2009.71 2469.41 1431.24 2469.41 1431.24 2326.93 1594.27 2326.93 1594.27 2212.76 1187.13 2212.76 1187.13 2198.46"/>
                <polygon class="cls-3" points="1959.17 2198.46 2099.11 2198.46 2099.11 2326.65 2241.58 2326.65 2241.58 2340.94 2084.89 2340.94 2084.89 2212.76 1973.53 2212.76 1973.53 2341.22 1807.83 2341.22 1807.83 2326.93 1959.17 2326.93 1959.17 2198.46"/>
                <polygon class="cls-3" points="1430.82 1813.99 1782.63 1813.99 1782.63 1942.17 2034.78 1942.17 2034.78 1813.99 2427 1813.99 2427 1828.36 2049.14 1828.36 2049.14 1956.46 1768.42 1956.46 1768.42 1828.36 1430.82 1828.36 1430.82 1813.99"/>
                <polygon class="cls-3" points="1475.73 1942.17 1701.27 1942.17 1701.27 2070.29 1909.48 2070.29 1909.48 2084.65 1686.91 2084.65 1686.91 1956.46 1475.73 1956.46 1475.73 1942.17"/>
                <polygon class="cls-3" points="912.17 2326.65 1187.13 2326.65 1187.13 2340.94 926.55 2340.94 926.55 2469.41 630.34 2469.41 630.34 2597.59 367.14 2597.59 367.14 2725.7 86.56 2725.7 86.56 2597.59 -220.41 2597.59 -220.41 2583.23 100.85 2583.23 100.85 2711.41 352.78 2711.41 352.78 2583.23 616.04 2583.23 616.04 2455.11 912.17 2455.11 912.17 2326.65"/>
                <rect class="cls-3" x="420.85" y="1821.18" width="14.29" height="256.29"/>
                <rect class="cls-3" x="167.3" y="2333.83" width="14.29" height="256.57"/>
                <polygon class="cls-3" points="2121.91 2455.11 2636.76 2455.11 2636.76 2469.41 2136.14 2469.41 2136.14 2597.59 1736.31 2597.59 1736.31 2725.7 1322.7 2725.7 1322.7 2597.59 1008.2 2597.59 1008.2 2583.23 1336.91 2583.23 1336.91 2711.41 1721.82 2711.41 1721.82 2583.23 2121.91 2583.23 2121.91 2455.11"/>
                <rect class="cls-3" x="1423.35" y="2583.23" width="202.17" height="14.36"/>
              </g>
              <path class="cls-3" d="M1664.94,2807.49c21.68,0,39.28,17.53,39.28,39.14,0,21.68-17.6,39.35-39.28,39.35-21.81,0-39.41-17.67-39.41-39.35,0-21.61,17.6-39.14,39.41-39.14ZM1664.94,2871.69c13.94,0,24.93-11.05,24.93-25.06,0-13.8-11.27-24.85-24.93-24.85-13.94,0-25.2,11.05-25.2,24.85,0,13.73,11.26,25.06,25.2,25.06Z"/>
              <path class="cls-3" d="M1664.94,2551.13c21.68,0,39.28,17.53,39.28,39.14,0,21.75-17.6,39.42-39.28,39.42-21.81,0-39.41-17.67-39.41-39.42,0-21.61,17.6-39.14,39.41-39.14ZM1664.94,2615.4c13.94,0,24.93-11.12,24.93-25.13,0-13.73-11.27-24.85-24.93-24.85-13.94,0-25.2,11.12-25.2,24.85,0,13.73,11.26,25.13,25.2,25.13Z"/>
              <path class="cls-3" d="M1384.36,2551.13c21.68,0,39.14,17.53,39.14,39.14,0,21.75-17.46,39.42-39.14,39.42-21.81,0-39.41-17.67-39.41-39.42,0-21.61,17.6-39.14,39.41-39.14ZM1384.36,2615.4c13.94,0,24.93-11.12,24.93-25.13,0-13.73-11.26-24.85-24.93-24.85-13.93,0-25.2,11.12-25.2,24.85,0,13.73,11.27,25.13,25.2,25.13Z"/>
              <path class="cls-3" d="M285.63,1545.24c21.75,0,39.28,17.31,39.28,39,0,21.83-17.53,39.41-39.28,39.41s-39.35-17.59-39.35-39.41c0-21.68,17.67-39,39.35-39ZM285.63,1609.44c14.08,0,24.99-11.26,24.99-25.2s-11.19-24.78-24.99-24.78-25.06,10.99-25.06,24.78,11.19,25.2,25.06,25.2Z"/>
              <path class="cls-3" d="M12.37,1545.24c21.75,0,39.28,17.31,39.28,39,0,21.83-17.53,39.41-39.28,39.41-21.75,0-39.42-17.59-39.42-39.41,0-21.68,17.67-39,39.42-39ZM12.37,1609.44c14.01,0,24.92-11.26,24.92-25.2s-11.19-24.78-24.92-24.78c-13.87,0-25.13,10.99-25.13,24.78s11.26,25.2,25.13,25.2Z"/>
              <path class="cls-3" d="M12.37,537.24c21.75,0,39.28,17.46,39.28,39,0,21.83-17.53,39.56-39.28,39.56s-39.42-17.73-39.42-39.56c0-21.54,17.67-39,39.42-39ZM12.37,601.43c14.01,0,24.92-11.11,24.92-25.2s-11.19-24.64-24.92-24.64c-13.87,0-25.13,10.84-25.13,24.64s11.26,25.2,25.13,25.2Z"/>
              <path class="cls-3" d="M285.49,537.24c21.75,0,39.28,17.46,39.28,39,0,21.83-17.53,39.56-39.28,39.56-21.68,0-39.35-17.73-39.35-39.56,0-21.54,17.67-39,39.35-39ZM285.49,601.43c14.08,0,24.99-11.11,24.99-25.2s-11.19-24.64-24.99-24.64-25.06,10.84-25.06,24.64,11.19,25.2,25.06,25.2Z"/>
              <path class="cls-3" d="M1384.36,2807.49c21.68,0,39.14,17.53,39.14,39.14,0,21.68-17.46,39.35-39.14,39.35-21.81,0-39.41-17.67-39.41-39.35,0-21.61,17.6-39.14,39.41-39.14ZM1384.36,2871.69c13.94,0,24.93-11.05,24.93-25.06s-11.26-24.85-24.93-24.85c-13.93,0-25.2,11.05-25.2,24.85s11.27,25.06,25.2,25.06Z"/>
            </g>
          </g>
        </g>
      </g>
    </g>
  </g>
</svg>