<?xml version="1.0" encoding="utf-8"?>
<!-- Generator: Adobe Illustrator 28.1.0, SVG Export Plug-In . SVG Version: 6.00 Build 0)  -->
<svg version="1.1" id="Capa_1" xmlns="http://www.w3.org/2000/svg"
	xmlns:xlink="http://www.w3.org/1999/xlink" x="0px" y="0px"
	viewBox="0 0 3840 2160" style="enable-background:new 0 0 3840 2160;" xml:space="preserve">
<style type="text/css">
	.st0{opacity:0.5;}
	.st1{clip-path:url(#SVGID_00000039855038031549256720000012404700877318649777_);}
	.st2{opacity:0.6;}
	.st3{fill:#C255FF;}
</style>
<g>
	<g id="Capa_2_00000098203372446343800310000000665783620497008831_">
		<g id="Capa_1-2">
			<g class="st0">
				<g>
					<defs>
						<rect id="SVGID_1_" width="3840" height="2160"/>
					</defs>
					<clipPath id="SVGID_00000167368344736644210840000002172542066741916071_">
						<use xlink:href="#SVGID_1_"  style="overflow:visible;"/>
					</clipPath>
					<g style="clip-path:url(#SVGID_00000167368344736644210840000002172542066741916071_);">
						<g class="st2">
							<g>
								<rect x="216.8" y="-956.3" class="st3" width="14.4" height="604.2"/>
								<path class="st3" d="M263.4-316.4c0,21.8-17.7,39.4-39.4,39.4s-39.4-17.7-39.4-39.4s17.7-39.3,39.4-39.3
									S263.4-338,263.4-316.4z M198.9-316.4c0,13.9,11.3,25.1,25.1,25.1s25.1-11.2,25.1-25.1s-11.4-25.1-25.1-25.1
									S198.9-330.2,198.9-316.4z"/>
								<path class="st3" d="M231.2,628.5c0,21.7-17.7,39.4-39.4,39.4s-39.1-17.7-39.1-39.4s17.5-39.4,39.1-39.4
									S231.2,606.7,231.2,628.5z M166.9,628.5c0,13.9,11.1,25.1,24.9,25.1s25.1-11.2,25.1-25.1s-11.3-25.1-25.1-25.1
									S166.9,614.6,166.9,628.5z"/>
								<path class="st3" d="M391.6-5c0,21.8-17.7,39.4-39.4,39.4S312.8,16.7,312.8-5s17.7-39.3,39.4-39.3S391.6-26.8,391.6-5
									L391.6-5z M327-5C327,8.9,338.3,20,352.2,20S377.2,9,377.2-5s-11.3-25-25.1-25S327-18.7,327-5z"/>
								<path class="st3" d="M231.2,300.1c0,21.8-17.7,39.4-39.4,39.4s-39.1-17.7-39.1-39.4s17.5-39.3,39.1-39.3
									S231.2,278.4,231.2,300.1z M166.9,300.1c0,13.9,11.1,25.1,24.9,25.1s25.1-11.2,25.1-25.1S205.5,275,191.8,275
									S166.9,286.2,166.9,300.1z"/>
								<path class="st3" d="M231.2,428c0,21.8-17.7,39.4-39.4,39.4s-39.1-17.7-39.1-39.4s17.5-39.4,39.1-39.4
									S231.2,406.2,231.2,428z M166.9,428c0,13.9,11.1,25.1,24.9,25.1s25.1-11.3,25.1-25.1s-11.3-25.1-25.1-25.1
									S166.9,414.1,166.9,428z"/>
								<path class="st3" d="M552,428c0,21.8-17.7,39.4-39.3,39.4s-39.4-17.7-39.4-39.4s17.7-39.4,39.4-39.4
									C534.3,388.5,552,406.2,552,428z M487.5,428c0,13.9,11.2,25.1,25.1,25.1c13.9,0,25.1-11.3,25.1-25.1s-11.3-25.1-25.1-25.1
									S487.5,414.1,487.5,428L487.5,428z"/>
								<path class="st3" d="M1064.6-421.5c0,21.8-17.5,39.3-39.1,39.3s-39.4-17.5-39.4-39.3s17.7-39.4,39.4-39.4
									S1064.6-443.2,1064.6-421.5L1064.6-421.5z M1000.4-421.5c0,14.1,10.9,25,25.1,25s24.8-11.2,24.8-25s-11.2-25.1-24.8-25.1
									S1000.4-435.4,1000.4-421.5L1000.4-421.5z"/>
								<path class="st3" d="M1032.7-625.4c0,21.8-17.7,39.4-39.4,39.4s-39.3-17.7-39.3-39.4s17.7-39.3,39.3-39.3
									S1032.7-647.1,1032.7-625.4L1032.7-625.4z M968.2-625.4c0,14,10.9,25.1,25.1,25.1s25.1-11.2,25.1-25.1s-11.3-25-25.1-25
									S968.2-639.1,968.2-625.4z"/>
								<path class="st3" d="M1032.7-252c0,21.7-17.7,39.3-39.4,39.3s-39.3-17.6-39.3-39.3s17.7-39.3,39.3-39.3
									S1032.7-273.7,1032.7-252z M968.2-252c0,14,10.9,24.9,25.1,24.9s25.1-11.2,25.1-24.9s-11.3-25-25.1-25S968.2-266,968.2-252z
									"/>
								<path class="st3" d="M904.2-257.3c0,21.8-17.5,39.3-39.1,39.3s-39.4-17.5-39.4-39.3s17.7-39.3,39.4-39.3
									S904.2-279.1,904.2-257.3L904.2-257.3z M840-257.3c0,14,11,25,25.1,25s24.8-11.3,24.8-25s-11.2-25-24.8-25
									S840-271.3,840-257.3z"/>
								<path class="st3" d="M904.2,332.4c0,21.7-17.5,39.2-39.1,39.2s-39.4-17.5-39.4-39.2s17.7-39.4,39.4-39.4
									S904.2,310.6,904.2,332.4z M840,332.4c0,13.7,11.2,24.9,25.1,24.9s24.8-11.2,24.8-24.9s-11.2-25.1-24.8-25.1
									S840,318.3,840,332.4z"/>
								<path class="st3" d="M1064.6,174.5c0,21.7-17.5,39.3-39.1,39.3s-39.4-17.7-39.4-39.3s17.7-39.4,39.4-39.4
									S1064.6,152.7,1064.6,174.5z M1000.4,174.5c0,13.9,11.2,25.1,25.1,25.1s24.8-11.2,24.8-25.1s-11.2-25.1-24.8-25.1
									S1000.4,160.5,1000.4,174.5L1000.4,174.5z"/>
								<path class="st3" d="M744.1,174.5c0,21.7-17.7,39.3-39.4,39.3s-39.4-17.7-39.4-39.3s17.7-39.4,39.4-39.4
									S744.1,152.7,744.1,174.5z M679.6,174.5c0,13.9,11.3,25.1,25.1,25.1s25.1-11.2,25.1-25.1s-11.3-25.1-25.1-25.1
									S679.6,160.5,679.6,174.5z"/>
								<path class="st3" d="M776.1,1219.9c0,21.8-17.7,39.4-39.4,39.4s-39.1-17.6-39.1-39.4s17.5-39.4,39.1-39.4
									S776.1,1198.2,776.1,1219.9z M711.8,1219.9c0,13.9,11.1,25.1,24.8,25.1s25.1-11.1,25.1-25.1s-11.4-25.1-25.1-25.1
									S711.8,1206.1,711.8,1219.9z"/>
								<path class="st3" d="M776.1,67.6c0,21.7-17.5,39.2-39.1,39.2s-39.4-17.5-39.4-39.2s17.7-39.4,39.4-39.4
									S776.1,45.9,776.1,67.6z M711.8,67.6c0,13.7,11.3,24.9,25.1,24.9s24.8-11.2,24.8-24.9s-11.3-25.1-24.8-25.1
									S711.8,53.5,711.8,67.6z"/>
								<path class="st3" d="M647.9,942.6c0,21.7-17.7,39.4-39.4,39.4s-39.1-17.7-39.1-39.4s17.5-39.4,39.1-39.4
									S647.9,920.9,647.9,942.6z M583.7,942.6c0,13.9,11,25.1,24.8,25.1s25.1-11.1,25.1-25.1s-11.4-25.1-25.1-25.1
									S583.7,928.6,583.7,942.6z"/>
								<path class="st3" d="M647.9,1154.9c0,21.7-17.7,39.4-39.4,39.4s-39.1-17.8-39.1-39.4s17.5-39.4,39.1-39.4
									S647.9,1133.2,647.9,1154.9z M583.7,1154.9c0,13.9,11,25.1,24.8,25.1s25.1-11.1,25.1-25.1s-11.4-25.1-25.1-25.1
									S583.7,1140.9,583.7,1154.9z"/>
								<path class="st3" d="M904.2,2042c0,21.7-17.5,39.4-39.1,39.4s-39.4-17.8-39.4-39.4s17.7-39.4,39.4-39.4
									S904.2,2020.3,904.2,2042z M840,2042c0,13.9,11.3,25.1,25.1,25.1s24.8-11.1,24.8-25.1s-11-25.1-24.8-25.1S840,2028,840,2042
									z"/>
								<path class="st3" d="M1032.7,974.8c0,21.8-17.7,39.4-39.4,39.4s-39.3-17.6-39.3-39.4s17.7-39.4,39.3-39.4
									S1032.7,953.1,1032.7,974.8z M968.2,974.8c0,13.9,11.2,25.1,25.1,25.1s25.1-11.1,25.1-25.1s-11.3-25.1-25.1-25.1
									S968.2,961,968.2,974.8z"/>
								<path class="st3" d="M776.1,1775.4c0,21.8-17.5,39.4-39.1,39.4s-39.4-17.6-39.4-39.4s17.7-39.3,39.4-39.3
									S776.1,1753.8,776.1,1775.4z M711.8,1775.4c0,13.9,11.4,25.2,25.1,25.2s24.8-11.3,24.8-25.2s-11.1-25.1-24.8-25.1
									S711.8,1761.6,711.8,1775.4z"/>
								<path class="st3" d="M776.1,2273.8c0,21.8-17.5,39.4-39.1,39.4s-39.4-17.6-39.4-39.4s17.7-39.4,39.4-39.4
									S776.1,2252.2,776.1,2273.8z M711.8,2273.8c0,13.9,11.4,25.2,25.1,25.2s24.8-11.3,24.8-25.2s-11.1-25.1-24.8-25.1
									S711.8,2260,711.8,2273.8z"/>
								<path class="st3" d="M391.6,838.5c0,21.8-17.7,39.4-39.4,39.4s-39.4-17.7-39.4-39.4s17.7-39.4,39.4-39.4
									S391.6,816.8,391.6,838.5L391.6,838.5z M327,838.5c0,13.9,11.3,25.1,25.1,25.1s25.1-11.3,25.1-25.1s-11.3-25.1-25.1-25.1
									S327,824.7,327,838.5z"/>
								<path class="st3" d="M552,1332.1c0,21.7-17.7,39.4-39.3,39.4s-39.4-17.8-39.4-39.4s17.7-39.4,39.4-39.4
									C534.3,1292.7,552,1310.5,552,1332.1z M487.5,1332.1c0,13.9,11.2,25.1,25.1,25.1c13.9,0,25.1-11.1,25.1-25.1
									s-11.3-25.1-25.1-25.1S487.5,1318.2,487.5,1332.1L487.5,1332.1z"/>
								<path class="st3" d="M391.6,1443.5c0,21.7-17.7,39.4-39.4,39.4s-39.1-17.7-39.1-39.4s17.5-39.4,39.1-39.4
									S391.6,1421.7,391.6,1443.5L391.6,1443.5z M327.3,1443.5c0,13.8,11.1,25.1,24.9,25.1s25.1-11.3,25.1-25.1
									s-11.3-25.1-25.1-25.1S327.3,1429.5,327.3,1443.5z"/>
								<path class="st3" d="M519.7,1939.3c0,21.7-17.7,39.4-39.4,39.4s-39.1-17.8-39.1-39.4s17.5-39.4,39.1-39.4
									S519.7,1917.5,519.7,1939.3z M455.5,1939.3c0,13.8,11,25.1,24.8,25.1s25.1-11.3,25.1-25.1s-11.3-25.1-25.1-25.1
									S455.5,1925.4,455.5,1939.3z"/>
								<path class="st3" d="M391.6,2143.5c0,21.7-17.7,39.4-39.4,39.4s-39.1-17.8-39.1-39.4s17.5-39.4,39.1-39.4
									S391.6,2121.8,391.6,2143.5L391.6,2143.5z M327.3,2143.5c0,13.9,11.1,25.1,24.9,25.1s25.1-11.1,25.1-25.1
									s-11.3-25.1-25.1-25.1S327.3,2129.5,327.3,2143.5z"/>
								<path class="st3" d="M647.9,2601.2c0,21.7-17.7,39.4-39.4,39.4s-39.1-17.7-39.1-39.4s17.5-39.4,39.1-39.4
									S647.9,2579.5,647.9,2601.2z M583.7,2601.2c0,13.9,11,25.1,24.8,25.1s25.1-11,25.1-25.1s-11.4-25.1-25.1-25.1
									S583.7,2587.4,583.7,2601.2z"/>
								<path class="st3" d="M263.4,1396.5c0,21.8-17.7,39.4-39.4,39.4s-39.4-17.6-39.4-39.4s17.7-39.4,39.4-39.4
									S263.4,1374.8,263.4,1396.5z M198.9,1396.5c0,13.9,11.3,25.1,25.1,25.1s25.1-11.1,25.1-25.1s-11.4-25.1-25.1-25.1
									S198.9,1382.7,198.9,1396.5z"/>
								<path class="st3" d="M263.4,2459.2c0,21.8-17.7,39.4-39.4,39.4s-39.4-17.6-39.4-39.4s17.7-39.4,39.4-39.4
									S263.4,2437.6,263.4,2459.2z M198.9,2459.2c0,13.9,11.4,25.1,25.1,25.1s25.1-11.1,25.1-25.1s-11.4-25.1-25.1-25.1
									S198.9,2445.4,198.9,2459.2z"/>
								<path class="st3" d="M391.6,1262.7c0,21.7-17.7,39.4-39.4,39.4s-39.1-17.7-39.1-39.4s17.5-39.4,39.1-39.4
									S391.6,1241.1,391.6,1262.7L391.6,1262.7z M327.3,1262.7c0,13.9,11.1,25.1,24.9,25.1s25.1-11.1,25.1-25.1
									s-11.3-25.1-25.1-25.1S327.3,1248.8,327.3,1262.7z"/>
								<path class="st3" d="M519.7,824.3c0,21.8-17.7,39.4-39.4,39.4s-39.1-17.7-39.1-39.4s17.5-39.4,39.1-39.4
									S519.7,802.5,519.7,824.3z M455.5,824.3c0,13.9,11,25.1,24.8,25.1s25.1-11.2,25.1-25.1s-11.3-25.1-25.1-25.1
									S455.5,810.4,455.5,824.3z"/>
								<path class="st3" d="M519.7-479.8c0,21.7-17.7,39.2-39.4,39.2s-39.1-17.5-39.1-39.2s17.5-39.4,39.1-39.4
									S519.7-501.6,519.7-479.8L519.7-479.8z M455.5-479.8c0,13.7,11,24.9,24.8,24.9s25.1-11.2,25.1-24.9s-11-25.1-25.1-25.1
									S455.5-493.7,455.5-479.8z"/>
								<rect x="345" y="-956.3" class="st3" width="14.3" height="924.3"/>
								<rect x="473.2" y="-956.3" class="st3" width="14.3" height="444.2"/>
								<polygon class="st3" points="615.7,-956.3 615.7,-207.5 487.5,-207.5 487.5,307.2 224,307.2 224,293 473.2,293 
									473.2,-221.8 601.4,-221.8 601.4,-956.3 								"/>
								<polygon class="st3" points="744.1,-956.3 744.1,6.6 615.7,6.6 615.7,531.6 487.5,531.6 487.5,764.9 345,764.9 345,635.6 
									224,635.6 224,621.3 359.3,621.3 359.3,750.6 473.2,750.6 473.2,517.3 601.4,517.3 601.4,-7.7 729.8,-7.7 729.8,-956.3 
																	"/>
								<polygon class="st3" points="993.2,-428.6 993.2,-414.3 857.9,-414.3 857.9,-956.3 872.2,-956.3 872.2,-428.6 								"/>
								<rect x="857.9" y="-229.4" class="st3" width="14.3" height="529.5"/>
								<polygon class="st3" points="744.1,96.8 744.1,667.9 615.7,667.9 615.7,910.3 601.4,910.3 601.4,653.6 729.8,653.6 
									729.8,96.8 								"/>
								<polygon class="st3" points="480.3,1324.9 480.3,1339.3 216.8,1339.3 216.8,1096.2 345,1096.2 345,870 359.3,870 
									359.3,1110.4 231.2,1110.4 231.2,1324.9 								"/>
								<polygon class="st3" points="487.5,856.5 487.5,1171.9 359.3,1171.9 359.3,1230.5 345,1230.5 345,1157.6 473.2,1157.6 
									473.2,856.5 								"/>
								<polygon class="st3" points="872.2,1431.2 872.2,2009.7 857.9,2009.7 857.9,1445.6 744.1,1445.6 744.1,1608.5 601.4,1608.5 
									601.4,1187.1 615.7,1187.1 615.7,1594.3 729.8,1594.3 729.8,1431.2 								"/>
								<polygon class="st3" points="744.1,1807.8 744.1,1973.5 615.7,1973.5 615.7,2084.9 743.8,2084.9 743.8,2241.6 729.5,2241.6 
									729.5,2099.1 601.4,2099.1 601.4,1959.2 729.8,1959.2 729.8,1807.8 								"/>
								<polygon class="st3" points="359.3,1768.4 359.3,2049.1 231.2,2049.1 231.2,2427 216.8,2427 216.8,2034.8 345,2034.8 
									345,1782.6 216.8,1782.6 216.8,1430.8 231.2,1430.8 231.2,1768.4 								"/>
								<polygon class="st3" points="487.5,1686.9 487.5,1909.5 473.2,1909.5 473.2,1701.3 345,1701.3 345,1475.7 359.3,1475.7 
									359.3,1686.9 								"/>
								<polygon class="st3" points="615.7,2271.7 615.7,2560.4 601.4,2560.4 601.4,2286.1 487.5,2286.1 487.5,2389.3 345,2389.3 
									345,2175.7 359.3,2175.7 359.3,2375.1 473.2,2375.1 473.2,2271.7 								"/>
								<rect x="986.1" y="-956.3" class="st3" width="14.3" height="298.8"/>
								<polygon class="st3" points="1128.6,86.6 1128.6,367.1 1000.4,367.1 1000.4,630.3 872.2,630.3 872.2,926.5 743.8,926.5 
									743.8,1187.1 729.5,1187.1 729.5,912.2 857.9,912.2 857.9,616 986.1,616 986.1,352.8 1114.3,352.8 1114.3,100.9 
									986.1,100.9 986.1,-220.4 1000.4,-220.4 1000.4,86.6 								"/>
								<rect x="224" y="420.9" class="st3" width="256.3" height="14.3"/>
								<rect x="736.7" y="167.3" class="st3" width="256.6" height="14.3"/>
								<polygon class="st3" points="1128.6,1323.1 1128.6,1737.3 1000.4,1737.3 1000.4,2137.7 872.2,2137.7 872.2,2639 857.9,2639 
									857.9,2123.5 986.1,2123.5 986.1,1722.8 1114.3,1722.8 1114.3,1337.5 986.1,1337.5 986.1,1008.2 1000.4,1008.2 
									1000.4,1323.1 								"/>
								<rect x="986.1" y="1423.4" class="st3" width="14.3" height="202.2"/>
							</g>
							<g>
								<path class="st3" d="M3270.7,2098.6c0,21.8-17.7,39.4-39.4,39.4s-39.4-17.6-39.4-39.4s17.7-39.3,39.4-39.3
									S3270.7,2076.9,3270.7,2098.6z M3206.2,2098.6c0,13.9,11.1,25.2,25.1,25.2s25.1-11.1,25.1-25.2s-11.3-24.9-25.1-24.9
									S3206.2,2084.9,3206.2,2098.6z"/>
								<path class="st3" d="M3302.9,2302.6c0,21.7-17.8,39.1-39.4,39.1s-39.4-17.5-39.4-39.1s17.7-39.4,39.4-39.4
									S3302.9,2280.7,3302.9,2302.6z M3238.4,2302.6c0,13.6,11.1,24.9,25.1,24.9s25.1-11.3,25.1-24.9s-11.1-25.2-25.1-25.2
									S3238.4,2288.5,3238.4,2302.6z"/>
								<path class="st3" d="M3302.9,1929.1c0,21.8-17.8,39.3-39.4,39.3s-39.4-17.5-39.4-39.3s17.7-39.3,39.4-39.3
									S3302.9,1907.4,3302.9,1929.1z M3238.4,1929.1c0,14.1,11,24.9,25.1,24.9s25.1-11.1,25.1-24.9s-11.1-24.9-25.1-24.9
									S3238.4,1915.1,3238.4,1929.1z"/>
								<path class="st3" d="M3431,1934.4c0,21.7-17.6,39.3-39.4,39.3s-39.4-17.6-39.4-39.3s17.7-39.3,39.4-39.3
									S3431,1912.7,3431,1934.4z M3366.5,1934.4c0,13.8,11.3,24.9,25.1,24.9s25.2-10.8,25.2-24.9s-11.1-24.9-25.2-24.9
									S3366.5,1920.6,3366.5,1934.4z"/>
								<path class="st3" d="M3431,1344.8c0,21.7-17.6,39.4-39.4,39.4s-39.4-17.8-39.4-39.4s17.7-39.3,39.4-39.3
									S3431,1323,3431,1344.8z M3366.5,1344.8c0,13.8,11.3,25.1,25.1,25.1s25.2-11.1,25.2-25.1s-11.3-25.1-25.2-25.1
									S3366.5,1331,3366.5,1344.8z"/>
								<path class="st3" d="M3270.7,1502.6c0,21.8-17.7,39.4-39.4,39.4s-39.4-17.6-39.4-39.4s17.7-39.4,39.4-39.4
									S3270.7,1481,3270.7,1502.6z M3206.2,1502.6c0,13.9,11.1,25.1,25.1,25.1s25.1-11.1,25.1-25.1s-11.3-25.1-25.1-25.1
									S3206.2,1488.8,3206.2,1502.6z"/>
								<path class="st3" d="M3591.5,1502.6c0,21.8-17.7,39.4-39.4,39.4s-39.4-17.6-39.4-39.4s17.6-39.4,39.4-39.4
									S3591.5,1481,3591.5,1502.6z M3527,1502.6c0,13.9,11.1,25.1,25.1,25.1s25.1-11.1,25.1-25.1s-11.3-25.1-25.1-25.1
									S3527,1488.8,3527,1502.6z"/>
								<path class="st3" d="M3559.3,457.2c0,21.7-17.8,39.3-39.4,39.3s-39.1-17.7-39.1-39.3s17.5-39.4,39.1-39.4
									S3559.3,435.4,3559.3,457.2z M3494.9,457.2c0,13.9,11.3,25.1,24.9,25.1s25.1-11.2,25.1-25.1s-11.3-25.1-25.1-25.1
									S3494.9,443.2,3494.9,457.2z"/>
								<path class="st3" d="M3559.3,1609.5c0,21.8-17.8,39.4-39.4,39.4s-39.4-17.6-39.4-39.4s17.6-39.3,39.4-39.3
									S3559.3,1587.8,3559.3,1609.5z M3494.6,1609.5c0,13.9,11.3,25.1,25.2,25.1s25.1-11,25.1-25.1s-11.3-24.9-25.1-24.9
									S3494.6,1595.8,3494.6,1609.5z"/>
								<path class="st3" d="M3687.4,734.5c0,21.8-17.8,39.4-39.4,39.4s-39.1-17.7-39.1-39.4s17.6-39.4,39.1-39.4
									S3687.4,712.8,3687.4,734.5z M3623.2,734.5c0,13.9,11.1,25.1,24.8,25.1s25.1-11.2,25.1-25.1s-11.1-25.1-25.1-25.1
									S3623.2,720.6,3623.2,734.5z"/>
								<path class="st3" d="M3687.4,522.2c0,21.7-17.8,39.4-39.4,39.4s-39.1-17.7-39.1-39.4s17.6-39.4,39.1-39.4
									S3687.4,500.5,3687.4,522.2z M3623.2,522.2c0,13.9,11.1,25.1,24.8,25.1s25.1-11.2,25.1-25.1s-11.1-25.1-25.1-25.1
									S3623.2,508.4,3623.2,522.2z"/>
								<path class="st3" d="M3431-364.9c0,21.8-17.6,39.4-39.4,39.4s-39.4-17.7-39.4-39.4s17.7-39.4,39.4-39.4
									S3431-386.6,3431-364.9z M3366.5-364.9c0,13.9,11.3,25.1,25.1,25.1s25.2-11.3,25.2-25.1s-11.3-25.1-25.2-25.1
									S3366.5-378.7,3366.5-364.9z"/>
								<path class="st3" d="M3302.9,702.3c0,21.7-17.8,39.3-39.4,39.3s-39.4-17.7-39.4-39.3s17.7-39.4,39.4-39.4
									S3302.9,680.5,3302.9,702.3z M3238.4,702.3c0,13.9,11.1,25.1,25.1,25.1s25.1-11.2,25.1-25.1s-11.1-25.1-25.1-25.1
									S3238.4,688.3,3238.4,702.3z"/>
								<path class="st3" d="M3559.3-98.4c0,21.8-17.8,39.4-39.4,39.4s-39.4-17.7-39.4-39.4s17.6-39.4,39.4-39.4
									S3559.3-120.2,3559.3-98.4z M3494.6-98.4c0,13.9,11.3,25.1,25.2,25.1s25.1-11.3,25.1-25.1s-11.3-25.1-25.1-25.1
									S3494.6-112.3,3494.6-98.4z"/>
								<path class="st3" d="M3559.3-596.8c0,21.8-17.8,39.4-39.4,39.4s-39.4-17.7-39.4-39.4s17.6-39.4,39.4-39.4
									S3559.3-618.5,3559.3-596.8L3559.3-596.8z M3494.6-596.8c0,13.9,11.3,25.1,25.2,25.1s25.1-11.3,25.1-25.1
									s-11.3-25.1-25.1-25.1S3494.6-610.7,3494.6-596.8z"/>
								<polygon class="st3" points="3398.8,2091.5 3398.8,2633.4 3384.6,2633.4 3384.6,2105.7 3263.5,2105.7 3263.5,2091.5 
																	"/>
								<rect x="3384.6" y="1377.1" class="st3" width="14.2" height="529.5"/>
								<polygon class="st3" points="3655.1,766.8 3655.1,1023.5 3527,1023.5 3527,1580.3 3512.7,1580.3 3512.7,1009.2 
									3640.8,1009.2 3640.8,766.8 								"/>
								<polygon class="st3" points="3655.1,68.6 3655.1,490 3640.8,490 3640.8,82.9 3527,82.9 3527,245.9 3384.6,245.9 
									3384.6,-332.6 3398.8,-332.6 3398.8,231.5 3512.7,231.5 3512.7,68.6 								"/>
								<polygon class="st3" points="3655.1,-422.1 3655.1,-282.2 3527,-282.2 3527,-130.7 3512.7,-130.7 3512.7,-296.4 
									3640.8,-296.4 3640.8,-407.7 3512.7,-407.7 3512.7,-564.6 3527,-564.6 3527,-422.1 								"/>
								<rect x="3256.3" y="2334.6" class="st3" width="14.4" height="298.7"/>
								<polygon class="st3" points="3527,490 3527,764.9 3398.8,764.9 3398.8,1061.1 3270.7,1061.1 3270.7,1324.2 3142.4,1324.2 
									3142.4,1576.2 3270.7,1576.2 3270.7,1897.5 3256.3,1897.5 3256.3,1590.6 3128.2,1590.6 3128.2,1310 3256.3,1310 
									3256.3,1046.8 3384.6,1046.8 3384.6,750.6 3512.7,750.6 3512.7,490 								"/>
								<rect x="3263.5" y="1495.4" class="st3" width="256.4" height="14.4"/>
								<polygon class="st3" points="3398.8,-956.3 3398.8,-442.4 3270.7,-442.4 3270.7,-43.3 3142.4,-43.3 3142.4,340.7 
									3270.7,340.7 3270.7,668.9 3256.3,668.9 3256.3,355 3128.2,355 3128.2,-57.6 3256.3,-57.6 3256.3,-456.7 3384.6,-456.7 
									3384.6,-956.3 								"/>
								<rect x="3256.3" y="51.6" class="st3" width="14.4" height="202"/>
							</g>
							<rect x="3018" y="2029.2" class="st3" width="14.4" height="604.2"/>
							<path class="st3" d="M3064.6,1993.4c0,21.8-17.8,39.4-39.4,39.4s-39.4-17.6-39.4-39.4s17.6-39.4,39.4-39.4
								S3064.6,1971.7,3064.6,1993.4z M2999.9,1993.4c0,13.9,11.3,25.2,25.2,25.2s25.1-11.3,25.1-25.2s-11.3-25.1-25.1-25.1
								S2999.9,1979.6,2999.9,1993.4z"/>
							<path class="st3" d="M3096.5,1048.6c0,21.7-17.6,39.3-39.1,39.3s-39.4-17.6-39.4-39.3c0-21.7,17.6-39.4,39.4-39.4
								S3096.5,1026.9,3096.5,1048.6z M3032.3,1048.6c0,14.1,11,24.9,25.1,24.9s24.8-11.1,24.8-24.9s-11.3-25.1-24.8-25.1
								S3032.3,1034.7,3032.3,1048.6z"/>
							<path class="st3" d="M2936.3,1682.1c0,21.8-17.6,39.3-39.4,39.3s-39.4-17.5-39.4-39.3s17.8-39.4,39.4-39.4
								S2936.3,1660.4,2936.3,1682.1z M2871.8,1682.1c0,13.8,11.3,24.9,25.1,24.9s25.2-11.1,25.2-24.9s-11.3-25.1-25.2-25.1
								S2871.8,1668.2,2871.8,1682.1z"/>
							<path class="st3" d="M3096.5,1377.1c0,21.7-17.6,39.4-39.1,39.4s-39.4-17.8-39.4-39.4s17.6-39.4,39.4-39.4
								S3096.5,1355.2,3096.5,1377.1z M3032.3,1377.1c0,13.8,11.1,25.1,25.1,25.1s24.8-11.3,24.8-25.1s-11.3-25.2-24.8-25.2
								S3032.3,1363.1,3032.3,1377.1z"/>
							<path class="st3" d="M2262.9,2098.6c0,21.8-17.6,39.4-39.4,39.4s-39-17.6-39-39.4s17.5-39.3,39-39.3
								S2262.9,2076.9,2262.9,2098.6z M2198.8,2098.6c0,13.9,11.3,25.2,24.8,25.2s25.2-11.3,25.2-25.2s-11.1-24.9-25.2-24.9
								S2198.8,2084.9,2198.8,2098.6z"/>
							<path class="st3" d="M2295.2,2302.4c0,21.7-17.6,39.3-39.4,39.3s-39.3-17.6-39.3-39.3s17.6-39.3,39.3-39.3
								S2295.2,2280.6,2295.2,2302.4z M2230.7,2302.4c0,13.8,11.3,25.1,25.1,25.1s25.2-11.3,25.2-25.1s-11.1-25.1-25.2-25.1
								S2230.7,2288.6,2230.7,2302.4z"/>
							<path class="st3" d="M2295.2,1929.1c0,21.8-17.6,39.3-39.4,39.3s-39.3-17.5-39.3-39.3s17.6-39.4,39.3-39.4
								S2295.2,1907.4,2295.2,1929.1z M2230.7,1929.1c0,13.8,11.3,24.9,25.1,24.9s25.2-10.8,25.2-24.9s-11.3-25.1-25.2-25.1
								S2230.7,1915.3,2230.7,1929.1z"/>
							<path class="st3" d="M2423.4,1934.4c0,21.7-17.8,39.3-39.4,39.3s-39.1-17.6-39.1-39.3s17.5-39.4,39.1-39.4
								S2423.4,1912.7,2423.4,1934.4z M2359.2,1934.4c0,13.8,11.1,24.9,24.8,24.9s25.1-10.8,25.1-24.9s-11.3-25.1-25.1-25.1
								S2359.2,1920.5,2359.2,1934.4z"/>
							<path class="st3" d="M2423.4,1344.8c0,21.7-17.8,39.4-39.4,39.4s-39.1-17.8-39.1-39.4s17.5-39.3,39.1-39.3
								S2423.4,1323,2423.4,1344.8z M2359.2,1344.8c0,13.8,11.1,25.1,24.8,25.1s25.1-11.1,25.1-25.1s-11.1-25.1-25.1-25.1
								S2359.2,1331,2359.2,1344.8z"/>
							<path class="st3" d="M2262.9,1502.6c0,21.8-17.6,39.3-39.4,39.3s-39-17.5-39-39.3s17.5-39.4,39-39.4
								S2262.9,1481,2262.9,1502.6z M2198.8,1502.6c0,13.8,11.3,24.9,24.8,24.9s25.2-10.8,25.2-24.9s-11.3-25.1-25.2-25.1
								S2198.8,1488.8,2198.8,1502.6z"/>
							<path class="st3" d="M2583.8,1502.6c0,21.8-17.6,39.3-39.4,39.3s-39.4-17.5-39.4-39.3s17.8-39.4,39.4-39.4
								S2583.8,1481,2583.8,1502.6z M2519.3,1502.6c0,13.8,11.3,24.9,25.1,24.9s25.2-10.8,25.2-24.9s-11.3-25.1-25.2-25.1
								S2519.3,1488.8,2519.3,1502.6z"/>
							<path class="st3" d="M2551.6,457.2c0,21.7-17.5,39.3-39.1,39.3s-39.4-17.7-39.4-39.3s17.8-39.4,39.4-39.4
								S2551.6,435.4,2551.6,457.2z M2487.3,457.2c0,13.9,11.3,25.1,25.1,25.1s24.9-11.2,24.9-25.1s-11.3-25.1-24.9-25.1
								S2487.3,443.2,2487.3,457.2z"/>
							<path class="st3" d="M2551.6,1609.5c0,21.8-17.6,39.4-39.4,39.4s-39.1-17.6-39.1-39.4s17.6-39.3,39.1-39.3
								S2551.6,1587.8,2551.6,1609.5z M2487.3,1609.5c0,13.9,11.3,25.1,24.8,25.1s25.2-11.1,25.2-25.1s-11.1-24.9-25.2-24.9
								S2487.3,1595.8,2487.3,1609.5z"/>
							<path class="st3" d="M2679.6,734.5c0,21.8-17.5,39.4-39,39.4s-39.4-17.7-39.4-39.4s17.6-39.4,39.4-39.4
								S2679.6,712.8,2679.6,734.5z M2615.5,734.5c0,13.9,11.3,25.1,25.2,25.1s24.8-11.2,24.8-25.1s-11.3-25.1-24.8-25.1
								S2615.5,720.6,2615.5,734.5z"/>
							<path class="st3" d="M2679.6,522.2c0,21.7-17.5,39.4-39,39.4s-39.4-17.7-39.4-39.4s17.6-39.4,39.4-39.4
								S2679.6,500.5,2679.6,522.2z M2615.5,522.2c0,13.9,11.3,25.1,25.2,25.1s24.8-11.2,24.8-25.1s-11.3-25.1-24.8-25.1
								S2615.5,508.4,2615.5,522.2z"/>
							<path class="st3" d="M2423.4-364.9c0,21.8-17.8,39.4-39.4,39.4s-39.1-17.7-39.1-39.4s17.5-39.4,39.1-39.4
								S2423.4-386.6,2423.4-364.9z M2359.2-364.9c0,13.9,11.1,25.1,24.8,25.1s25.1-11.3,25.1-25.1s-11.3-25.1-25.1-25.1
								S2359.2-378.7,2359.2-364.9z"/>
							<path class="st3" d="M2295.2,702.3c0,21.7-17.6,39.3-39.4,39.3s-39.3-17.7-39.3-39.3s17.6-39.4,39.3-39.4
								S2295.2,680.5,2295.2,702.3z M2230.7,702.3c0,13.9,11.3,25.1,25.1,25.1s25.2-11.2,25.2-25.1s-11.3-25.1-25.2-25.1
								S2230.7,688.3,2230.7,702.3z"/>
							<path class="st3" d="M2551.6-98.4c0,21.8-17.6,39.4-39.4,39.4S2473-76.7,2473-98.4s17.6-39.4,39.1-39.4
								S2551.6-120.2,2551.6-98.4z M2487.3-98.4c0,13.9,11.3,25.1,24.8,25.1s25.2-11.3,25.2-25.1s-11.3-25.1-25.2-25.1
								S2487.3-112.3,2487.3-98.4z"/>
							<path class="st3" d="M2551.6-596.8c0,21.8-17.6,39.4-39.4,39.4S2473-575,2473-596.8s17.6-39.4,39.1-39.4
								S2551.6-618.5,2551.6-596.8L2551.6-596.8z M2487.3-596.8c0,13.9,11.3,25.1,24.8,25.1s25.2-11.3,25.2-25.1
								s-11.3-25.1-25.2-25.1S2487.3-610.7,2487.3-596.8z"/>
							<path class="st3" d="M2936.3,838.5c0,21.8-17.6,39.4-39.4,39.4s-39.4-17.7-39.4-39.4s17.8-39.4,39.4-39.4
								S2936.3,816.8,2936.3,838.5z M2871.8,838.5c0,13.9,11.3,25.1,25.1,25.1s25.2-11.3,25.2-25.1s-11.3-25.1-25.2-25.1
								S2871.8,824.7,2871.8,838.5z"/>
							<path class="st3" d="M2775.9,345c0,21.8-17.7,39.4-39.4,39.4s-39.4-17.7-39.4-39.4s17.8-39.4,39.4-39.4
								S2775.9,323.2,2775.9,345z M2711.5,345c0,13.9,11.1,25.1,25.1,25.1s25.1-11.3,25.1-25.1s-11.3-25.1-25.1-25.1
								S2711.5,331.1,2711.5,345z"/>
							<path class="st3" d="M2936,233.6c0,21.8-17.5,39.4-39.1,39.4s-39.4-17.7-39.4-39.4s17.8-39.4,39.4-39.4
								S2936,211.9,2936,233.6z M2871.8,233.6c0,13.9,11.3,25.1,25.1,25.1s24.9-11.3,24.9-25.1s-11.3-25.1-24.9-25.1
								S2871.8,219.7,2871.8,233.6z"/>
							<path class="st3" d="M2807.9-262.2c0,21.8-17.6,39.4-39.1,39.4s-39.4-17.7-39.4-39.4s17.7-39.3,39.4-39.3
								S2807.9-283.9,2807.9-262.2z M2743.7-262.2c0,13.9,11.1,25.1,25.1,25.1s24.8-11.2,24.8-25.1s-11.1-25.1-24.8-25.1
								S2743.7-276.1,2743.7-262.2z"/>
							<path class="st3" d="M2936-466.4c0,21.7-17.5,39.4-39.1,39.4s-39.4-17.7-39.4-39.4s17.8-39.4,39.4-39.4
								S2936-488.1,2936-466.4L2936-466.4z M2871.8-466.4c0,13.9,11.3,25.1,25.1,25.1s24.9-11.2,24.9-25.1s-11.3-25.1-24.9-25.1
								S2871.8-480.2,2871.8-466.4L2871.8-466.4z"/>
							<path class="st3" d="M2679.6-924c0,21.8-17.5,39.4-39,39.4s-39.4-17.7-39.4-39.4s17.6-39.4,39.4-39.4
								S2679.6-945.8,2679.6-924z M2615.5-924c0,13.9,11.3,25.1,25.2,25.1s24.8-11.2,24.8-25.1s-11.3-25.1-24.8-25.1
								S2615.5-938.1,2615.5-924z"/>
							<path class="st3" d="M3064.6,280.6c0,21.7-17.8,39.3-39.4,39.3s-39.4-17.7-39.4-39.3s17.6-39.4,39.4-39.4
								S3064.6,258.9,3064.6,280.6z M2999.9,280.6c0,13.9,11.3,25.1,25.2,25.1s25.1-11.2,25.1-25.1s-11.3-25.1-25.1-25.1
								S2999.9,266.7,2999.9,280.6z"/>
							<path class="st3" d="M3064.6-782.1c0,21.8-17.8,39.4-39.4,39.4s-39.4-17.7-39.4-39.4s17.6-39.4,39.4-39.4
								S3064.6-803.9,3064.6-782.1z M2999.9-782.1c0,13.9,11.3,25.1,25.2,25.1s25.1-11.2,25.1-25.1s-11.3-25.1-25.1-25.1
								S2999.9-796,2999.9-782.1z"/>
							<path class="st3" d="M2936,414.4c0,21.8-17.5,39.4-39.1,39.4s-39.4-17.7-39.4-39.4s17.8-39.4,39.4-39.4
								S2936,392.6,2936,414.4z M2871.8,414.4c0,13.9,11.3,25.1,25.1,25.1s24.9-11.3,24.9-25.1s-11.3-25.1-24.9-25.1
								S2871.8,400.5,2871.8,414.4z"/>
							<path class="st3" d="M2807.9,852.8c0,21.8-17.6,39.4-39.1,39.4s-39.4-17.7-39.4-39.4s17.7-39.4,39.4-39.4
								S2807.9,831.1,2807.9,852.8z M2743.7,852.8c0,13.9,11.1,25.1,25.1,25.1s24.8-11.3,24.8-25.1s-11.1-25.1-24.8-25.1
								S2743.7,839,2743.7,852.8z"/>
							<path class="st3" d="M2807.9,2157c0,21.7-17.6,39.4-39.1,39.4s-39.4-17.7-39.4-39.4s17.7-39.3,39.4-39.3
								S2807.9,2135.2,2807.9,2157z M2743.7,2157c0,13.8,11.1,25.1,25.1,25.1s24.8-11.3,24.8-25.1s-11.1-25.1-24.8-25.1
								S2743.7,2142.9,2743.7,2157z"/>
							<rect x="2889.8" y="1709" class="st3" width="14.2" height="924.4"/>
							<rect x="2761.6" y="2189.2" class="st3" width="14.4" height="444.2"/>
							<polygon class="st3" points="3025.1,1369.9 3025.1,1384.2 2775.9,1384.2 2775.9,1898.9 2647.7,1898.9 2647.7,2633.4 
								2633.5,2633.4 2633.5,1884.6 2761.6,1884.6 2761.6,1369.9 							"/>
							<polygon class="st3" points="3025.1,1041.4 3025.1,1055.8 2889.8,1055.8 2889.8,926.5 2775.9,926.5 2775.9,1159.8 
								2647.7,1159.8 2647.7,1684.8 2519.3,1684.8 2519.3,2633.4 2504.9,2633.4 2504.9,1670.4 2633.5,1670.4 2633.5,1145.5 
								2761.6,1145.5 2761.6,912.2 2904.1,912.2 2904.1,1041.4 							"/>
							<polygon class="st3" points="2391.2,2091.5 2391.2,2633.4 2376.8,2633.4 2376.8,2105.7 2255.8,2105.7 2255.8,2091.5 							
								"/>
							<rect x="2376.8" y="1377.1" class="st3" width="14.4" height="529.5"/>
							<polygon class="st3" points="2647.7,766.8 2647.7,1023.5 2519.3,1023.5 2519.3,1580.3 2504.9,1580.3 2504.9,1009.2 
								2633.5,1009.2 2633.5,766.8 							"/>
							<polygon class="st3" points="3032.3,337.8 3032.3,581 2904.1,581 2904.1,807.1 2889.8,807.1 2889.8,566.6 3018,566.6 
								3018,352.1 2768.8,352.1 2768.8,337.8 							"/>
							<polygon class="st3" points="2904.1,446.6 2904.1,519.5 2775.9,519.5 2775.9,820.6 2761.6,820.6 2761.6,505.2 2889.8,505.2 
								2889.8,446.6 							"/>
							<polygon class="st3" points="2647.7,68.6 2647.7,490 2633.5,490 2633.5,82.9 2519.3,82.9 2519.3,245.9 2376.8,245.9 
								2376.8,-332.6 2391.2,-332.6 2391.2,231.5 2504.9,231.5 2504.9,68.6 							"/>
							<polygon class="st3" points="2647.7,-422.1 2647.7,-282.2 2519.3,-282.2 2519.3,-130.7 2504.9,-130.7 2504.9,-296.4 
								2633.5,-296.4 2633.5,-407.7 2505.2,-407.7 2505.2,-564.6 2519.6,-564.6 2519.6,-422.1 							"/>
							<polygon class="st3" points="3032.3,-749.9 3032.3,-357.7 2904.1,-357.7 2904.1,-105.6 3032.3,-105.6 3032.3,246.3 
								3018,246.3 3018,-91.2 2889.8,-91.2 2889.8,-372 3018,-372 3018,-749.9 							"/>
							<polygon class="st3" points="2904.1,-24.1 2904.1,201.4 2889.8,201.4 2889.8,-9.8 2761.6,-9.8 2761.6,-232.3 2775.9,-232.3 
								2775.9,-24.1 							"/>
							<polygon class="st3" points="2904.1,-712.2 2904.1,-498.6 2889.8,-498.6 2889.8,-697.9 2775.9,-697.9 2775.9,-594.7 
								2633.5,-594.7 2633.5,-883.4 2647.7,-883.4 2647.7,-609 2761.6,-609 2761.6,-712.2 							"/>
							<rect x="2248.7" y="2334.6" class="st3" width="14.2" height="298.7"/>
							<polygon class="st3" points="2519.6,490 2519.6,764.9 2391.2,764.9 2391.2,1061.1 2262.9,1061.1 2262.9,1324.2 
								2134.8,1324.2 2134.8,1576.2 2262.9,1576.2 2262.9,1897.5 2248.7,1897.5 2248.7,1590.6 2120.5,1590.6 2120.5,1310 
								2248.7,1310 2248.7,1046.8 2376.8,1046.8 2376.8,750.6 2505.2,750.6 2505.2,490 							"/>
							<g>
								<g>
									<path class="st3" d="M3096.5,1249.1c0,21.8-17.6,39.3-39.1,39.3s-39.4-17.5-39.4-39.3s17.6-39.4,39.4-39.4
										S3096.5,1227.4,3096.5,1249.1z M3032.3,1249.1c0,14.1,11,25.1,25.1,25.1s24.8-11.3,24.8-25.1s-11.3-25.1-24.8-25.1
										S3032.3,1235.3,3032.3,1249.1z"/>
									<path class="st3" d="M2775.9,1249.1c0,21.8-17.7,39.3-39.4,39.3s-39.4-17.5-39.4-39.3s17.8-39.4,39.4-39.4
										S2775.9,1227.4,2775.9,1249.1z M2711.5,1249.1c0,14.1,11,25.1,25.1,25.1s25.1-11.3,25.1-25.1s-11.3-25.1-25.1-25.1
										S2711.5,1235.3,2711.5,1249.1z"/>
								</g>
								<rect x="2768.8" y="1242" class="st3" width="256.4" height="14.2"/>
							</g>
							<g>
								<g>
									<path class="st3" d="M1313.9,2209.5c0,21.8-17.5,39.3-39.1,39.3s-39.4-17.5-39.4-39.3s17.7-39.4,39.4-39.4
										S1313.9,2187.8,1313.9,2209.5z M1249.7,2209.5c0,14.1,11.1,24.9,25.1,24.9s24.8-11.1,24.8-24.9s-11.2-25.1-24.8-25.1
										S1249.7,2195.7,1249.7,2209.5z"/>
									<path class="st3" d="M993.4,2209.5c0,21.8-17.7,39.3-39.3,39.3s-39.4-17.5-39.4-39.3s17.7-39.4,39.4-39.4
										S993.4,2187.8,993.4,2209.5z M928.9,2209.5c0,14.1,11,24.9,25.1,24.9s25.1-11.1,25.1-24.9s-11.2-25.1-25.1-25.1
										S928.9,2195.7,928.9,2209.5z"/>
								</g>
								<rect x="986.3" y="2202.3" class="st3" width="256.3" height="14.4"/>
							</g>
							<g>
								<g>
									<path class="st3" d="M1114.4,2228.1c21.7,0,39.2,17.5,39.2,39.1s-17.5,39.3-39.2,39.3s-39.4-17.6-39.4-39.3
										S1092.7,2228.1,1114.4,2228.1z M1114.4,2292.3c14,0,24.9-11.1,24.9-25.1s-11.2-24.9-24.9-24.9s-25.1,11.3-25.1,24.9
										S1100.5,2292.3,1114.4,2292.3z"/>
									<path class="st3" d="M1114.4,2548.6c21.7,0,39.2,17.6,39.2,39.3s-17.5,39.4-39.2,39.4s-39.4-17.6-39.4-39.4
										S1092.7,2548.6,1114.4,2548.6z M1114.4,2613.1c14,0,24.9-11.1,24.9-25.2s-11.2-25.1-24.9-25.1s-25.1,11.3-25.1,25.1
										S1100.5,2613.1,1114.4,2613.1z"/>
								</g>
								<rect x="1107.3" y="2299.4" class="st3" width="14.3" height="256.2"/>
							</g>
							<g>
								<g>
									<path class="st3" d="M1114.4,428.8c21.7,0,39.2,17.5,39.2,39.1s-17.5,39.4-39.2,39.4s-39.4-17.7-39.4-39.4
										S1092.7,428.8,1114.4,428.8z M1114.4,493.1c14,0,24.9-11.1,24.9-25.1s-11.2-24.8-24.9-24.8s-25.1,11.3-25.1,24.8
										S1100.5,493.1,1114.4,493.1z"/>
									<path class="st3" d="M1114.4,749.4c21.7,0,39.2,17.7,39.2,39.4s-17.5,39.4-39.2,39.4s-39.4-17.7-39.4-39.4
										S1092.7,749.4,1114.4,749.4z M1114.4,813.8c14,0,24.9-11,24.9-25.1s-11.2-25.1-24.9-25.1s-25.1,11.3-25.1,25.1
										S1100.5,813.8,1114.4,813.8z"/>
								</g>
								<rect x="1107.3" y="500.2" class="st3" width="14.3" height="256.4"/>
							</g>
							<g>
								<g>
									<path class="st3" d="M3128.3,534.8c21.7,0,39.3,17.5,39.3,39.1s-17.6,39.4-39.3,39.4s-39.4-17.7-39.4-39.4
										S3106.5,534.8,3128.3,534.8z M3128.3,599.1c13.9,0,24.9-11.1,24.9-25.1s-11.3-24.8-24.9-24.8s-25.1,11.3-25.1,24.8
										S3114.4,599.1,3128.3,599.1z"/>
									<path class="st3" d="M3128.3,855.4c21.7,0,39.3,17.7,39.3,39.4s-17.6,39.4-39.3,39.4s-39.4-17.6-39.4-39.4
										S3106.5,855.4,3128.3,855.4z M3128.3,919.9c13.9,0,24.9-11.1,24.9-25.1s-11.3-25.1-24.9-25.1s-25.1,11.3-25.1,25.1
										S3114.4,919.9,3128.3,919.9z"/>
								</g>
								<rect x="3121.1" y="606.2" class="st3" width="14.4" height="256.4"/>
							</g>
							<g>
								<g>
									<path class="st3" d="M3527.2,2112.2c21.7,0,39.1,17.5,39.1,39.1s-17.5,39.4-39.1,39.4s-39.4-17.8-39.4-39.4
										S3505.4,2112.2,3527.2,2112.2z M3527.2,2176.4c13.9,0,24.9-11.1,24.9-25.1s-11.3-24.8-24.9-24.8s-25.2,11.1-25.2,24.8
										S3513.2,2176.4,3527.2,2176.4z"/>
									<path class="st3" d="M3527.2,2432.8c21.7,0,39.1,17.6,39.1,39.4s-17.5,39.4-39.1,39.4s-39.4-17.8-39.4-39.4
										S3505.4,2432.8,3527.2,2432.8z M3527.2,2497.2c13.9,0,24.9-11.1,24.9-25.1s-11.3-25.2-24.9-25.2s-25.2,11.3-25.2,25.2
										S3513.2,2497.2,3527.2,2497.2z"/>
								</g>
								<rect x="3520" y="2183.6" class="st3" width="14.2" height="256.4"/>
							</g>
							<g>
								<g>
									<path class="st3" d="M2159.9-890.7c21.8,0,39.3,17.5,39.3,39.1s-17.5,39.3-39.3,39.3s-39.4-17.7-39.4-39.3
										S2138.2-890.7,2159.9-890.7z M2159.9-826.5c14.1,0,25.1-11,25.1-25.1s-11.3-24.8-25.1-24.8s-25.1,11.2-25.1,24.8
										C2134.8-837.9,2146.1-826.5,2159.9-826.5z"/>
									<path class="st3" d="M2159.9-570.1c21.8,0,39.3,17.7,39.3,39.4s-17.5,39.4-39.3,39.4s-39.4-17.7-39.4-39.4
										S2138.2-570.1,2159.9-570.1L2159.9-570.1z M2159.9-505.6c14.1,0,25.1-11,25.1-25.1s-11.3-25.1-25.1-25.1
										s-25.1,11.2-25.1,25.1S2146.1-505.6,2159.9-505.6z"/>
								</g>
								<rect x="2152.7" y="-819.3" class="st3" width="14.4" height="256.3"/>
							</g>
							<g>
								<g>
									<path class="st3" d="M3191.1-890.7c21.7,0,39.3,17.5,39.3,39.1s-17.6,39.3-39.3,39.3s-39.4-17.7-39.4-39.3
										S3169.4-890.7,3191.1-890.7z M3191.1-826.5c14.1,0,24.9-11,24.9-25.1s-11.1-24.8-24.9-24.8s-25.1,11.2-25.1,24.8
										C3166.1-837.9,3177.2-826.5,3191.1-826.5z"/>
									<path class="st3" d="M3191.1-570.1c21.7,0,39.3,17.7,39.3,39.4s-17.6,39.4-39.3,39.4s-39.4-17.7-39.4-39.4
										S3169.4-570.1,3191.1-570.1L3191.1-570.1z M3191.1-505.6c14.1,0,24.9-11,24.9-25.1s-11.1-25.1-24.9-25.1
										s-25.1,11.2-25.1,25.1S3177.2-505.6,3191.1-505.6z"/>
								</g>
								<rect x="3183.9" y="-819.3" class="st3" width="14.4" height="256.3"/>
							</g>
							<g>
								<g>
									<path class="st3" d="M3630.9-890.8c21.7,0,39.1,17.5,39.1,39.1c0,21.6-17.4,39.4-39.1,39.4s-39.4-17.7-39.4-39.3
										S3609.1-890.8,3630.9-890.8z M3630.9-826.6c13.9,0,24.9-11.1,24.9-25.1c0-14-11.3-24.8-24.9-24.8s-25.2,11.2-25.2,24.8
										C3605.7-838,3617-826.6,3630.9-826.6z"/>
									<path class="st3" d="M3630.9-570.3c21.7,0,39.1,17.7,39.1,39.4c0,21.7-17.4,39.4-39.1,39.4s-39.4-17.7-39.4-39.4
										S3609.1-570.3,3630.9-570.3z M3630.9-505.8c13.9,0,24.9-11,24.9-25.1s-11.3-25.1-24.9-25.1s-25.2,11.2-25.2,25.1
										S3617-505.8,3630.9-505.8z"/>
								</g>
								<rect x="3623.8" y="-819.4" class="st3" width="14.2" height="256.3"/>
							</g>
							<g>
								<g>
									<path class="st3" d="M3630.9,1664.7c21.7,0,39.1,17.5,39.1,39.1s-17.4,39.3-39.1,39.3s-39.4-17.6-39.4-39.3
										S3609.1,1664.7,3630.9,1664.7z M3630.9,1728.9c13.9,0,24.9-11.1,24.9-25.1s-11.3-24.9-24.9-24.9s-25.2,11.3-25.2,24.9
										S3617,1728.9,3630.9,1728.9z"/>
									<path class="st3" d="M3630.9,1985.2c21.7,0,39.1,17.6,39.1,39.3s-17.4,39.4-39.1,39.4s-39.4-17.6-39.4-39.4
										S3609.1,1985.2,3630.9,1985.2z M3630.9,2049.7c13.9,0,24.9-11.1,24.9-25.2s-11.3-25.1-24.9-25.1s-25.2,11.3-25.2,25.1
										S3617,2049.7,3630.9,2049.7z"/>
								</g>
								<rect x="3623.8" y="1736" class="st3" width="14.2" height="256.2"/>
							</g>
							<g>
								<g>
									<path class="st3" d="M2120.6,742.9c21.8,0,39.3,17.5,39.3,39.1s-17.5,39.4-39.3,39.4s-39.4-17.7-39.4-39.4
										S2098.9,742.9,2120.6,742.9z M2120.6,807.1c14.1,0,25.1-11.1,25.1-25.1s-11.3-24.8-25.1-24.8s-25.1,11.2-25.1,24.8
										S2106.8,807.1,2120.6,807.1z"/>
									<path class="st3" d="M2120.6,1063.5c21.8,0,39.3,17.6,39.3,39.4c0,21.8-17.5,39.3-39.3,39.3s-39.4-17.6-39.4-39.3
										S2098.9,1063.5,2120.6,1063.5L2120.6,1063.5z M2120.6,1128c14.1,0,25.1-11.1,25.1-25.1s-11.3-25.2-25.1-25.2
										s-25.1,11.3-25.1,25.2S2106.8,1128,2120.6,1128z"/>
								</g>
								<rect x="2113.6" y="814.3" class="st3" width="14.2" height="256.3"/>
							</g>
							<g>
								<g>
									<path class="st3" d="M3057.4,1482.5c21.7,0,39.3,17.5,39.3,39.1s-17.6,39.4-39.3,39.4s-39.4-17.7-39.4-39.4
										S3035.6,1482.5,3057.4,1482.5z M3057.4,1546.7c13.9,0,24.9-11.1,24.9-25.1s-11.3-24.9-24.9-24.9s-25.1,11.3-25.1,24.9
										S3043.4,1546.7,3057.4,1546.7z"/>
									<path class="st3" d="M3057.4,1803.1c21.7,0,39.3,17.6,39.3,39.4s-17.6,39.3-39.3,39.3s-39.4-17.6-39.4-39.3
										S3035.6,1803.1,3057.4,1803.1z M3057.4,1867.5c13.9,0,24.9-11.1,24.9-25.1s-11.3-25.2-24.9-25.2s-25.1,11.3-25.1,25.2
										S3043.4,1867.5,3057.4,1867.5z"/>
								</g>
								<rect x="3050.2" y="1553.9" class="st3" width="14.4" height="256.4"/>
							</g>
							<rect x="2255.8" y="1495.4" class="st3" width="256.6" height="14.4"/>
							<polygon class="st3" points="2391.2,-956.3 2391.2,-442.4 2262.9,-442.4 2262.9,-43.3 2134.8,-43.3 2134.8,340.7 
								2262.9,340.7 2262.9,668.9 2248.7,668.9 2248.7,355 2120.5,355 2120.5,-57.6 2248.7,-57.6 2248.7,-456.7 2376.8,-456.7 
								2376.8,-956.3 							"/>
							<rect x="2248.7" y="51.6" class="st3" width="14.2" height="202"/>
							<g>
								<rect x="2011.6" y="-956.3" class="st3" width="14.4" height="604.2"/>
								<path class="st3" d="M2058.2-316.4c0,21.8-17.6,39.4-39.4,39.4s-39.3-17.7-39.3-39.4s17.7-39.2,39.3-39.2
									S2058.2-338,2058.2-316.4z M1993.8-316.4c0,13.9,11.3,25.1,25.1,25.1s25.1-11.2,25.1-25.1s-11.1-24.9-25.1-24.9
									S1993.8-330.4,1993.8-316.4z"/>
								<path class="st3" d="M2090.2,628.5c0,21.7-17.5,39.4-39.1,39.4s-39.4-17.7-39.4-39.4s17.8-39.3,39.4-39.3
									C2072.8,589.2,2090.2,606.8,2090.2,628.5z M2026,628.5c0,13.9,11.3,25.1,25.1,25.1s24.9-11.2,24.9-25.1s-11.3-25-24.9-25
									S2026,614.5,2026,628.5z"/>
								<path class="st3" d="M1930.1-4.9c0,21.8-17.7,39.3-39.3,39.3s-39.4-17.5-39.4-39.3s17.7-39.4,39.4-39.4
									S1930.1-26.6,1930.1-4.9L1930.1-4.9z M1865.6-4.9c0,14,10.9,24.9,25.1,24.9s25.1-11.2,25.1-24.9S1904.5-30,1890.7-30
									S1865.6-18.7,1865.6-4.9z"/>
								<path class="st3" d="M2090.2,300.1c0,21.8-17.5,39.4-39.1,39.4s-39.4-17.7-39.4-39.4s17.8-39.2,39.4-39.2
									C2072.8,260.9,2090.2,278.4,2090.2,300.1z M2026,300.1c0,13.9,11.3,25.1,25.1,25.1s24.9-11.2,24.9-25.1
									s-11.3-24.9-24.9-24.9S2026,286,2026,300.1z"/>
								<path class="st3" d="M2090.2,428c0,21.8-17.5,39.4-39.1,39.4s-39.4-17.7-39.4-39.4s17.8-39.3,39.4-39.3
									C2072.8,388.7,2090.2,406.2,2090.2,428z M2026,428c0,13.9,11.3,25.1,25.1,25.1s24.9-11.3,24.9-25.1s-11.3-24.9-24.9-24.9
									S2026,414,2026,428z"/>
								<path class="st3" d="M1769.7,428c0,21.8-17.7,39.4-39.4,39.4s-39.4-17.7-39.4-39.4s17.7-39.4,39.4-39.4
									S1769.7,406.2,1769.7,428z M1705.2,428c0,13.9,11.3,25.1,25.1,25.1s25.1-11.3,25.1-25.1s-11.3-25.1-25.1-25.1
									S1705.2,414.1,1705.2,428z"/>
								<path class="st3" d="M1256.8-421.5c0,21.8-17.7,39.3-39.4,39.3s-39.1-17.5-39.1-39.3s17.5-39.4,39.1-39.4
									S1256.8-443.2,1256.8-421.5L1256.8-421.5z M1192.5-421.5c0,13.8,11.1,25,24.8,25s25.1-10.9,25.1-25s-11.3-25.1-25.1-25.1
									S1192.5-435.4,1192.5-421.5z"/>
								<path class="st3" d="M1289-625.4c0,21.8-17.7,39.4-39.4,39.4s-39.4-17.7-39.4-39.4s17.7-39.3,39.4-39.3
									S1289-647.1,1289-625.4L1289-625.4z M1224.5-625.4c0,13.9,11.3,25.1,25.1,25.1s25.1-11,25.1-25.1s-11.4-25-25.1-25
									S1224.5-639.1,1224.5-625.4z"/>
								<path class="st3" d="M1289-252c0,21.7-17.7,39.3-39.4,39.3c-21.8-0.1-39.4-17.7-39.4-39.3s17.7-39.3,39.4-39.3
									S1289-273.7,1289-252z M1224.5-252c0,13.7,11.3,24.9,25.1,25.1c13.7,0,25.1-11.2,25.1-25.1s-11.1-25-25.1-25
									S1224.5-265.7,1224.5-252z"/>
								<path class="st3" d="M1417.1-257.3c0,21.8-17.7,39.4-39.3,39.4s-39.1-17.7-39.1-39.4s17.5-39.3,39.1-39.3
									S1417.1-279,1417.1-257.3L1417.1-257.3z M1352.9-257.3c0,13.9,11.1,25.1,24.8,25.1s25.1-11.3,25.1-25.1s-11.1-25-25.1-25
									S1352.9-271,1352.9-257.3z"/>
								<path class="st3" d="M1417.1,332.4c0,21.7-17.7,39.2-39.3,39.2s-39.1-17.5-39.1-39.2s17.5-39.4,39.1-39.4
									S1417.1,310.6,1417.1,332.4z M1352.9,332.4c0,13.7,11.1,24.9,24.8,24.9s25.1-11.2,25.1-24.9s-11.1-25.1-25.1-25.1
									S1352.9,318.4,1352.9,332.4z"/>
								<path class="st3" d="M1256.8,174.5c0,21.7-17.7,39.3-39.4,39.3s-39.1-17.7-39.1-39.3s17.5-39.4,39.1-39.4
									S1256.8,152.7,1256.8,174.5z M1192.5,174.5c0,13.9,11.1,25.1,24.8,25.1s25.1-11.2,25.1-25.1s-11.3-25.1-25.1-25.1
									S1192.5,160.5,1192.5,174.5z"/>
								<path class="st3" d="M1577.5,174.5c0,21.7-17.7,39.3-39.3,39.3s-39.4-17.7-39.4-39.3s17.7-39.3,39.4-39.3
									S1577.5,152.7,1577.5,174.5z M1513.1,174.5c0,13.9,11.2,25.1,25.1,25.1s25.1-11.2,25.1-25.1s-11.1-25-25.1-25
									S1513.1,160.7,1513.1,174.5z"/>
								<path class="st3" d="M1545.3,1219.9c0,21.8-17.5,39.4-39.1,39.4s-39.3-17.6-39.3-39.4s17.7-39.4,39.3-39.4
									S1545.3,1198.2,1545.3,1219.9z M1481.1,1219.9c0,13.9,11.3,25.1,25.1,25.1s24.8-11.1,24.8-25.1s-11.1-25.1-24.8-25.1
									S1481.1,1206.1,1481.1,1219.9z"/>
								<path class="st3" d="M1545.3,67.6c0,21.7-17.7,39.2-39.4,39.2s-39.1-17.5-39.1-39.2s17.5-39.4,39.1-39.4
									S1545.3,45.9,1545.3,67.6z M1481.1,67.6c0,13.7,11.1,24.9,24.8,24.9s25.1-10.9,25.1-24.9s-11.3-25.1-25.1-25.1
									S1481.1,53.7,1481.1,67.6z"/>
								<path class="st3" d="M1673.5,942.6c0,21.7-17.5,39.4-39.1,39.4s-39.4-17.7-39.4-39.4s17.7-39.4,39.4-39.4
									S1673.5,920.9,1673.5,942.6z M1609.3,942.6c0,13.9,11.3,25.1,25.1,25.1s24.8-11.1,24.8-25.1s-11.1-25.1-24.8-25.1
									S1609.3,928.6,1609.3,942.6z"/>
								<path class="st3" d="M1673.5,1154.9c0,21.7-17.5,39.4-39.1,39.4s-39.4-17.8-39.4-39.4s17.7-39.4,39.4-39.4
									S1673.5,1133.2,1673.5,1154.9z M1609.3,1154.9c0,13.9,11.3,25.1,25.1,25.1s24.8-11.1,24.8-25.1s-11.1-25.1-24.8-25.1
									S1609.3,1140.9,1609.3,1154.9z"/>
								<path class="st3" d="M1417.1,2042c0,21.7-17.7,39.4-39.3,39.4s-39.1-17.8-39.1-39.4s17.5-39.4,39.1-39.4
									S1417.1,2020.3,1417.1,2042z M1352.9,2042c0,13.9,11.1,25.1,24.8,25.1s25.1-11.1,25.1-25.1s-11.3-25.1-25.1-25.1
									S1352.9,2028,1352.9,2042z"/>
								<path class="st3" d="M1289,974.8c0,21.8-17.7,39.4-39.4,39.4s-39.4-17.6-39.4-39.4s17.7-39.4,39.4-39.4
									S1289,953.1,1289,974.8z M1224.5,974.8c0,13.9,11.3,25.1,25.1,25.1s25.1-11.1,25.1-25.1s-11.4-25.1-25.1-25.1
									S1224.5,961,1224.5,974.8z"/>
								<path class="st3" d="M1545.3,1775.4c0,21.8-17.7,39.4-39.4,39.4s-39.1-17.6-39.1-39.4s17.5-39.3,39.1-39.3
									S1545.3,1753.8,1545.3,1775.4z M1481.1,1775.4c0,13.9,11.1,25.2,24.8,25.2s25.1-11.3,25.1-25.2s-11.3-25.1-25.1-25.1
									S1481.1,1761.6,1481.1,1775.4z"/>
								<path class="st3" d="M1545.3,2273.8c0,21.8-17.7,39.4-39.4,39.4s-39.1-17.6-39.1-39.4s17.5-39.4,39.1-39.4
									S1545.3,2252.2,1545.3,2273.8z M1481.1,2273.8c0,13.9,11.1,25.2,24.8,25.2s25.1-11.3,25.1-25.2s-11.3-25.1-25.1-25.1
									S1481.1,2260,1481.1,2273.8z"/>
								<path class="st3" d="M1930.1,838.5c0,21.8-17.7,39.4-39.3,39.4s-39.4-17.7-39.4-39.4s17.7-39.4,39.4-39.4
									S1930.1,816.8,1930.1,838.5z M1865.6,838.5c0,13.9,11.3,25.1,25.1,25.1s25.1-11.3,25.1-25.1s-11.3-25.1-25.1-25.1
									S1865.6,824.7,1865.6,838.5z"/>
								<path class="st3" d="M1769.7,1332.1c0,21.7-17.7,39.4-39.4,39.4s-39.4-17.8-39.4-39.4s17.7-39.4,39.4-39.4
									S1769.7,1310.5,1769.7,1332.1z M1705.2,1332.1c0,13.9,11.4,25.1,25.1,25.1s25.1-11.1,25.1-25.1s-11.3-25.1-25.1-25.1
									S1705.2,1318.2,1705.2,1332.1z"/>
								<path class="st3" d="M1929.8,1443.5c0,21.7-17.5,39.4-39.1,39.4s-39.4-17.7-39.4-39.4s17.7-39.4,39.4-39.4
									S1929.8,1421.7,1929.8,1443.5z M1865.6,1443.5c0,13.8,11.3,25.1,25.1,25.1s24.8-11.3,24.8-25.1s-11.1-25.1-24.8-25.1
									S1865.6,1429.5,1865.6,1443.5z"/>
								<path class="st3" d="M1801.7,1939.3c0,21.7-17.5,39.4-39.1,39.4s-39.4-17.8-39.4-39.4s17.7-39.4,39.4-39.4
									S1801.7,1917.5,1801.7,1939.3z M1737.4,1939.3c0,13.8,11.4,25.1,25.1,25.1s24.8-11.3,24.8-25.1s-11.1-25.1-24.8-25.1
									S1737.4,1925.4,1737.4,1939.3z"/>
								<path class="st3" d="M1929.8,2143.5c0,21.7-17.5,39.4-39.1,39.4s-39.4-17.8-39.4-39.4s17.7-39.4,39.4-39.4
									S1929.8,2121.8,1929.8,2143.5z M1865.6,2143.5c0,13.9,11.3,25.1,25.1,25.1s24.8-11.1,24.8-25.1s-11.1-25.1-24.8-25.1
									S1865.6,2129.5,1865.6,2143.5z"/>
								<path class="st3" d="M1673.5,2601.2c0,21.7-17.5,39.4-39.1,39.4s-39.4-17.7-39.4-39.4s17.7-39.4,39.4-39.4
									S1673.5,2579.5,1673.5,2601.2z M1609.3,2601.2c0,14.1,11.1,25.1,25.1,25.1s24.8-11.1,24.8-25.1s-11.1-25.1-24.8-25.1
									S1609.3,2587.4,1609.3,2601.2z"/>
								<path class="st3" d="M2058.2,1396.5c0,21.8-17.6,39.4-39.4,39.4s-39.3-17.6-39.3-39.4s17.7-39.4,39.3-39.4
									S2058.2,1374.8,2058.2,1396.5z M1993.8,1396.5c0,13.9,11.3,25.1,25.1,25.1s25.1-11.1,25.1-25.1s-11.1-25.1-25.1-25.1
									S1993.8,1382.7,1993.8,1396.5z"/>
								<path class="st3" d="M2058.2,2459.2c0,21.8-17.6,39.4-39.4,39.4s-39.3-17.6-39.3-39.4s17.7-39.4,39.3-39.4
									S2058.2,2437.6,2058.2,2459.2z M1993.8,2459.2c0,13.9,11.3,25.1,25.1,25.1s25.1-11.1,25.1-25.1s-11.1-25.1-25.1-25.1
									S1993.8,2445.4,1993.8,2459.2z"/>
								<path class="st3" d="M1929.8,1262.7c0,21.7-17.5,39.4-39.1,39.4s-39.4-17.7-39.4-39.4s17.7-39.4,39.4-39.4
									S1929.8,1241.1,1929.8,1262.7z M1865.6,1262.7c0,13.9,11.3,25.1,25.1,25.1s24.8-11.1,24.8-25.1s-11.1-25.1-24.8-25.1
									S1865.6,1248.8,1865.6,1262.7z"/>
								<path class="st3" d="M1801.7,824.3c0,21.8-17.5,39.4-39.1,39.4s-39.4-17.7-39.4-39.4s17.7-39.4,39.4-39.4
									S1801.7,802.5,1801.7,824.3z M1737.4,824.3c0,13.9,11.4,25.1,25.1,25.1s24.8-11.2,24.8-25.1s-11.1-25.1-24.8-25.1
									S1737.4,810.4,1737.4,824.3z"/>
								<path class="st3" d="M1801.7-479.8c0,21.7-17.5,39.2-39.1,39.2s-39.4-17.5-39.4-39.2s17.7-39.4,39.4-39.4
									S1801.7-501.6,1801.7-479.8L1801.7-479.8z M1737.4-479.8c0,14,11,24.9,25.1,24.9s24.8-11.2,24.8-24.9s-11.3-25.1-24.8-25.1
									S1737.4-493.7,1737.4-479.8z"/>
								<rect x="1883.5" y="-956.3" class="st3" width="14.3" height="924.3"/>
								<rect x="1755.3" y="-956.3" class="st3" width="14.4" height="444.2"/>
								<polygon class="st3" points="2018.8,293 2018.8,307.2 1755.3,307.2 1755.3,-207.5 1627.2,-207.5 1627.2,-956.3 
									1641.5,-956.3 1641.5,-221.8 1769.7,-221.8 1769.7,293 								"/>
								<polygon class="st3" points="2018.8,621.3 2018.8,635.6 1897.8,635.6 1897.8,764.9 1755.3,764.9 1755.3,531.6 1627.2,531.6 
									1627.2,6.6 1498.8,6.6 1498.8,-956.3 1513.1,-956.3 1513.1,-7.7 1641.5,-7.7 1641.5,517.3 1769.7,517.3 1769.7,750.6 
									1883.5,750.6 1883.5,621.3 								"/>
								<polygon class="st3" points="1384.9,-956.3 1384.9,-414.3 1249.6,-414.3 1249.6,-428.6 1370.6,-428.6 1370.6,-956.3 
																	"/>
								<rect x="1370.6" y="-229.4" class="st3" width="14.3" height="529.5"/>
								<polygon class="st3" points="1641.5,653.6 1641.5,910.3 1627.2,910.3 1627.2,667.9 1498.8,667.9 1498.8,96.8 1513.1,96.8 
									1513.1,653.6 								"/>
								<polygon class="st3" points="2026,1096.2 2026,1339.3 1762.5,1339.3 1762.5,1324.9 2011.6,1324.9 2011.6,1110.4 
									1883.5,1110.4 1883.5,870 1897.8,870 1897.8,1096.2 								"/>
								<polygon class="st3" points="1897.8,1157.6 1897.8,1230.5 1883.5,1230.5 1883.5,1171.9 1755.3,1171.9 1755.3,856.5 
									1769.7,856.5 1769.7,1157.6 								"/>
								<polygon class="st3" points="1641.5,1187.1 1641.5,1608.5 1498.8,1608.5 1498.8,1445.6 1384.9,1445.6 1384.9,2009.7 
									1370.6,2009.7 1370.6,1431.2 1513.1,1431.2 1513.1,1594.3 1627.2,1594.3 1627.2,1187.1 								"/>
								<polygon class="st3" points="1641.5,1959.2 1641.5,2099.1 1513.3,2099.1 1513.3,2241.6 1499.1,2241.6 1499.1,2084.9 
									1627.2,2084.9 1627.2,1973.5 1498.8,1973.5 1498.8,1807.8 1513.1,1807.8 1513.1,1959.2 								"/>
								<polygon class="st3" points="2026,1430.8 2026,1782.6 1897.8,1782.6 1897.8,2034.8 2026,2034.8 2026,2427 2011.6,2427 
									2011.6,2049.1 1883.5,2049.1 1883.5,1768.4 2011.6,1768.4 2011.6,1430.8 								"/>
								<polygon class="st3" points="1897.8,1475.7 1897.8,1701.3 1769.7,1701.3 1769.7,1909.5 1755.3,1909.5 1755.3,1686.9 
									1883.5,1686.9 1883.5,1475.7 								"/>
								<polygon class="st3" points="1897.8,2175.7 1897.8,2389.3 1755.3,2389.3 1755.3,2286.1 1641.5,2286.1 1641.5,2560.4 
									1627.2,2560.4 1627.2,2271.7 1769.7,2271.7 1769.7,2375.1 1883.5,2375.1 1883.5,2175.7 								"/>
								<rect x="1242.4" y="-956.3" class="st3" width="14.4" height="298.8"/>
								<polygon class="st3" points="1513.3,912.2 1513.3,1187.1 1499.1,1187.1 1499.1,926.5 1370.6,926.5 1370.6,630.3 
									1242.4,630.3 1242.4,367.1 1114.3,367.1 1114.3,86.6 1242.4,86.6 1242.4,-220.4 1256.8,-220.4 1256.8,100.9 1128.6,100.9 
									1128.6,352.8 1256.8,352.8 1256.8,616 1384.9,616 1384.9,912.2 								"/>
								<rect x="1762.5" y="420.9" class="st3" width="256.3" height="14.3"/>
								<rect x="1249.6" y="167.3" class="st3" width="256.6" height="14.3"/>
								<polygon class="st3" points="1384.9,2121.9 1384.9,2636.8 1370.6,2636.8 1370.6,2136.1 1242.4,2136.1 1242.4,1736.3 
									1114.3,1736.3 1114.3,1322.7 1242.4,1322.7 1242.4,1008.2 1256.8,1008.2 1256.8,1336.9 1128.6,1336.9 1128.6,1721.8 
									1256.8,1721.8 1256.8,2121.9 								"/>
								<rect x="1242.4" y="1423.4" class="st3" width="14.4" height="202.2"/>
							</g>
							<path class="st3" d="M1032.5,1664.9c0,21.7-17.5,39.3-39.1,39.3s-39.3-17.6-39.3-39.3s17.7-39.4,39.3-39.4
								S1032.5,1643.1,1032.5,1664.9z M968.3,1664.9c0,13.9,11,24.9,25.1,24.9s24.8-11.3,24.8-24.9s-11-25.2-24.8-25.2
								S968.3,1651,968.3,1664.9z"/>
							<path class="st3" d="M1288.9,1664.9c0,21.7-17.5,39.3-39.1,39.3s-39.4-17.6-39.4-39.3s17.7-39.4,39.4-39.4
								S1288.9,1643.1,1288.9,1664.9z M1224.6,1664.9c0,13.9,11.1,24.9,25.1,24.9s24.8-11.3,24.8-24.9s-11.1-25.2-24.8-25.2
								S1224.6,1651,1224.6,1664.9z"/>
							<path class="st3" d="M1288.9,1384.4c0,21.7-17.5,39.1-39.1,39.1s-39.4-17.5-39.4-39.1s17.7-39.4,39.4-39.4
								S1288.9,1362.6,1288.9,1384.4z M1224.6,1384.4c0,13.9,11.1,24.9,25.1,24.9s24.8-11.3,24.8-24.9s-11.1-25.2-24.8-25.2
								S1224.6,1370.4,1224.6,1384.4z"/>
							<path class="st3" d="M2294.8,285.6c0,21.8-17.3,39.3-39,39.3s-39.4-17.5-39.4-39.3s17.6-39.3,39.4-39.3
								S2294.8,264,2294.8,285.6z M2230.6,285.6c0,14.1,11.3,25,25.2,25s24.8-11.2,24.8-25s-11-25.1-24.8-25.1
								S2230.6,271.8,2230.6,285.6z"/>
							<path class="st3" d="M2294.8,12.4c0,21.8-17.3,39.3-39,39.3s-39.4-17.5-39.4-39.3s17.6-39.4,39.4-39.4
								S2294.8-9.4,2294.8,12.4L2294.8,12.4z M2230.6,12.4c0,14,11.3,24.9,25.2,24.9s24.8-11.2,24.8-24.9s-11-25.1-24.8-25.1
								S2230.6-1.5,2230.6,12.4z"/>
							<path class="st3" d="M3302.8,12.4c0,21.8-17.5,39.3-39,39.3s-39.6-17.5-39.6-39.3s17.7-39.4,39.6-39.4
								S3302.8-9.4,3302.8,12.4L3302.8,12.4z M3238.6,12.4c0,14,11.1,24.9,25.2,24.9s24.6-11.2,24.6-24.9s-10.8-25.1-24.6-25.1
								S3238.6-1.5,3238.6,12.4z"/>
							<path class="st3" d="M3302.8,285.5c0,21.8-17.5,39.3-39,39.3s-39.6-17.5-39.6-39.3s17.7-39.3,39.6-39.3
								S3302.8,263.8,3302.8,285.5z M3238.6,285.5c0,14.1,11.1,25,25.2,25s24.6-11.2,24.6-25s-10.8-25.1-24.6-25.1
								S3238.6,271.6,3238.6,285.5z"/>
							<path class="st3" d="M1032.5,1384.4c0,21.7-17.5,39.1-39.1,39.1S954,1406,954,1384.4s17.7-39.4,39.3-39.4
								S1032.5,1362.6,1032.5,1384.4z M968.3,1384.4c0,13.9,11,24.9,25.1,24.9s24.8-11.3,24.8-24.9s-11-25.2-24.8-25.2
								S968.3,1370.4,968.3,1384.4z"/>
						</g>
					</g>
				</g>
			</g>
		</g>
	</g>
</g>
</svg>