<?xml version="1.0" encoding="utf-8"?>
<!-- Generator: Adobe Illustrator 27.9.0, SVG Export Plug-In . SVG Version: 6.00 Build 0)  -->
<svg version="1.1" id="Capa_2_00000034784640880514862670000011329315553156822670_"
	 xmlns="http://www.w3.org/2000/svg" xmlns:xlink="http://www.w3.org/1999/xlink" x="0px" y="0px" viewBox="0 0 82.5 93.3"
	 style="enable-background:new 0 0 82.5 93.3;" xml:space="preserve">
<style type="text/css">
	.st0{fill:url(#SVGID_1_);}
	.st1{fill:#FFFFFF;}
	.st2{fill:#74F7CE;}
	.st3{fill:none;stroke:#FFFFFF;stroke-width:4.14;stroke-linecap:round;}
</style>
<g id="Capa_4">
	<g>
		
			<linearGradient id="SVGID_1_" gradientUnits="userSpaceOnUse" x1="41.24" y1="90.3762" x2="41.24" y2="7.8862" gradientTransform="matrix(1 0 0 -1 0 94.2362)">
			<stop  offset="0" style="stop-color:#6691FF"/>
			<stop  offset="0.5" style="stop-color:#386FFF"/>
			<stop  offset="1" style="stop-color:#2E68FF"/>
		</linearGradient>
		<path class="st0" d="M0,26.5v40.2c0,2.3,1.2,4.4,3.2,5.5L38,92.4c2,1.1,4.4,1.1,6.4,0l34.8-20.1c2-1.1,3.2-3.3,3.2-5.5V26.5
			c0-2.3-1.2-4.4-3.2-5.5L44.5,0.9c-2-1.1-4.4-1.1-6.4,0L3.2,21C1.2,22.1,0,24.2,0,26.5L0,26.5z"/>
		<g>
			<path class="st1" d="M10.3,66.9l-0.4-0.2c-1.1-0.6-1.8-1.8-1.8-3.1v-0.5C8.2,64.7,9,66.2,10.3,66.9L10.3,66.9z"/>
			<path d="M8.2,63.2v0.5c0,1.3,0.7,2.4,1.8,3.1l0.4,0.2C9,66.2,8.2,64.7,8.2,63.2L8.2,63.2L8.2,63.2z"/>
		</g>
		<g>
			<path class="st2" d="M56,14.2L44.6,7.6c-2.1-1.2-4.7-1.2-6.8,0L9.1,24.2c-2.1,1.2-3.4,3.5-3.4,5.9v13.1c0,0.4,0.2,0.8,0.6,1.1
				c0.2,0.1,0.4,0.2,0.6,0.2s0.4-0.1,0.6-0.2l0,0c0.4-0.2,0.6-0.6,0.6-1.1V30.1c0-1.6,0.8-3,2.2-3.8L39,9.8h0
				c0.7-0.4,1.4-0.6,2.2-0.6s1.5,0.2,2.2,0.6l9.5,5.5l1.8,1.1c0.4,0.2,0.8,0.2,1.2,0l0,0c0.4-0.2,0.6-0.6,0.6-1.1S56.4,14.4,56,14.2
				L56,14.2z"/>
			<path class="st2" d="M56,77L56,77c-0.4-0.2-0.8-0.2-1.2,0l-1.8,1.1l-9.5,5.5c0,0,0,0,0,0c-1.3,0.7-2.9,0.8-4.2,0.1
				c0,0-0.1-0.1-0.1-0.1L10.4,67c0,0,0,0-0.1,0c-1.3-0.8-2.1-2.2-2.1-3.8V50.1c0-0.4-0.2-0.8-0.6-1.1l0,0c-0.4-0.2-0.8-0.2-1.2,0
				s-0.6,0.6-0.6,1.1v13.1c0,2.4,1.3,4.7,3.4,5.9l28.7,16.6c1.1,0.6,2.2,0.9,3.4,0.9s2.4-0.3,3.4-0.9l11.3-6.5
				c0.4-0.2,0.6-0.6,0.6-1.1S56.3,77.2,56,77L56,77z"/>
			<path class="st2" d="M73.3,24.2l-11.5-6.6c-0.4-0.2-0.8-0.2-1.2,0s-0.6,0.6-0.6,1.1l0,0c0,0.4,0.2,0.9,0.6,1.1l1.8,1.1l4.3,2.5
				l5.3,3.1c1.3,0.8,2.2,2.2,2.2,3.8v33.1c0,1.6-0.8,3-2.2,3.8c0,0,0,0,0,0l-9.7,5.6l-1.8,1.1c-0.4,0.2-0.6,0.6-0.6,1.1l0,0
				c0,0.4,0.2,0.8,0.6,1.1c0.2,0.1,0.4,0.2,0.6,0.2s0.4-0.1,0.6-0.2l11.5-6.7c2.1-1.2,3.4-3.5,3.4-5.9V30.1
				C76.7,27.7,75.4,25.4,73.3,24.2L73.3,24.2z"/>
		</g>
		<g>
			<path class="st1" d="M56,14.2L44.6,7.6c-2.1-1.2-4.7-1.2-6.8,0L9.1,24.2c-2.1,1.2-3.4,3.5-3.4,5.9v13.1c0,0.4,0.2,0.8,0.6,1.1
				c0.2,0.1,0.4,0.2,0.6,0.2s0.4-0.1,0.6-0.2l0,0c0.4-0.2,0.6-0.6,0.6-1.1V30.1c0-1.6,0.8-3,2.2-3.8L39,9.8h0
				c0.7-0.4,1.4-0.6,2.2-0.6s1.5,0.2,2.2,0.6l9.5,5.5l1.8,1.1c0.4,0.2,0.8,0.2,1.2,0l0,0c0.4-0.2,0.6-0.6,0.6-1.1S56.4,14.4,56,14.2
				L56,14.2z"/>
			<path class="st1" d="M56,77L56,77c-0.4-0.2-0.8-0.2-1.2,0l-1.8,1.1l-9.5,5.5c0,0,0,0,0,0c-1.3,0.7-2.9,0.8-4.2,0.1
				c0,0-0.1-0.1-0.1-0.1L10.4,67c0,0,0,0-0.1,0c-1.3-0.8-2.1-2.2-2.1-3.8V50.1c0-0.4-0.2-0.8-0.6-1.1l0,0c-0.4-0.2-0.8-0.2-1.2,0
				s-0.6,0.6-0.6,1.1v13.1c0,2.4,1.3,4.7,3.4,5.9l28.7,16.6c1.1,0.6,2.2,0.9,3.4,0.9s2.4-0.3,3.4-0.9l11.3-6.5
				c0.4-0.2,0.6-0.6,0.6-1.1S56.3,77.2,56,77L56,77z"/>
			<path class="st1" d="M73.3,24.2l-11.5-6.6c-0.4-0.2-0.8-0.2-1.2,0s-0.6,0.6-0.6,1.1l0,0c0,0.4,0.2,0.9,0.6,1.1l1.8,1.1l4.3,2.5
				l5.3,3.1c1.3,0.8,2.2,2.2,2.2,3.8v33.1c0,1.6-0.8,3-2.2,3.8c0,0,0,0,0,0l-9.7,5.6l-1.8,1.1c-0.4,0.2-0.6,0.6-0.6,1.1l0,0
				c0,0.4,0.2,0.8,0.6,1.1c0.2,0.1,0.4,0.2,0.6,0.2s0.4-0.1,0.6-0.2l11.5-6.7c2.1-1.2,3.4-3.5,3.4-5.9V30.1
				C76.7,27.7,75.4,25.4,73.3,24.2L73.3,24.2z"/>
		</g>
		<g>
			<path class="st2" d="M40.1,67.3H38c-6.2,0-9.6,0-12.1-2.4s-2.4-5.8-2.4-12.1V40.4c0-6.2,0-9.6,2.4-12.1s5.9-2.4,12.1-2.4h2.1
				c1.1,0,2.1,0.9,2.1,2.1s-0.9,2.1-2.1,2.1H38c-5.5,0-8,0-9.1,1.2s-1.2,3.6-1.2,9.1v12.4c0,5.5,0,8,1.2,9.1s3.6,1.2,9.1,1.2h2.1
				c1.1,0,2.1,0.9,2.1,2.1S41.2,67.3,40.1,67.3L40.1,67.3z"/>
			<path class="st2" d="M47.6,58c-0.5,0-1.1-0.2-1.5-0.6c-0.8-0.8-0.8-2.1,0-2.9l5.8-5.8H38.3c-1.1,0-2.1-0.9-2.1-2.1
				s0.9-2.1,2.1-2.1h13.6l-5.8-5.8c-0.8-0.8-0.8-2.1,0-2.9s2.1-0.8,2.9,0l9.3,9.3l0,0c0.2,0.2,0.3,0.4,0.5,0.7
				c0.1,0.2,0.2,0.5,0.2,0.8s-0.1,0.5-0.2,0.8s-0.2,0.5-0.5,0.7l0,0l-9.3,9.3C48.7,57.8,48.1,58,47.6,58L47.6,58z"/>
		</g>
		<g>
			<path class="st3" d="M40.1,28H38c-5.9,0-8.8,0-10.6,1.8c-1.8,1.8-1.8,4.8-1.8,10.6v12.4c0,5.9,0,8.8,1.8,10.6s4.8,1.8,10.6,1.8
				h2.1"/>
			<path class="st3" d="M47.6,37.3l9.3,9.3 M56.9,46.6L47.6,56 M56.9,46.6H38.3"/>
		</g>
	</g>
</g>
</svg>
