<?xml version="1.0" encoding="utf-8"?>
<!-- Generator: Adobe Illustrator 27.9.0, SVG Export Plug-In . SVG Version: 6.00 Build 0)  -->
<svg version="1.1" id="Capa_2_00000013168358857966949880000000817879299354602373_"
	 xmlns="http://www.w3.org/2000/svg" xmlns:xlink="http://www.w3.org/1999/xlink" x="0px" y="0px" viewBox="0 0 257.1 93.3"
	 style="enable-background:new 0 0 257.1 93.3;" xml:space="preserve">
<style type="text/css">
	.st0{fill:#FFFFFF;}
	.st1{fill:url(#SVGID_1_);}
	.st2{fill:#74F7CE;}
	.st3{fill:url(#SVGID_00000028315593175635305290000010729145011942883742_);}
	.st4{fill:url(#SVGID_00000171000051307694388740000013238360725301282711_);}
	.st5{fill-rule:evenodd;clip-rule:evenodd;fill:#29ABE2;}
</style>
<g id="Capa_4">
	<g>
		<path class="st0" d="M70.7,26.9h178c4.7,0,8.5,3.8,8.5,8.5v22.9c0,4.7-3.8,8.5-8.5,8.5h-178c-4.7,0-8.5-3.8-8.5-8.5V35.3
			C62.2,30.6,66,26.9,70.7,26.9z"/>
		<g>
			
				<linearGradient id="SVGID_1_" gradientUnits="userSpaceOnUse" x1="41.24" y1="90.3762" x2="41.24" y2="7.8862" gradientTransform="matrix(1 0 0 -1 0 94.2362)">
				<stop  offset="0" style="stop-color:#6691FF"/>
				<stop  offset="0.5" style="stop-color:#386FFF"/>
				<stop  offset="1" style="stop-color:#2E68FF"/>
			</linearGradient>
			<path class="st1" d="M0,26.5v40.2c0,2.3,1.2,4.4,3.2,5.5L38,92.4c2,1.1,4.4,1.1,6.4,0l34.8-20.1c2-1.1,3.2-3.3,3.2-5.5V26.5
				c0-2.3-1.2-4.4-3.2-5.5L44.5,0.9c-2-1.1-4.4-1.1-6.4,0L3.2,21C1.2,22.1,0,24.2,0,26.5L0,26.5z"/>
			<g>
				<path class="st0" d="M10.3,66.9l-0.4-0.2c-1.1-0.6-1.8-1.8-1.8-3.1v-0.5C8.2,64.7,9,66.2,10.3,66.9L10.3,66.9z"/>
				<path d="M8.2,63.2v0.5c0,1.3,0.7,2.4,1.8,3.1l0.4,0.2C9,66.2,8.2,64.7,8.2,63.2L8.2,63.2L8.2,63.2z"/>
			</g>
			<g>
				<path class="st2" d="M56,14.2L44.6,7.6c-2.1-1.2-4.7-1.2-6.8,0L9.1,24.2c-2.1,1.2-3.4,3.5-3.4,5.9v13.1c0,0.4,0.2,0.8,0.6,1.1
					c0.2,0.1,0.4,0.2,0.6,0.2s0.4-0.1,0.6-0.2l0,0c0.4-0.2,0.6-0.6,0.6-1.1V30.1c0-1.6,0.8-3,2.2-3.8L39,9.8h0
					c0.7-0.4,1.4-0.6,2.2-0.6s1.5,0.2,2.2,0.6l9.5,5.5l1.8,1.1c0.4,0.2,0.8,0.2,1.2,0l0,0c0.4-0.2,0.6-0.6,0.6-1.1
					S56.4,14.4,56,14.2L56,14.2z"/>
				<path class="st2" d="M56,77L56,77c-0.4-0.2-0.8-0.2-1.2,0l-1.8,1.1l-9.5,5.5c0,0,0,0,0,0c-1.3,0.7-2.9,0.8-4.2,0.1
					c0,0-0.1-0.1-0.1-0.1L10.4,67c0,0,0,0-0.1,0c-1.3-0.8-2.1-2.2-2.1-3.8V50.1c0-0.4-0.2-0.8-0.6-1.1l0,0c-0.4-0.2-0.8-0.2-1.2,0
					s-0.6,0.6-0.6,1.1v13.1c0,2.4,1.3,4.7,3.4,5.9l28.7,16.6c1.1,0.6,2.2,0.9,3.4,0.9s2.4-0.3,3.4-0.9l11.3-6.5
					c0.4-0.2,0.6-0.6,0.6-1.1S56.3,77.2,56,77L56,77z"/>
				<path class="st2" d="M73.3,24.2l-11.5-6.6c-0.4-0.2-0.8-0.2-1.2,0s-0.6,0.6-0.6,1.1l0,0c0,0.4,0.2,0.9,0.6,1.1l1.8,1.1l4.3,2.5
					l5.3,3.1c1.3,0.8,2.2,2.2,2.2,3.8v33.1c0,1.6-0.8,3-2.2,3.8c0,0,0,0,0,0l-9.7,5.6l-1.8,1.1c-0.4,0.2-0.6,0.6-0.6,1.1l0,0
					c0,0.4,0.2,0.8,0.6,1.1c0.2,0.1,0.4,0.2,0.6,0.2s0.4-0.1,0.6-0.2l11.5-6.7c2.1-1.2,3.4-3.5,3.4-5.9V30.1
					C76.7,27.7,75.4,25.4,73.3,24.2L73.3,24.2z"/>
			</g>
			<g>
				<path class="st0" d="M56,14.2L44.6,7.6c-2.1-1.2-4.7-1.2-6.8,0L9.1,24.2c-2.1,1.2-3.4,3.5-3.4,5.9v13.1c0,0.4,0.2,0.8,0.6,1.1
					c0.2,0.1,0.4,0.2,0.6,0.2s0.4-0.1,0.6-0.2l0,0c0.4-0.2,0.6-0.6,0.6-1.1V30.1c0-1.6,0.8-3,2.2-3.8L39,9.8h0
					c0.7-0.4,1.4-0.6,2.2-0.6s1.5,0.2,2.2,0.6l9.5,5.5l1.8,1.1c0.4,0.2,0.8,0.2,1.2,0l0,0c0.4-0.2,0.6-0.6,0.6-1.1
					S56.4,14.4,56,14.2L56,14.2z"/>
				<path class="st0" d="M56,77L56,77c-0.4-0.2-0.8-0.2-1.2,0l-1.8,1.1l-9.5,5.5c0,0,0,0,0,0c-1.3,0.7-2.9,0.8-4.2,0.1
					c0,0-0.1-0.1-0.1-0.1L10.4,67c0,0,0,0-0.1,0c-1.3-0.8-2.1-2.2-2.1-3.8V50.1c0-0.4-0.2-0.8-0.6-1.1l0,0c-0.4-0.2-0.8-0.2-1.2,0
					s-0.6,0.6-0.6,1.1v13.1c0,2.4,1.3,4.7,3.4,5.9l28.7,16.6c1.1,0.6,2.2,0.9,3.4,0.9s2.4-0.3,3.4-0.9l11.3-6.5
					c0.4-0.2,0.6-0.6,0.6-1.1S56.3,77.2,56,77L56,77z"/>
				<path class="st0" d="M73.3,24.2l-11.5-6.6c-0.4-0.2-0.8-0.2-1.2,0s-0.6,0.6-0.6,1.1l0,0c0,0.4,0.2,0.9,0.6,1.1l1.8,1.1l4.3,2.5
					l5.3,3.1c1.3,0.8,2.2,2.2,2.2,3.8v33.1c0,1.6-0.8,3-2.2,3.8c0,0,0,0,0,0l-9.7,5.6l-1.8,1.1c-0.4,0.2-0.6,0.6-0.6,1.1l0,0
					c0,0.4,0.2,0.8,0.6,1.1c0.2,0.1,0.4,0.2,0.6,0.2s0.4-0.1,0.6-0.2l11.5-6.7c2.1-1.2,3.4-3.5,3.4-5.9V30.1
					C76.7,27.7,75.4,25.4,73.3,24.2L73.3,24.2z"/>
			</g>
			<g>
				
					<linearGradient id="SVGID_00000109009159743238776350000003671939964783771570_" gradientUnits="userSpaceOnUse" x1="45.5418" y1="275.5305" x2="60.9466" y2="291.062" gradientTransform="matrix(1 0 0 1 0 -238.2362)">
					<stop  offset="0.21" style="stop-color:#F15A24"/>
					<stop  offset="0.6841" style="stop-color:#FBB03B"/>
				</linearGradient>
				<path style="fill:url(#SVGID_00000109009159743238776350000003671939964783771570_);" d="M51.4,35.5c-2.5,0-5.2,1.4-8.1,4
					c-1.4,1.3-2.6,2.6-3.4,3.7c0,0,1.4,1.6,2.9,3.3c0.8-1,2-2.5,3.4-3.8c2.6-2.4,4.2-2.9,5.2-2.9c3.6,0,6.5,3,6.5,6.8
					c0,3.7-2.9,6.7-6.5,6.8c-0.2,0-0.4,0-0.6-0.1c1,0.5,2.2,0.8,3.2,0.8c6.6,0,7.9-4.6,8-4.9c0.2-0.8,0.3-1.7,0.3-2.6
					C62.3,40.6,57.4,35.5,51.4,35.5z"/>
				
					<linearGradient id="SVGID_00000022551562290567194830000002630330740032054949_" gradientUnits="userSpaceOnUse" x1="34.1964" y1="294.4443" x2="18.7916" y2="278.9128" gradientTransform="matrix(1 0 0 1 0 -238.2362)">
					<stop  offset="0.21" style="stop-color:#ED1E79"/>
					<stop  offset="0.8929" style="stop-color:#522785"/>
				</linearGradient>
				<path style="fill:url(#SVGID_00000022551562290567194830000002630330740032054949_);" d="M28.3,58c2.5,0,5.2-1.4,8.1-4
					c1.4-1.3,2.6-2.6,3.4-3.7c0,0-1.4-1.6-2.9-3.3c-0.8,1-2,2.5-3.4,3.8c-2.6,2.4-4.2,2.9-5.2,2.9c-3.6,0-6.5-3-6.5-6.8
					c0-3.7,2.9-6.7,6.5-6.8c0.2,0,0.4,0,0.6,0.1c-1-0.5-2.2-0.8-3.2-0.8c-6.6,0-7.9,4.5-8,4.9c-0.2,0.8-0.3,1.7-0.3,2.6
					C17.5,52.9,22.3,58,28.3,58z"/>
				<path class="st5" d="M33.4,43c-0.7-0.7-4.2-3.6-7.6-3.7c-6-0.1-7.8,4.2-7.9,4.8c1.2-4.9,5.5-8.6,10.6-8.6
					c4.2,0,8.4,4.1,11.5,7.8l0,0c0,0,1.4,1.6,2.9,3.3c0,0,1.7,2.1,3.6,3.9c0.7,0.7,4.2,3.5,7.6,3.6c6.2,0.2,7.9-4.4,8-4.8
					c-1.1,4.9-5.4,8.6-10.6,8.6c-4.2,0-8.4-4.1-11.5-7.8c0,0,0,0,0,0c0,0-1.4-1.6-2.9-3.3C37,46.9,35.2,44.8,33.4,43z M17.8,44.2
					C17.8,44.1,17.8,44.1,17.8,44.2C17.8,44.1,17.8,44.1,17.8,44.2z"/>
			</g>
		</g>
	</g>
</g>
</svg>
