<?xml version="1.0" encoding="utf-8"?>
<!-- Generator: Adobe Illustrator 28.1.0, SVG Export Plug-In . SVG Version: 6.00 Build 0)  -->
<svg version="1.1" xmlns="http://www.w3.org/2000/svg" xmlns:xlink="http://www.w3.org/1999/xlink"
	x="0px" y="0px"
	viewBox="0 0 1618.4 934.1" style="enable-background:new 0 0 1618.4 934.1;" xml:space="preserve">
<style type="text/css">
	.st0{fill:none;}
	.st1{fill:url(#SVGID_1_);stroke:#000000;stroke-width:3;stroke-miterlimit:10;}
	.st2{fill:url(#SVGID_00000147186795148933047150000012165427125980918405_);stroke:#000000;stroke-width:3;stroke-miterlimit:10;}
	.st3{fill:url(#SVGID_00000113311552181639062150000013262601317766273675_);stroke:#4D4D4D;stroke-width:3;stroke-miterlimit:10;}
	
		.st4{fill:url(#SVGID_00000097495971791202869590000004866579965225905854_);stroke:#666666;stroke-width:3;stroke-linecap:round;stroke-linejoin:round;}
	.st5{fill:url(#SVGID_00000178910102258294398230000016770366910529109377_);stroke:#333333;stroke-width:3;stroke-miterlimit:10;}
	
		.st6{fill:url(#SVGID_00000070815617327436151710000000516197200008678814_);stroke:#666666;stroke-width:3;stroke-linecap:round;stroke-linejoin:round;}
	.st7{fill:url(#SVGID_00000026147568061260710700000015091244804893114021_);stroke:#4D4D4D;stroke-width:3;stroke-miterlimit:10;}
	
		.st8{fill:url(#SVGID_00000006671723618621975490000005042069732097557381_);stroke:#666666;stroke-width:3;stroke-linecap:round;stroke-linejoin:round;}
	.st9{fill:url(#SVGID_00000165950107647891931640000011400794045547393196_);stroke:#000000;stroke-width:3;stroke-miterlimit:10;}
	.st10{fill:url(#SVGID_00000052066010172552156670000005030664402921653142_);stroke:#000000;stroke-width:3;stroke-miterlimit:10;}
	.st11{fill:url(#BrilloLente_00000096057386925618337590000003784074922092453819_);}
	.st12{fill:url(#Boton_00000114796485370725747150000002899983072951802043_);stroke:#1A1A1A;stroke-miterlimit:10;}
	.st13{fill:#2E3192;}
	.st14{fill:url(#SVGID_00000017483675376709114490000007628232244130225579_);}
	.st15{fill:#29ABE2;}
	.st16{fill:none;stroke:#34AADC;stroke-width:4;stroke-miterlimit:10;}
</style>
<g id="PathLogIn">
	<path id="ShapeLogIn" class="st0" d="M975.5,767.8c29.6-6.4,59.2-12.9,88.8-19.3c1.7-0.2,3.5-0.4,5.2-0.6
		c14.2-1.4,27.4-0.9,39.5,0.7c23.8-7.1,43.6-13.1,57.8-17.5c24.3-7.5,36.8-11.4,53.1-16.9c20.9-7.1,35.2-11.9,53.7-19.6
		c14-5.8,31.7-13.8,51.6-24.4c1.2,17.3,2.3,34.5,3.5,51.8c-19.3,9.4-37.2,17.4-53.3,24.1c-10.6,4.4-29.9,12.2-54.7,20.9
		c-20.9,7.3-36.6,12-53.3,17c-15.7,4.7-35.4,10.3-58.5,16.3c-9.8,8-22.2,15.9-37.3,21.8c-2.5,1-4.9,1.9-7.3,2.7
		c-29.1,6.3-58.3,12.7-87.4,19c-1.1,0.3-11,2.4-19.3-4.6c-8.1-6.8-8-16.5-7.9-17.7c0.2-8.4,0.5-16.9,0.7-25.3
		c0.7-3.3,2.6-10.6,8.6-17.5C965.2,771.7,972.3,768.9,975.5,767.8z"/>
</g>
<g id="Capa_1">
	<g id="Visor">
		<g id="Cinta">
			
				<linearGradient id="SVGID_1_" gradientUnits="userSpaceOnUse" x1="1176.7729" y1="1236.4547" x2="1644.833" y2="1287.6447" gradientTransform="matrix(1 0 0 1 0 -1056)">
				<stop  offset="0" style="stop-color:#09090D"/>
				<stop  offset="5.000000e-02" style="stop-color:#1C1C2A"/>
				<stop  offset="0.1" style="stop-color:#29283C"/>
				<stop  offset="0.26" style="stop-color:#464652"/>
				<stop  offset="0.36" style="stop-color:#52525C"/>
				<stop  offset="0.45" style="stop-color:#454552"/>
				<stop  offset="0.64" style="stop-color:#302F41"/>
				<stop  offset="0.76" style="stop-color:#29283C"/>
				<stop  offset="0.82" style="stop-color:#252437"/>
				<stop  offset="0.88" style="stop-color:#1C1B29"/>
				<stop  offset="0.95" style="stop-color:#0C0C12"/>
				<stop  offset="0.99" style="stop-color:#000000"/>
			</linearGradient>
			<path class="st1" d="M1616.9,255.8c0,21.4-9.6,41.7-26.9,60c-8.8-9.4-19.7-18.2-32.3-26.5c-3.7-6.3-6.8-10.8-8.5-13
				c-6.8-9.4-15.1-20.7-30-31.1c-13-9.2-25.6-13.8-34.1-16.3c-1.8-0.6-3.7-0.4-5,0.8c-1.4,1.3-1.4,3.1-1.5,3.8
				c0,0.8,0.1,1.5,0.3,2.1c0.4,0.8,0.9,1.5,1.3,2.2c0.7,1.1,1.3,2.3,2,3.5c0.2,0.3,0.3,0.6,0.5,0.9c0.2,0.3,0.3,0.6,0.5,0.9
				c0.4,0.7,0.7,1.4,1.1,2.1c0.8,1.6,1.6,3.3,2.4,4.9c0.3,0.7,0.6,1.4,0.9,2.1c0.5,1.1,0.9,2.1,1.3,3.1c0.2,0.6,0.5,1.2,0.7,1.8
				c-52.1-18.2-116.6-28.9-186.4-28.9c-51.2,0-99.6,5.8-142.3,16.1c10.2-19.7,16-42.1,16-65.8c0-19.6-3.9-38.3-11.1-55.4
				c41.5-9.5,88.1-14.9,137.4-14.9C1476.4,107.9,1616.9,174.1,1616.9,255.8L1616.9,255.8z"/>
			
				<linearGradient id="SVGID_00000106142533127301537150000001732244522227502777_" gradientUnits="userSpaceOnUse" x1="1575.1196" y1="1393.7205" x2="1621.9197" y2="1391.9204" gradientTransform="matrix(1 0 0 1 0 -1056)">
				<stop  offset="0" style="stop-color:#09090D"/>
				<stop  offset="0.17" style="stop-color:#0E0D14"/>
				<stop  offset="0.43" style="stop-color:#1C1B29"/>
				<stop  offset="0.61" style="stop-color:#29283C"/>
				<stop  offset="0.7" style="stop-color:#252437"/>
				<stop  offset="0.81" style="stop-color:#1C1B29"/>
				<stop  offset="0.92" style="stop-color:#0C0C12"/>
				<stop  offset="0.99" style="stop-color:#000000"/>
			</linearGradient>
			
				<path style="fill:url(#SVGID_00000106142533127301537150000001732244522227502777_);stroke:#000000;stroke-width:3;stroke-miterlimit:10;" d="
				M1616.9,255.8v120c0,14.2-4.3,28-12.3,41.1c-4.3-8.5-11-18.5-21.2-28.6c0.3-15-1.1-35.5-8.1-58.5c0-0.1-0.1-0.2-0.1-0.4
				c5.4-4.4,10.3-9,14.7-13.7C1607.3,297.5,1616.9,277.2,1616.9,255.8z"/>
		</g>
		<g id="Cuerpo">
			
				<radialGradient id="SVGID_00000156566088945373787880000016669470060445637051_" cx="453.2031" cy="1448.8171" r="175.15" fx="572.663" fy="1320.7373" gradientTransform="matrix(0.9684 0.2494 -0.1147 0.4455 -155.4249 -565.9457)" gradientUnits="userSpaceOnUse">
				<stop  offset="0.11" style="stop-color:#52525C"/>
				<stop  offset="0.24" style="stop-color:#585862"/>
				<stop  offset="0.44" style="stop-color:#6B6B75"/>
				<stop  offset="0.62" style="stop-color:#84848E"/>
				<stop  offset="0.72" style="stop-color:#81818B"/>
				<stop  offset="0.77" style="stop-color:#797984"/>
				<stop  offset="0.81" style="stop-color:#6C6C77"/>
				<stop  offset="0.82" style="stop-color:#686873"/>
				<stop  offset="0.86" style="stop-color:#5D5D69"/>
				<stop  offset="0.94" style="stop-color:#424151"/>
				<stop  offset="1" style="stop-color:#29283C"/>
			</radialGradient>
			
				<path style="fill:url(#SVGID_00000156566088945373787880000016669470060445637051_);stroke:#4D4D4D;stroke-width:3;stroke-miterlimit:10;" d="
				M222.1,131.9c-11.9,5.8-24,11.9-36.3,18.4c-33.9,17.9-62.5,34.8-84.7,48.6c0,0,0,0-0.1,0c-4.1,2.1-8,4.5-11.7,7.4l0,0
				c-14,10.7-25.2,26.5-32.8,46.9c-0.3-0.2-0.5-0.4-0.8-0.5l-21-12.1c-8.6-4.9-16.4-5.2-22.3-1.5c31.5-19.4,66.2-39.2,104.2-58.6
				C153.5,161.6,188.8,145.6,222.1,131.9L222.1,131.9z"/>
			
				<radialGradient id="SVGID_00000075160254296756503350000014027312752677366433_" cx="438.0587" cy="17070.2012" r="720.13" fx="-59.5714" fy="17590.7227" gradientTransform="matrix(0.9441 -0.3297 5.275050e-02 0.1511 -119.0487 -1610.3527)" gradientUnits="userSpaceOnUse">
				<stop  offset="0.31" style="stop-color:#FFFFFF"/>
				<stop  offset="0.5" style="stop-color:#C2C2C7"/>
				<stop  offset="0.62" style="stop-color:#A1A1A9"/>
				<stop  offset="0.7" style="stop-color:#9898A0"/>
				<stop  offset="0.82" style="stop-color:#808089"/>
				<stop  offset="0.97" style="stop-color:#595963"/>
				<stop  offset="1" style="stop-color:#52525C"/>
			</radialGradient>
			
				<path style="fill:url(#SVGID_00000075160254296756503350000014027312752677366433_);stroke:#666666;stroke-width:3;stroke-linecap:round;stroke-linejoin:round;" d="
				M1592.9,552.5c-2,7.9-5.1,18.4-9.8,30.4c-2.6,6.6-10.9,26.9-27.3,51.3c-24.3,36.1-53.6,62.5-67.8,74.6
				c-48,41.2-93.6,67.6-124.3,84.2c-89.8,48.3-167.2,74.1-200.6,84.5c-26.2,8.2-135.3,41.2-285.2,51.7c-43,3-79.1,3.5-105.1,3.3
				c35.9-1.1,64.2-23.9,78.8-63.8c0.3,0.2,0.6,0.4,0.9,0.5l21.9,12.7c6.8,3.9,13,5.1,18.3,3.8l0,0c22.9-3.2,54.1-8.2,90.7-15.6
				c111-22.4,192.4-51.5,216.2-60.2c59.2-21.7,131.8-51.9,202-91.3c31.6-17.8,54.5-32.7,76.7-49.6c38-29,64-56.2,76.7-70.2
				C1571.1,581.2,1583.7,565,1592.9,552.5L1592.9,552.5z"/>
			
				<linearGradient id="SVGID_00000003802698277701882410000016516279162219376787_" gradientUnits="userSpaceOnUse" x1="429.6902" y1="1277.572" x2="1175.7047" y2="1199.9725" gradientTransform="matrix(1 0 0 1 0 -1056)">
				<stop  offset="0" style="stop-color:#29283C"/>
				<stop  offset="0.31" style="stop-color:#323143"/>
				<stop  offset="0.83" style="stop-color:#4C4C58"/>
				<stop  offset="0.92" style="stop-color:#52525C"/>
			</linearGradient>
			
				<path style="fill:url(#SVGID_00000003802698277701882410000016516279162219376787_);stroke:#333333;stroke-width:3;stroke-miterlimit:10;" d="
				M1177,178.2c0,23.7-5.8,46.1-16,65.8c-23.8,45.9-71.8,77.3-127.1,77.3c-3.5,0-7-0.1-10.4-0.4c-0.7-0.1-1.4-0.2-2.2-0.3
				c-2.8-0.3-5.5-0.7-8.3-1c-1-0.1-1.9-0.2-2.9-0.3c-7-0.8-14.1-1.5-21.2-2.2c-170.4-16.6-324.1,1.5-424.9,43.1l0,0
				C475.8,312,423.4,253.4,426.6,194.9C433.3,73.3,678.2-2,973.8,26.7c23.9,2.3,47.5,5.3,70.5,8.8h0.1c8.4,1.3,16.8,2.6,25,4
				c0.1,0,0.1,0,0.2,0c0,0,0,0,0.1,0c43.6,11.2,79.1,42.4,96.2,83.2C1173,139.9,1177,158.6,1177,178.2L1177,178.2z"/>
			
				<radialGradient id="SVGID_00000177460314412560638460000015212726640753009087_" cx="783.4811" cy="3493.6375" r="804.19" fx="373.621" fy="2802.8374" gradientTransform="matrix(0.9996 -2.914287e-02 1.398858e-02 0.4798 3.971 -1307.4891)" gradientUnits="userSpaceOnUse">
				<stop  offset="3.000000e-02" style="stop-color:#FFFFFF"/>
				<stop  offset="0.72" style="stop-color:#FFFFFF"/>
				<stop  offset="0.76" style="stop-color:#F7F7F8"/>
				<stop  offset="0.82" style="stop-color:#E2E2E4"/>
				<stop  offset="0.88" style="stop-color:#C0C0C5"/>
				<stop  offset="0.93" style="stop-color:#A1A1A9"/>
				<stop  offset="0.94" style="stop-color:#9E9EA6"/>
				<stop  offset="0.96" style="stop-color:#74747E"/>
				<stop  offset="0.99" style="stop-color:#5B5B65"/>
				<stop  offset="1" style="stop-color:#52525C"/>
			</radialGradient>
			
				<path style="fill:url(#SVGID_00000177460314412560638460000015212726640753009087_);stroke:#666666;stroke-width:3;stroke-linecap:round;stroke-linejoin:round;" d="
				M1583.4,388.3c-2.4,7.4-6.1,17.8-11.9,29.7c-2.6,5.5-5.8,11.5-9.9,18.3c-0.3,0.5-0.6,1-1,1.6c-0.3,0.5-0.7,1.1-1,1.6
				c-3.7,5.8-8,12.1-13.2,18.8c-1,1.2-1.9,2.5-2.9,3.7c-0.8,1-1.5,1.9-2.3,2.9c-0.5,0.6-1.1,1.3-1.6,1.9c-0.6,0.7-1.2,1.5-1.9,2.2
				c-1.3,1.5-2.6,3-3.9,4.5c-0.2,0.3-0.5,0.5-0.7,0.8c-1.1,1.3-2.3,2.6-3.5,3.9c-4.2,4.6-8.8,9.3-13.8,14.2
				c-9.3,9.1-18.4,17.3-27.3,24.6c-25.5,21.2-48.3,35.3-62.5,43.6c-27.7,16.4-80.7,45.1-175.2,75.6c-88.8,28.7-159.1,41-218.5,51.3
				c-73,12.6-135.4,19.3-181.9,23.2c-0.4-0.2-0.8-0.4-1.2-0.6c-8.4-30.1-20.5-59.7-35.4-87.3c-29.2-54-69.1-99.8-112.7-124.8
				c-63.9-36.8-127.6-73.4-191.1-110c-104.5-60-208.3-119.8-311.6-179.2c-37-21.2-70.8-23.4-97.2-9.9c22.2-13.8,50.8-30.8,84.7-48.6
				c12.3-6.4,24.4-12.6,36.3-18.4l0,0C353.8,67.6,462.5,41,498.3,32.8C643.1-0.3,760,0.4,810.9,2.2c102,3.5,187.9,19.6,252.4,35.9
				c-6.2-1.3-12.6-2.2-19-2.6c-23-3.5-46.6-6.4-70.5-8.8C678.2-2,433.3,73.3,426.6,194.9c-3.2,58.5,49.2,117,137.4,165.2l0,0
				c95.2,52,232.1,92.1,385.5,107c40.3,3.9,79.7,5.9,117.7,6.1c122.5,0.6,230.2-17.4,307.2-49.2c24.8-10.2,46.4-21.9,64.3-34.8
				c35.4-25.6,56.2-56.1,58-90.4c0.2-2.9,0.2-5.8,0.1-8.6c0-0.6-0.1-1.2-0.1-1.8c-0.1-1.2-0.2-2.4-0.3-3.5c0-0.4-0.1-0.7-0.1-1.1
				v-0.1c0-0.3-0.1-0.7-0.1-1c-0.1-0.6-0.1-1.2-0.2-1.8v-0.1c-0.1-0.6-0.2-1.1-0.3-1.7c-0.1-0.7-0.2-1.4-0.3-2.1
				c-0.1-0.5-0.2-1-0.3-1.5c-0.1-0.7-0.3-1.5-0.4-2.2c-0.1-0.5-0.2-1-0.3-1.5s-0.2-1-0.4-1.6c0-0.1-0.1-0.3-0.1-0.5
				c-0.1-0.5-0.2-0.9-0.4-1.4c-0.2-0.8-0.4-1.5-0.6-2.3c-0.1-0.5-0.3-1-0.4-1.4c-0.2-0.7-0.4-1.4-0.7-2c-0.2-0.6-0.4-1.2-0.6-1.8
				c-0.2-0.6-0.4-1.2-0.7-1.8c-0.2-0.6-0.4-1.2-0.7-1.8c0-0.1-0.1-0.2-0.1-0.3c-0.2-0.6-0.4-1.2-0.7-1.8c-0.4-1.1-0.9-2.1-1.3-3.1
				c-0.3-0.7-0.6-1.4-0.9-2.1c-0.8-1.6-1.5-3.3-2.4-4.9c-0.3-0.7-0.7-1.4-1.1-2.1c-0.2-0.3-0.3-0.6-0.5-0.9
				c-0.2-0.3-0.3-0.6-0.5-0.9c-0.6-1.1-1.3-2.3-2-3.5c-0.4-0.8-0.9-1.5-1.3-2.2c-0.2-0.6-0.4-1.3-0.3-2.1c0-0.6,0-2.5,1.5-3.8
				c1.3-1.1,3.2-1.4,5-0.8c8.5,2.5,21.1,7.1,34.1,16.3c14.8,10.5,23.2,21.7,30,31.1c1.6,2.3,4.8,6.7,8.5,13
				c5.5,9.4,12.3,23.1,17.6,40.1c0,0.1,0.1,0.2,0.1,0.4C1582.3,352.9,1583.7,373.3,1583.4,388.3L1583.4,388.3z"/>
			
				<radialGradient id="SVGID_00000088849111380393709610000012090847387645614216_" cx="265.4683" cy="13779.875" r="658.99" fx="311.6683" fy="13122.5146" gradientTransform="matrix(0.9135 -0.4069 8.544818e-02 0.1918 -163.777 -1892.6227)" gradientUnits="userSpaceOnUse">
				<stop  offset="0" style="stop-color:#52525C"/>
				<stop  offset="0.1" style="stop-color:#62626C"/>
				<stop  offset="0.27" style="stop-color:#74747E"/>
				<stop  offset="0.44" style="stop-color:#80808A"/>
				<stop  offset="0.62" style="stop-color:#84848E"/>
				<stop  offset="0.76" style="stop-color:#81818B"/>
				<stop  offset="0.83" style="stop-color:#797984"/>
				<stop  offset="0.89" style="stop-color:#6C6C77"/>
				<stop  offset="0.9" style="stop-color:#686873"/>
				<stop  offset="0.93" style="stop-color:#5D5D69"/>
				<stop  offset="0.97" style="stop-color:#424151"/>
				<stop  offset="1" style="stop-color:#29283C"/>
			</radialGradient>
			
				<path style="fill:url(#SVGID_00000088849111380393709610000012090847387645614216_);stroke:#4D4D4D;stroke-width:3;stroke-miterlimit:10;" d="
				M1614.4,506.2c-2.1,10-7.3,27.5-21.5,46.3c-9.1,12.5-21.8,28.7-38,46.6c-12.7,14-38.7,41.2-76.7,70.2
				c-22.1,16.9-45,31.9-76.7,49.6c-70.1,39.4-142.8,69.6-202,91.3c-23.8,8.7-105.2,37.7-216.2,60.2c-36.7,7.4-67.8,12.3-90.7,15.6
				c9.8-2.3,16.1-12.9,15.9-29.2l-0.9-67.7c-0.2-13.2-4.7-27.6-11.7-39.8c-6.3-11.1-14.7-20.4-23.8-25.7L850.2,711
				c46.5-3.9,108.8-10.6,181.9-23.2c59.4-10.2,129.7-22.6,218.5-51.3c94.6-30.5,147.5-59.2,175.2-75.6c14.2-8.3,36.9-22.5,62.5-43.6
				c8.8-7.3,18-15.5,27.3-24.6c5-4.9,9.6-9.7,13.8-14.2c1.2-1.3,2.4-2.6,3.5-3.9c0.2-0.3,0.5-0.5,0.7-0.8c1.4-1.5,2.7-3,3.9-4.5
				c0.7-0.8,1.3-1.5,1.9-2.2c0.5-0.6,1.1-1.3,1.6-1.9c0.8-1,1.6-1.9,2.3-2.9c1-1.3,2-2.5,2.9-3.7c5.2-6.7,9.6-13,13.2-18.8
				c0.3-0.5,0.7-1.1,1-1.6s0.7-1,1-1.6c4.1-6.7,7.3-12.8,9.9-18.3c5.7-11.9,9.5-22.3,11.9-29.7c10.2,10.1,16.8,20.1,21.2,28.6
				c3,5.9,5,11.1,6.2,15c4,12.5,4.7,23.2,5.4,33.9C1616.9,477.1,1617.8,490.4,1614.4,506.2L1614.4,506.2z"/>
		</g>
		<g id="Frente">
			
				<radialGradient id="SVGID_00000052096865059874960710000010700316281881577645_" cx="-4626.1753" cy="-2044.738" r="427.31" fx="-4561.3652" fy="-1961.0481" gradientTransform="matrix(-0.8541 0.5201 -0.8998 -1.4776 -5388.9121 -134.9782)" gradientUnits="userSpaceOnUse">
				<stop  offset="0" style="stop-color:#FFFFFF"/>
				<stop  offset="0.31" style="stop-color:#EDEDEF"/>
				<stop  offset="0.73" style="stop-color:#CFCFD3"/>
				<stop  offset="0.78" style="stop-color:#CACACE"/>
				<stop  offset="0.84" style="stop-color:#BCBCC2"/>
				<stop  offset="0.91" style="stop-color:#A5A5AD"/>
				<stop  offset="0.98" style="stop-color:#858590"/>
				<stop  offset="1" style="stop-color:#797985"/>
			</radialGradient>
			
				<path style="fill:url(#SVGID_00000052096865059874960710000010700316281881577645_);stroke:#666666;stroke-width:3;stroke-linecap:round;stroke-linejoin:round;" d="
				M907.7,788.9c-0.2-13.2-4.7-27.6-11.7-39.8c-6.3-11.1-14.7-20.4-23.8-25.7l-21.9-12.6c-0.4-0.2-0.8-0.4-1.2-0.6
				c-8.4-30.1-20.5-59.7-35.4-87.3c-29.2-54-69.1-99.8-112.7-124.8c-63.9-36.8-127.6-73.4-191.1-110
				C405.5,328,301.7,268.2,198.4,208.8c-37-21.2-70.8-23.4-97.2-9.9c0,0,0,0-0.1,0c-4.1,2.6-8,5-11.7,7.4l0,0
				c-14,10.7-25.2,26.5-32.8,46.8c-0.3-0.2-0.5-0.4-0.8-0.5l-21-12.1c-8.6-4.9-16.4-5.2-22.3-1.5c0,0-0.1,0-0.1,0.1
				c-6.7,4.2-10.9,13.4-10.9,26.3V331c0,24.4,14.9,52.9,33.4,63.6l21,12.2c0.4,0.2,0.7,0.4,1.1,0.6c23.1,87.2,78.2,171.4,142.6,209
				c167.2,97.9,335.8,196.8,505.9,296.4c24.1,14.1,46.8,20.4,67.2,19.7c35.9-1.1,64.2-23.9,78.8-63.8c0.3,0.2,0.6,0.4,0.9,0.5
				l21.9,12.7c6.8,3.9,13,5.1,18.3,3.8l0,0c9.8-2.3,16.1-12.9,15.9-29.2L907.7,788.9L907.7,788.9z M752.8,764.2
				c-8.8,31-33.5,42.6-62.7,25.6L213.4,511.9c-36.2-21.1-65.7-79.2-65.8-129.7c-0.1-45.6,23.8-69.7,55-58.4c3.3,1.2,6.6,2.7,10,4.7
				l233.1,134.8l242.2,140c0.3,0.2,0.7,0.4,1,0.6c0.3,0.2,0.7,0.4,1,0.6l0,0c0.5,0.3,0.9,0.5,1.3,0.8c0.4,0.3,0.8,0.5,1.3,0.8
				c0.3,0.2,0.7,0.5,1,0.7c2,1.4,4,2.9,5.9,4.5c0.2,0.2,0.4,0.3,0.6,0.5c0.5,0.4,0.9,0.7,1.3,1.1c0.5,0.5,1.1,1,1.6,1.4
				c0.5,0.5,1.1,1,1.6,1.5s1.1,1,1.6,1.5c0.4,0.3,0.7,0.7,1.1,1c0.4,0.4,0.8,0.8,1.3,1.3s0.9,1,1.4,1.4c1,1,2,2.1,3,3.2
				c0.5,0.6,1,1.2,1.6,1.8c0.2,0.2,0.3,0.4,0.5,0.5c0.5,0.6,1,1.2,1.5,1.9c0.5,0.6,1.1,1.3,1.6,2c2,2.5,4,5.2,5.8,7.9
				c0.6,0.8,1.1,1.6,1.7,2.4c0.3,0.5,0.6,1,1,1.4c0.3,0.4,0.6,0.9,0.8,1.3c0.3,0.5,0.6,0.9,0.9,1.4c0.3,0.5,0.6,1,1,1.5
				c2.8,4.6,5.4,9.3,7.8,14.2c0.3,0.7,0.7,1.4,1,2c1.7,3.4,3.2,6.9,4.7,10.5c0.3,0.7,0.6,1.4,0.8,2.1c0.3,0.7,0.6,1.4,0.8,2.1
				c0.3,0.7,0.5,1.4,0.8,2.2c0.3,0.7,0.5,1.4,0.8,2.2c0.8,2.4,1.6,4.7,2.4,7.1c0.2,0.5,0.3,1.1,0.5,1.6c0.5,1.5,0.9,2.9,1.3,4.4
				c0.2,0.7,0.4,1.5,0.6,2.2c0.2,0.7,0.4,1.5,0.6,2.2c0.2,0.9,0.5,1.8,0.7,2.7c0.3,1.4,0.6,2.8,0.9,4.1c0.2,0.8,0.3,1.6,0.5,2.5
				c0.7,3.5,1.2,7.1,1.7,10.6c0,0.2,0,0.4,0.1,0.6c0.1,0.5,0.1,0.9,0.2,1.4c0.1,0.6,0.1,1.2,0.2,1.8c0,0.5,0.1,1.1,0.1,1.7
				c0.1,1.1,0.2,2.2,0.3,3.4c0.1,0.9,0.1,1.7,0.1,2.6c0,0.8,0.1,1.6,0.1,2.3s0,1.5,0,2.2C756.3,746.2,755.1,755.9,752.8,764.2
				L752.8,764.2z"/>
			<g id="Lente">
				<g>
					
						<linearGradient id="SVGID_00000183946548024317364800000017493277450334178977_" gradientUnits="userSpaceOnUse" x1="171.3625" y1="1451.2299" x2="786.5424" y2="1831.2898" gradientTransform="matrix(1 0 0 1 0 -1056)">
						<stop  offset="0" style="stop-color:#363548"/>
						<stop  offset="0.12" style="stop-color:#555464"/>
						<stop  offset="0.23" style="stop-color:#6F6F7C"/>
						<stop  offset="0.29" style="stop-color:#797985"/>
						<stop  offset="0.37" style="stop-color:#6E6E7B"/>
						<stop  offset="0.87" style="stop-color:#363548"/>
					</linearGradient>
					
						<path style="fill:url(#SVGID_00000183946548024317364800000017493277450334178977_);stroke:#000000;stroke-width:3;stroke-miterlimit:10;" d="
						M752.8,764.2c-8.8,31-33.5,42.6-62.7,25.6L213.4,511.9c-36.2-21.1-65.7-79.2-65.8-129.7c-0.1-45.6,23.8-69.7,55-58.4
						c-2.3,8-3.5,17.2-3.5,27.6c0.1,50.5,29.5,108.6,65.8,129.7L741.6,759C745.4,761.2,749.1,762.9,752.8,764.2z"/>
					
						<linearGradient id="SVGID_00000116956816765751594430000005461232146270214286_" gradientUnits="userSpaceOnUse" x1="728.6243" y1="1175.2247" x2="372.8143" y2="1777.4349" gradientTransform="matrix(1 0 0 1 0 -1056)">
						<stop  offset="0" style="stop-color:#201F34"/>
						<stop  offset="0.11" style="stop-color:#252439"/>
						<stop  offset="0.24" style="stop-color:#353447"/>
						<stop  offset="0.39" style="stop-color:#504F5F"/>
						<stop  offset="0.56" style="stop-color:#747481"/>
						<stop  offset="0.57" style="stop-color:#797985"/>
						<stop  offset="0.63" style="stop-color:#555564"/>
						<stop  offset="0.68" style="stop-color:#393949"/>
						<stop  offset="0.74" style="stop-color:#242435"/>
						<stop  offset="0.79" style="stop-color:#181829"/>
						<stop  offset="0.84" style="stop-color:#141426"/>
					</linearGradient>
					
						<path style="fill:url(#SVGID_00000116956816765751594430000005461232146270214286_);stroke:#000000;stroke-width:3;stroke-miterlimit:10;" d="
						M756.2,735.4c0.1,10.9-1.1,20.5-3.5,28.8c-3.6-1.2-7.4-3-11.2-5.2L264.9,481.1c-36.2-21.1-65.7-79.2-65.8-129.7
						c0-10.4,1.2-19.6,3.5-27.6c3.3,1.2,6.6,2.7,10,4.7l233.1,134.8l242.2,140c0.3,0.2,0.7,0.4,1,0.6c0.3,0.2,0.7,0.4,1,0.6l0,0
						c0.5,0.3,0.9,0.6,1.3,0.8c0.4,0.3,0.8,0.5,1.3,0.8c0.3,0.2,0.7,0.5,1,0.7c2,1.4,4,2.9,5.9,4.5c0.2,0.2,0.4,0.3,0.6,0.5
						c0.5,0.4,0.9,0.7,1.3,1.1c0.5,0.5,1.1,1,1.6,1.4c0.5,0.5,1.1,1,1.6,1.5s1.1,1,1.6,1.5c0.4,0.3,0.7,0.7,1.1,1
						c0.4,0.4,0.8,0.8,1.3,1.3s0.9,1,1.4,1.4c1,1,2,2.1,3,3.2c0.5,0.6,1,1.2,1.6,1.8c0.2,0.2,0.3,0.4,0.5,0.5c0.5,0.6,1,1.2,1.5,1.9
						c0.5,0.6,1.1,1.3,1.6,2c2,2.5,4,5.2,5.8,7.9c0.6,0.8,1.1,1.6,1.7,2.4c0.3,0.5,0.6,1,1,1.4c0.3,0.4,0.6,0.9,0.8,1.3
						c0.3,0.5,0.6,0.9,0.9,1.4c0.3,0.5,0.6,1,1,1.5c2.8,4.6,5.4,9.3,7.8,14.2c0.3,0.7,0.7,1.4,1,2c1.7,3.4,3.2,6.9,4.7,10.5
						c0.3,0.7,0.6,1.4,0.8,2.1c0.3,0.7,0.6,1.4,0.8,2.1c0.3,0.7,0.5,1.4,0.8,2.2c0.3,0.7,0.5,1.4,0.8,2.2c0.8,2.4,1.6,4.7,2.4,7.1
						c0.2,0.5,0.3,1.1,0.5,1.6c0.5,1.5,0.9,2.9,1.3,4.4c0.2,0.7,0.4,1.5,0.6,2.2c0.2,0.7,0.4,1.5,0.6,2.2c0.2,0.9,0.5,1.8,0.7,2.7
						c0.3,1.4,0.6,2.8,0.9,4.1c0.2,0.8,0.3,1.6,0.5,2.5c0.7,3.5,1.2,7.1,1.7,10.6c0,0.2,0,0.4,0.1,0.6c0.1,0.5,0.1,0.9,0.2,1.4
						c0.1,0.6,0.1,1.2,0.2,1.8c0,0.5,0.1,1.1,0.1,1.7c0.1,1.1,0.2,2.2,0.3,3.4c0.1,0.9,0.1,1.7,0.1,2.6c0,0.8,0.1,1.6,0.1,2.3
						C756.2,733.9,756.2,734.7,756.2,735.4L756.2,735.4z"/>
				</g>
				
					<linearGradient id="BrilloLente_00000005963714717027434670000001184649608274056635_" gradientUnits="userSpaceOnUse" x1="725.0216" y1="300.1806" x2="132.6989" y2="497.8681" gradientTransform="matrix(1 0 0 1 0 168)">
					<stop  offset="0" style="stop-color:#BCBCC2;stop-opacity:0"/>
					<stop  offset="9.000000e-02" style="stop-color:#BCBCC2;stop-opacity:1.000000e-02"/>
					<stop  offset="0.14" style="stop-color:#BCBCC2;stop-opacity:5.000000e-02"/>
					<stop  offset="0.17" style="stop-color:#BCBCC2;stop-opacity:0.12"/>
					<stop  offset="0.2" style="stop-color:#BCBCC2;stop-opacity:0.21"/>
					<stop  offset="0.22" style="stop-color:#BCBCC2;stop-opacity:0.33"/>
					<stop  offset="0.25" style="stop-color:#BCBCC2;stop-opacity:0.48"/>
					<stop  offset="0.27" style="stop-color:#BCBCC2;stop-opacity:0.66"/>
					<stop  offset="0.29" style="stop-color:#BCBCC2;stop-opacity:0.86"/>
					<stop  offset="0.3" style="stop-color:#BCBCC2"/>
					<stop  offset="0.32" style="stop-color:#B5B5BB;stop-opacity:0.96"/>
					<stop  offset="0.35" style="stop-color:#A2A2AB;stop-opacity:0.84"/>
					<stop  offset="0.39" style="stop-color:#84848F;stop-opacity:0.65"/>
					<stop  offset="0.43" style="stop-color:#5B5A69;stop-opacity:0.38"/>
					<stop  offset="0.48" style="stop-color:#262539;stop-opacity:4.000000e-02"/>
					<stop  offset="0.49" style="stop-color:#201F34;stop-opacity:0"/>
					<stop  offset="0.54" style="stop-color:#555464;stop-opacity:0.4"/>
					<stop  offset="0.59" style="stop-color:#807F8C;stop-opacity:0.72"/>
					<stop  offset="0.63" style="stop-color:#9B9AA4;stop-opacity:0.92"/>
					<stop  offset="0.65" style="stop-color:#A6A5AE"/>
					<stop  offset="0.65" style="stop-color:#A3A2AB;stop-opacity:0.98"/>
					<stop  offset="0.78" style="stop-color:#666572;stop-opacity:0.56"/>
					<stop  offset="0.88" style="stop-color:#393949;stop-opacity:0.26"/>
					<stop  offset="0.96" style="stop-color:#1E1E2F;stop-opacity:7.000000e-02"/>
					<stop  offset="1" style="stop-color:#141426;stop-opacity:0"/>
				</linearGradient>
				<path id="BrilloLente" style="fill:url(#BrilloLente_00000005963714717027434670000001184649608274056635_);" d="M756.3,732.8
					c0-0.7-0.1-1.5-0.1-2.3c0-0.9,0-1.7-0.1-2.6c-0.1-1.2-0.2-2.3-0.3-3.4c0-0.6-0.1-1.2-0.1-1.7c-0.1-0.6-0.1-1.2-0.2-1.8
					c-0.1-0.5-0.1-0.9-0.2-1.4c-0.1-0.2-0.1-0.4-0.1-0.6c-0.5-3.5-1-7.1-1.7-10.6c-0.2-0.9-0.3-1.7-0.5-2.5
					c-0.3-1.3-0.6-2.7-0.9-4.1c-0.2-0.9-0.5-1.8-0.7-2.7c-0.2-0.7-0.4-1.5-0.6-2.2c-0.2-0.7-0.4-1.5-0.6-2.2
					c-0.4-1.5-0.8-2.9-1.3-4.4c-0.2-0.5-0.3-1.1-0.5-1.6c-0.8-2.4-1.6-4.7-2.4-7.1c-0.3-0.8-0.5-1.5-0.8-2.2
					c-0.3-0.8-0.5-1.5-0.8-2.2c-0.2-0.7-0.5-1.4-0.8-2.1c-0.2-0.7-0.5-1.4-0.8-2.1c-1.5-3.6-3-7.1-4.7-10.5c-0.3-0.6-0.7-1.3-1-2
					c-2.4-4.9-5-9.6-7.8-14.2c-0.4-0.5-0.7-1-1-1.5s-0.6-0.9-0.9-1.4c-0.2-0.4-0.5-0.9-0.8-1.3c-0.4-0.4-0.7-0.9-1-1.4
					c-0.6-0.8-1.1-1.6-1.7-2.4c-1.8-2.7-3.8-5.4-5.8-7.9c-0.5-0.7-1.1-1.4-1.6-2c-0.5-0.7-1-1.3-1.5-1.9c-0.2-0.1-0.3-0.3-0.5-0.5
					c-0.6-0.6-1.1-1.2-1.6-1.8c-1-1.1-2-2.2-3-3.2c-0.5-0.4-0.9-0.9-1.4-1.4s-0.9-0.9-1.3-1.3c-0.4-0.3-0.7-0.7-1.1-1
					c-0.5-0.5-1.1-1-1.6-1.5s-1.1-1-1.6-1.5c-0.5-0.4-1.1-0.9-1.6-1.4c-0.4-0.4-0.8-0.7-1.3-1.1c-0.2-0.2-0.4-0.3-0.6-0.5
					c-1.9-1.6-3.9-3.1-5.9-4.5c-0.3-0.2-0.7-0.5-1-0.7c-0.5-0.3-0.9-0.5-1.3-0.8c-0.4-0.2-0.8-0.5-1.3-0.8c-0.3-0.2-0.7-0.4-1-0.6
					c-0.3-0.2-0.7-0.4-1-0.6l-242.2-140L212.6,328.5c-3.4-2-6.7-3.5-10-4.7c-31.2-11.3-55.1,12.8-55,58.4
					c0.1,50.5,29.6,108.6,65.8,129.7l476.7,277.9c29.2,17,53.9,5.4,62.7-25.6h-0.1c2.4-8.3,3.6-17.9,3.5-28.8
					C756.2,734.7,756.2,733.9,756.3,732.8z"/>
			</g>
		</g>
	</g>
	<g id="BotonLogIn">
		
			<linearGradient id="Boton_00000162316317730355113570000010868710364012460448_" gradientUnits="userSpaceOnUse" x1="1012.2991" y1="1800.8801" x2="1027.2091" y2="1892.9702" gradientTransform="matrix(1 0 0 1 0 -1056)">
			<stop  offset="0.1" style="stop-color:#52525C"/>
			<stop  offset="0.29" style="stop-color:#6D6F7A"/>
			<stop  offset="0.52" style="stop-color:#8C8E9B"/>
			<stop  offset="0.65" style="stop-color:#989BA8"/>
		</linearGradient>
		
			<path id="Boton" style="fill:url(#Boton_00000162316317730355113570000010868710364012460448_);stroke:#1A1A1A;stroke-miterlimit:10;" d="
			M1064.3,824.8l-87.4,19c-15.1,3.3-27.3-7.5-27.3-23.9v-16.6c0-16.5,12.2-32.5,27.3-35.8l87.4-19c15.1-3.3,27.3,7.5,27.3,23.9V789
			C1091.6,805.5,1079.4,821.6,1064.3,824.8z"/>
		<g id="MarcoAzul">
			<path class="st13" d="M1068.7,753.1v5c7.8,0,13.3,6.3,13.3,15.4v16.6c0,11.3-8.6,22.7-18.8,24.9l-87.4,19
				c-1.1,0.2-2.3,0.4-3.4,0.4c-7.8,0-13.3-6.3-13.3-15.4v-16.6c0-11.3,8.6-22.7,18.8-24.9l87.4-19c1.1-0.2,2.3-0.4,3.4-0.4V753.1
				 M1068.7,753.1c-1.4,0-2.9,0.2-4.4,0.5l-87.4,19c-12.5,2.7-22.7,16.1-22.7,29.8V819c0,12,7.9,20.4,18.3,20.4
				c1.4,0,2.9-0.2,4.4-0.5l87.4-19c12.5-2.7,22.7-16.1,22.7-29.8v-16.6C1087,761.4,1079.2,753.1,1068.7,753.1L1068.7,753.1
				L1068.7,753.1z"/>
			
				<linearGradient id="SVGID_00000080927345393011038760000009872944298905170848_" gradientUnits="userSpaceOnUse" x1="954.1999" y1="1852.25" x2="1086.9999" y2="1852.25" gradientTransform="matrix(1 0 0 1 0 -1056)">
				<stop  offset="0.12" style="stop-color:#2FBFF0"/>
				<stop  offset="0.23" style="stop-color:#30A5F1"/>
				<stop  offset="0.38" style="stop-color:#3380F4"/>
				<stop  offset="0.46" style="stop-color:#2B6DDA"/>
				<stop  offset="0.55" style="stop-color:#265DC5"/>
				<stop  offset="0.61" style="stop-color:#2458BE"/>
				<stop  offset="0.66" style="stop-color:#2567C5"/>
				<stop  offset="0.75" style="stop-color:#2A91D9"/>
				<stop  offset="0.85" style="stop-color:#2FBFF0"/>
				<stop  offset="0.9" style="stop-color:#2FBCF0"/>
				<stop  offset="0.94" style="stop-color:#2FB4F0"/>
				<stop  offset="0.96" style="stop-color:#30A6F0"/>
				<stop  offset="0.99" style="stop-color:#3292F0"/>
				<stop  offset="1" style="stop-color:#3385F1"/>
			</linearGradient>
			<path style="fill:url(#SVGID_00000080927345393011038760000009872944298905170848_);" d="M1068.7,753.1v3l0,0
				c9,0,15.3,7.2,15.3,17.4v16.6c0,12.4-9.1,24.4-20.3,26.9l-87.4,19c-1.3,0.3-2.6,0.4-3.8,0.4c-9,0-15.3-7.2-15.3-17.4v-16.6
				c0-12.4,9.1-24.4,20.3-26.9l87.4-19c1.3-0.3,2.6-0.4,3.8-0.4V753.1 M1068.7,753.1c-1.4,0-2.9,0.2-4.4,0.5l-87.4,19
				c-12.5,2.7-22.7,16.1-22.7,29.8V819c0,12,7.9,20.4,18.3,20.4c1.4,0,2.9-0.2,4.4-0.5l87.4-19c12.5-2.7,22.7-16.1,22.7-29.8v-16.6
				C1087,761.4,1079.2,753.1,1068.7,753.1L1068.7,753.1L1068.7,753.1z"/>
		</g>
	</g>
	<g id="LetrasLogIn">
		<g>
			<path class="st15" d="M1108.9,800.3l0.1-51.7l11.1-3.1l-0.3,43.2l22.7-6.4l-0.2,8.6L1108.9,800.3z"/>
			<path class="st15" d="M1191.2,745.1c-0.7-4.3-2.1-7.7-4.4-10.2s-5.1-4.1-8.6-4.7c-3.4-0.6-7.3-0.3-11.5,1
				c-4.5,1.4-8.4,3.4-11.7,6.2c-3.3,2.8-6,6-8,9.7s-3.4,7.5-4.1,11.6s-0.6,8.1,0.1,12.1c0.8,4.2,2.3,7.5,4.6,9.9
				c2.3,2.4,5.2,3.9,8.6,4.4c3.4,0.6,7.1,0.2,11.2-1.1c4.3-1.3,8.1-3.3,11.3-6c3.2-2.7,5.8-5.8,7.9-9.3s3.5-7.3,4.3-11.4
				C1191.8,753.2,1191.8,749.2,1191.2,745.1z M1180.5,756.4c-0.3,2.7-1,5.4-2.2,7.9s-2.7,4.7-4.6,6.6c-2,1.9-4.4,3.3-7.2,4.2l0,0
				c-2.2,0.7-4.2,0.8-5.9,0.5c-1.7-0.3-3.2-1.2-4.3-2.6c-1.2-1.4-1.9-3.3-2.4-5.7c-0.4-2.5-0.5-5.1-0.2-7.9c0.3-2.7,1-5.4,2.1-8
				s2.7-4.8,4.7-6.8s4.5-3.4,7.4-4.3c2.2-0.7,4.2-0.8,5.9-0.5s3.2,1.3,4.3,2.7c1.1,1.4,1.9,3.3,2.3,5.8
				C1180.8,751,1180.9,753.6,1180.5,756.4z"/>
			<path class="st15" d="M1240.9,748.1c-1.1,3-2.7,5.7-4.6,8.2s-4.2,4.6-6.9,6.4c-2.7,1.8-5.5,3.2-8.7,4.3
				c-4.3,1.4-8.1,1.9-11.4,1.4c-3.4-0.5-6.2-2-8.4-4.3c-2.2-2.3-3.7-5.5-4.4-9.6c-0.7-4-0.7-8-0.1-12.1c0.7-4.1,2.1-8,4.1-11.8
				c2-3.7,4.7-7,7.9-9.9c3.3-2.9,7.1-5,11.5-6.5c2.9-1,5.7-1.5,8.3-1.5c2.6,0,4.9,0.4,7,1.3c2,0.9,3.7,2.2,5,4s2.1,3.9,2.4,6.5
				l-10.8,3.6c-0.3-1.2-0.8-2.1-1.5-2.9c-0.6-0.8-1.4-1.4-2.3-1.8c-0.9-0.4-1.9-0.6-3.1-0.6c-1.1,0-2.4,0.3-3.8,0.7
				c-2.8,0.9-5.2,2.4-7.2,4.4s-3.6,4.3-4.7,6.8c-1.2,2.6-1.9,5.2-2.2,8c-0.3,2.8-0.3,5.4,0.2,8c0.6,3.6,2.1,6,4.3,7.3
				c2.2,1.3,5,1.3,8.4,0.2c2.6-0.9,4.8-2.1,6.7-3.7c1.9-1.6,3.3-3.4,4.4-5.4c0.9-1.8,1.5-3.8,1.6-5.8l-11.2,3.7l0.1-8l21.6-7.2
				l-0.1,6.8C1242.7,742,1242.1,745.1,1240.9,748.1L1240.9,748.1z"/>
			<path class="st15" d="M1273.6,694.6l1.8,51.5l-10.3,4.2l-2.1-51.4L1273.6,694.6z"/>
			<path class="st15" d="M1328.7,722l-11.3,5.3l-16.1-16.3c-1.2-1.2-2.3-2.4-3.3-3.7c-1-1.2-2.1-2.6-3.3-4.2c-0.8-1-1.6-2.2-2.6-3.5
				c0.2,1.5,0.4,3,0.6,4.4c0.3,2.2,0.6,4.2,0.8,6c0.2,1.8,0.4,3.2,0.5,4.4l2,23l-10.4,4.9l-4.7-50.8l11.6-5.5l18.1,18.7
				c0.9,0.9,1.8,1.9,2.7,3c0.9,1.1,1.9,2.5,2.9,3.9c0.6,0.8,1.1,1.7,1.7,2.7c-0.1-0.9-0.3-1.8-0.4-2.8c-0.3-2.1-0.5-4.1-0.8-6
				c-0.2-1.9-0.4-3.6-0.5-5l-1.8-25l10.7-5.1L1328.7,722z"/>
		</g>
		<g>
			<path class="st16" d="M1108.9,800.3l0.1-51.7l11.1-3.1l-0.3,43.2l22.7-6.4l-0.2,8.6L1108.9,800.3z"/>
			<path class="st16" d="M1191.2,745.1c-0.7-4.3-2.1-7.7-4.4-10.2s-5.1-4.1-8.6-4.7c-3.4-0.6-7.3-0.3-11.5,1
				c-4.5,1.4-8.4,3.4-11.7,6.2c-3.3,2.8-6,6-8,9.7s-3.4,7.5-4.1,11.6s-0.6,8.1,0.1,12.1c0.8,4.2,2.3,7.5,4.6,9.9
				c2.3,2.4,5.2,3.9,8.6,4.4c3.4,0.6,7.1,0.2,11.2-1.1c4.3-1.3,8.1-3.3,11.3-6c3.2-2.7,5.8-5.8,7.9-9.3s3.5-7.3,4.3-11.4
				C1191.8,753.2,1191.8,749.2,1191.2,745.1z M1180.5,756.4c-0.3,2.7-1,5.4-2.2,7.9s-2.7,4.7-4.6,6.6c-2,1.9-4.4,3.3-7.2,4.2l0,0
				c-2.2,0.7-4.2,0.8-5.9,0.5c-1.7-0.3-3.2-1.2-4.3-2.6c-1.2-1.4-1.9-3.3-2.4-5.7c-0.4-2.5-0.5-5.1-0.2-7.9c0.3-2.7,1-5.4,2.1-8
				s2.7-4.8,4.7-6.8s4.5-3.4,7.4-4.3c2.2-0.7,4.2-0.8,5.9-0.5s3.2,1.3,4.3,2.7c1.1,1.4,1.9,3.3,2.3,5.8
				C1180.8,751,1180.9,753.6,1180.5,756.4z"/>
			<path class="st16" d="M1240.9,748.1c-1.1,3-2.7,5.7-4.6,8.2s-4.2,4.6-6.9,6.4c-2.7,1.8-5.5,3.2-8.7,4.3
				c-4.3,1.4-8.1,1.9-11.4,1.4c-3.4-0.5-6.2-2-8.4-4.3c-2.2-2.3-3.7-5.5-4.4-9.6c-0.7-4-0.7-8-0.1-12.1c0.7-4.1,2.1-8,4.1-11.8
				c2-3.7,4.7-7,7.9-9.9c3.3-2.9,7.1-5,11.5-6.5c2.9-1,5.7-1.5,8.3-1.5c2.6,0,4.9,0.4,7,1.3c2,0.9,3.7,2.2,5,4s2.1,3.9,2.4,6.5
				l-10.8,3.6c-0.3-1.2-0.8-2.1-1.5-2.9c-0.6-0.8-1.4-1.4-2.3-1.8c-0.9-0.4-1.9-0.6-3.1-0.6c-1.1,0-2.4,0.3-3.8,0.7
				c-2.8,0.9-5.2,2.4-7.2,4.4s-3.6,4.3-4.7,6.8c-1.2,2.6-1.9,5.2-2.2,8c-0.3,2.8-0.3,5.4,0.2,8c0.6,3.6,2.1,6,4.3,7.3
				c2.2,1.3,5,1.3,8.4,0.2c2.6-0.9,4.8-2.1,6.7-3.7c1.9-1.6,3.3-3.4,4.4-5.4c0.9-1.8,1.5-3.8,1.6-5.8l-11.2,3.7l0.1-8l21.6-7.2
				l-0.1,6.8C1242.7,742,1242.1,745.1,1240.9,748.1L1240.9,748.1z"/>
			<path class="st16" d="M1273.6,694.6l1.8,51.5l-10.3,4.2l-2.1-51.4L1273.6,694.6z"/>
			<path class="st16" d="M1328.7,722l-11.3,5.3l-16.1-16.3c-1.2-1.2-2.3-2.4-3.3-3.7c-1-1.2-2.1-2.6-3.3-4.2c-0.8-1-1.6-2.2-2.6-3.5
				c0.2,1.5,0.4,3,0.6,4.4c0.3,2.2,0.6,4.2,0.8,6c0.2,1.8,0.4,3.2,0.5,4.4l2,23l-10.4,4.9l-4.7-50.8l11.6-5.5l18.1,18.7
				c0.9,0.9,1.8,1.9,2.7,3c0.9,1.1,1.9,2.5,2.9,3.9c0.6,0.8,1.1,1.7,1.7,2.7c-0.1-0.9-0.3-1.8-0.4-2.8c-0.3-2.1-0.5-4.1-0.8-6
				c-0.2-1.9-0.4-3.6-0.5-5l-1.8-25l10.7-5.1L1328.7,722z"/>
		</g>
		<g>
			<path d="M1108.9,800.3l0.1-51.7l11.1-3.1l-0.3,43.2l22.7-6.4l-0.2,8.6L1108.9,800.3z"/>
			<path d="M1167.5,783.9c-4.1,1.3-7.8,1.6-11.2,1.1c-3.4-0.6-6.2-2-8.6-4.4c-2.3-2.4-3.8-5.7-4.6-9.9c-0.7-4-0.8-8-0.1-12.1
				c0.7-4.1,2-8,4.1-11.6c2-3.7,4.7-6.9,8-9.7s7.2-4.9,11.7-6.2c4.2-1.3,8.1-1.6,11.5-1c3.4,0.7,6.3,2.2,8.6,4.7
				c2.3,2.5,3.7,5.9,4.4,10.2c0.6,4,0.5,8.1-0.2,12.1c-0.8,4-2.2,7.8-4.3,11.4c-2.1,3.5-4.7,6.6-7.9,9.3
				C1175.6,780.6,1171.9,782.6,1167.5,783.9z M1166.5,775.1c2.9-0.9,5.3-2.3,7.2-4.2s3.5-4.1,4.6-6.6s1.9-5.2,2.2-7.9
				c0.3-2.8,0.3-5.4-0.1-7.9s-1.2-4.4-2.3-5.8s-2.6-2.3-4.3-2.7s-3.7-0.2-5.9,0.5c-2.9,0.9-5.4,2.3-7.4,4.3s-3.5,4.2-4.7,6.8
				s-1.8,5.2-2.1,8s-0.2,5.3,0.2,7.9c0.4,2.4,1.2,4.3,2.4,5.7c1.1,1.4,2.6,2.2,4.3,2.6C1162.3,775.9,1164.3,775.7,1166.5,775.1
				L1166.5,775.1z"/>
			<path d="M1240.9,748.1c-1.1,3-2.7,5.7-4.6,8.2s-4.2,4.6-6.9,6.4c-2.7,1.8-5.5,3.2-8.7,4.3c-4.3,1.4-8.1,1.9-11.4,1.4
				c-3.4-0.5-6.2-2-8.4-4.3c-2.2-2.3-3.7-5.5-4.4-9.6c-0.7-4-0.7-8-0.1-12.1c0.7-4.1,2.1-8,4.1-11.8c2-3.7,4.7-7,7.9-9.9
				c3.3-2.9,7.1-5,11.5-6.5c2.9-1,5.7-1.5,8.3-1.5c2.6,0,4.9,0.4,7,1.3c2,0.9,3.7,2.2,5,4s2.1,3.9,2.4,6.5l-10.8,3.6
				c-0.3-1.2-0.8-2.1-1.5-2.9c-0.6-0.8-1.4-1.4-2.3-1.8c-0.9-0.4-1.9-0.6-3.1-0.6c-1.1,0-2.4,0.3-3.8,0.7c-2.8,0.9-5.2,2.4-7.2,4.4
				s-3.6,4.3-4.7,6.8c-1.2,2.6-1.9,5.2-2.2,8c-0.3,2.8-0.3,5.4,0.2,8c0.6,3.6,2.1,6,4.3,7.3c2.2,1.3,5,1.3,8.4,0.2
				c2.6-0.9,4.8-2.1,6.7-3.7c1.9-1.6,3.3-3.4,4.4-5.4c0.9-1.8,1.5-3.8,1.6-5.8l-11.2,3.7l0.1-8l21.6-7.2l-0.1,6.8
				C1242.7,742,1242.1,745.1,1240.9,748.1L1240.9,748.1z"/>
			<path d="M1273.6,694.6l1.8,51.5l-10.3,4.2l-2.1-51.4L1273.6,694.6z"/>
			<path d="M1285.7,742.2l-4.7-50.8l11.6-5.5l18.1,18.7c0.9,0.9,1.8,1.9,2.7,3s1.9,2.5,2.9,3.9c1,1.5,2.1,3.2,3.1,5.2l-0.9,0.4
				c-0.3-1.8-0.6-3.7-0.9-5.8s-0.5-4-0.8-6c-0.2-1.9-0.4-3.6-0.5-5l-1.8-25l10.7-5.1l3.3,51.5l-11.3,5.3l-16.1-16.3
				c-1.2-1.2-2.3-2.4-3.3-3.7s-2.1-2.6-3.3-4.2c-1.2-1.6-2.6-3.5-4.2-5.7l1.2-0.6c0.4,2.5,0.7,4.9,1,7.1s0.6,4.2,0.8,6
				c0.2,1.8,0.4,3.2,0.5,4.4l2,23L1285.7,742.2L1285.7,742.2z"/>
		</g>
	</g>
</g>
</svg>