<?xml version="1.0" encoding="utf-8"?>
<!-- Generator: Adobe Illustrator 27.9.0, SVG Export Plug-In . SVG Version: 6.00 Build 0)  -->
<svg version="1.1" id="Capa_1" xmlns="http://www.w3.org/2000/svg" xmlns:xlink="http://www.w3.org/1999/xlink" x="0px" y="0px"
	 viewBox="0 0 1535.1 272" style="enable-background:new 0 0 1535.1 272;" xml:space="preserve">
<style type="text/css">
	.st0{fill:#FFFFFF;}
	.st1{fill:#00ACE5;}
	.st2{fill:url(#SVGID_1_);}
	.st3{fill:url(#SVGID_00000168804210656617167700000011690370815490596764_);}
</style>
<path class="st0" d="M636.9,123.5v-113h30.4v113H636.9z M761.2,123.5L722,56.4v67.1h-29.5v-113h34.4l35.2,61.4V10.5h29.6v113H761.2
	L761.2,123.5z M870.2,38.7v84.8h-30V38.7h-32.5V10.5h95.2v28.2H870.2L870.2,38.7z M918.8,123.5v-113h72.4v25.8h-42.7v17.8h38.9V79
	h-38.9v18.2h43v26.3H918.8z M1012.7,123.5v-113h47.6c22.9,0,37.9,15.3,37.9,36.3c0,15.3-8.4,26.6-20.9,31.6l21.4,45.1h-32.3
	l-17.8-41h-6.2v41H1012.7L1012.7,123.5z M1054.8,59.6c8.9,0,13.6-5.1,13.6-12.3s-4.6-12.1-13.6-12.1h-12.4v24.4
	C1042.3,59.6,1054.8,59.6,1054.8,59.6z M1186.4,123.5l-39.2-67.1v67.1h-29.5v-113h34.4l35.2,61.4V10.5h29.6v113L1186.4,123.5
	L1186.4,123.5z M1242.2,123.5v-113h72.4v25.8h-42.7v17.8h38.9V79h-38.9v18.2h43v26.3H1242.2z M1394.3,38.7v84.8h-30V38.7h-32.5V10.5
	h95.2v28.2L1394.3,38.7L1394.3,38.7z M658.6,210.5c0,18.8,13.4,29.6,27.1,29.6c15.6,0,22.3-9.7,24.7-17.7l28,8.1
	c-4.5,16.7-19.4,38.7-52.9,38.7c-31.4,0-57.8-22.8-57.8-58.6s26.9-59.1,57.5-59.1c32.5,0,47.3,19.8,52,36.7l-27.6,9.4
	c-2.1-7.5-8.1-17.4-24.1-17.4C672.8,180.2,658.6,190,658.6,210.5L658.6,210.5z M806,151.5c31.1,0,58,22.3,58,59s-26.9,59-58,59
	s-58-22.3-58-59S774.9,151.5,806,151.5L806,151.5z M806,240.6c13.2,0,27.2-9.4,27.2-30.3s-14-30-27.2-30s-27.2,9.4-27.2,30
	S792.8,240.6,806,240.6z M982.2,266.9v-70l-24.7,70h-23.6l-24.5-69.2v69.2H881v-113h39.7l25.3,68.9l24.2-68.9h40.8v113H982.2
	L982.2,266.9z M1065.9,228.4v38.6h-29.6v-113h45.1c23.6,0,39.7,15.5,39.7,37.3s-16.1,37.1-39.7,37.1L1065.9,228.4L1065.9,228.4z
	 M1077.5,203.7c7.8,0,13.6-4.6,13.6-12.3s-5.7-12.4-13.6-12.4H1066v24.7H1077.5z M1136.5,225.5v-71.6h29.8v70.6
	c0,11.2,5.7,17.1,15.6,17.1s15.5-5.9,15.5-17.1v-70.6h29.8v71.6c0,28.4-19,44-45.3,44S1136.5,253.9,1136.5,225.5L1136.5,225.5z
	 M1305.6,182.2v84.8h-30v-84.8h-32.5v-28.2h95.2v28.2H1305.6L1305.6,182.2z M1354.2,266.9v-113h72.4v25.8h-42.7v17.9h38.9v24.9
	h-38.9v18.2h43v26.3H1354.2z M1449,266.9v-113h47.7c22.9,0,37.9,15.3,37.9,36.3c0,15.3-8.4,26.6-20.9,31.6l21.4,45.1h-32.3l-17.8-41
	h-6.2v41H1449L1449,266.9z M1491.1,203c8.9,0,13.6-5.1,13.6-12.3s-4.6-12.1-13.6-12.1h-12.4V203H1491.1z"/>
<path class="st1" d="M473,226c-39.3,0-80.8-25.7-101.2-44.4c-22.3-20.4-83.5-86.8-83.8-87.1C247.9,49.7,193.9,0,140,0
	C75.1,0,18.6,44.9,3.8,104.4C5,100.5,25.6,46,103,46c39.3,0,80.8,25.7,101.2,44.4c22.3,20.4,83.5,86.8,83.8,87.1
	c40.1,44.8,94.1,94.5,148,94.5c64.9,0,121.4-44.9,136.2-104.4C571,171.5,550.4,226,473,226L473,226z"/>
<linearGradient id="SVGID_1_" gradientUnits="userSpaceOnUse" x1="212.585" y1="20.0279" x2="23.135" y2="216.2079" gradientTransform="matrix(1 0 0 -1 0 274.2362)">
	<stop  offset="0.22" style="stop-color:#FF0079"/>
	<stop  offset="0.89" style="stop-color:#592489"/>
</linearGradient>
<path class="st2" d="M288,177.5c-0.1-0.2-17.8-19.3-37.5-40.1c-10.7,12.7-26.1,30-43.8,45.5c-33,28.9-54.4,35-66.7,35
	c-46.3,0-84-36.7-84-81.8s37.7-81.5,84-81.8c1.7,0,3.7,0.2,6.2,0.6C132.3,49.5,117.5,46,103,46c-77.4,0-98,54.5-99.2,58.4
	C1.3,114.8,0,125.4,0,136c0,75,61.9,136,139,136c32.2,0,68.2-16.5,105.3-49c17.5-15.4,32.7-31.8,44.2-45
	C288.3,177.8,288.2,177.6,288,177.5L288,177.5z"/>
<linearGradient id="SVGID_00000146499675837398016000000009036069418497512068_" gradientUnits="userSpaceOnUse" x1="13984.7559" y1="-13191.7188" x2="13795.3057" y2="-12995.5488" gradientTransform="matrix(-1 0 0 1 14348.0498 13209.624)">
	<stop  offset="0.21" style="stop-color:#FF4B00"/>
	<stop  offset="0.68" style="stop-color:#FFAB00"/>
</linearGradient>
<path style="fill:url(#SVGID_00000146499675837398016000000009036069418497512068_);" d="M288,94.5c0.1,0.2,17.8,19.3,37.5,40.1
	c10.7-12.7,26.1-30,43.8-45.5c33-28.9,54.4-35,66.7-35c46.3,0,84,36.7,84,81.8c0,44.8-37.7,81.5-84,81.8c-1.7,0-3.7-0.2-6.2-0.6
	c13.9,5.3,28.7,8.8,43.2,8.8c77.4,0,98-54.5,99.2-58.4c2.5-10.1,3.8-20.7,3.8-31.6C576,61,513.1,0,436,0c-32.2,0-67.2,16.5-104.3,49
	c-17.5,15.4-32.8,31.8-44.2,45C287.7,94.2,287.8,94.4,288,94.5L288,94.5z"/>
</svg>
