<?xml version="1.0" encoding="utf-8"?>
<!-- Generator: Adobe Illustrator 28.1.0, SVG Export Plug-In . SVG Version: 6.00 Build 0)  -->
<svg version="1.1" id="KamiButton" xmlns="http://www.w3.org/2000/svg" xmlns:xlink="http://www.w3.org/1999/xlink" x="0px" y="0px"
	 viewBox="0 0 249.6 288.2" style="enable-background:new 0 0 249.6 288.2;" xml:space="preserve">
<style type="text/css">
	.st0{fill:url(#SVGID_1_);stroke:#201F34;stroke-width:2;stroke-miterlimit:10;}
	.st1{fill:#201F34;}
	.st2{filter:url(#Adobe_OpacityMaskFilter);}
	.st3{opacity:0.75;mask:url(#SVGID_00000136374607203475910870000015738252511356159926_);}
	.st4{fill:#27242D;stroke:#27242D;stroke-width:2;stroke-miterlimit:10;}
	.st5{fill:#27242D;}
</style>
<g id="Button">
	<g>
		<g>
			
				<radialGradient id="SVGID_1_" cx="123.8751" cy="107.8256" r="112.979" fx="123.9214" fy="4.7006" gradientUnits="userSpaceOnUse">
				<stop  offset="0" style="stop-color:#DBE02D"/>
				<stop  offset="0.3925" style="stop-color:#DBB72D"/>
				<stop  offset="1" style="stop-color:#DB7A2D"/>
			</radialGradient>
			<polygon class="st0" points="248.6,215.6 248.6,72.6 124.8,1.2 1,72.6 1,215.6 124.8,287.1 			"/>
			<g>
				<path class="st1" d="M124.8,24.3l103.8,59.9v119.9L124.8,264L21,204.1V84.2L124.8,24.3 M124.8,18.5L16,81.3v125.6l108.8,62.8
					l108.8-62.8V81.3L124.8,18.5L124.8,18.5z"/>
			</g>
		</g>
	</g>
	<defs>
		<filter id="Adobe_OpacityMaskFilter" filterUnits="userSpaceOnUse" x="0" y="0" width="249.6" height="288.2">
			
				<feColorMatrix  type="matrix" values="-1 0 0 0 1  0 -1 0 0 1  0 0 -1 0 1  0 0 0 1 0" color-interpolation-filters="sRGB" result="source"/>
		</filter>
	</defs>
	
		<mask maskUnits="userSpaceOnUse" x="0" y="0" width="249.6" height="288.2" id="SVGID_00000111158985284916572380000017098181879583275407_">
		<g class="st2">
			<image style="overflow:visible;" width="254" height="293" xlink:href="C84AD049.jpg"  transform="matrix(1 0 0 1 -2 -2.75)">
			</image>
		</g>
	</mask>
	<g style="opacity:0.75;mask:url(#SVGID_00000111158985284916572380000017098181879583275407_);">
		<g>
			<polygon class="st4" points="248.6,215.6 248.6,72.6 124.8,1.2 1,72.6 1,215.6 124.8,287.1 			"/>
			<g>
				<path class="st5" d="M124.8,24.3l103.8,59.9v119.9L124.8,264L21,204.1V84.2L124.8,24.3 M124.8,18.5L16,81.3v125.6l108.8,62.8
					l108.8-62.8V81.3L124.8,18.5L124.8,18.5z"/>
			</g>
		</g>
	</g>
</g>
<g id="Kami">
	<path class="st1" d="M184.9,125.4H64.8c9.8-17.4,26.8-30.1,47.1-33.9c-0.1,1-0.2,2.1-0.3,3.1l-0.1,0.1V95l-0.1,0.4v0.1
		c0,4.6,6.7,6.9,13.4,6.9s13.4-2.4,13.4-6.9v-0.1l-0.1-0.4v-0.4l-0.1-0.1c-0.1-1-0.2-2-0.3-3.1C158,95.3,175.1,108,184.9,125.4
		L184.9,125.4z"/>
	<path class="st1" d="M187.7,186.1c0.1,0,0.3,0,0.4,0c-10.5,24.6-34.9,41.7-63.3,41.7S72,210.7,61.5,186.1c0.1,0,0.3,0,0.4,0H187.7z
		"/>
	<path class="st1" d="M207.8,146.7h-0.9v-0.1c0-10.6-8.6-19.2-19.2-19.2H61.9c-10.6,0-19.2,8.6-19.2,19.2v0.1h-0.8
		c-2.6,0-4.8,2.1-4.8,4.8v9.4c0,2.6,2.1,4.8,4.8,4.8h0.9c0.4,9.8,8.2,17.9,18,18.5c0.3,0,0.6,0,0.9,0.1H188c0.3,0,0.6,0,0.9-0.1
		c9.8-0.6,17.6-8.6,18-18.5h0.9c2.6,0,4.8-2.1,4.8-4.8v-9.4C212.6,148.8,210.5,146.7,207.8,146.7L207.8,146.7z M191.6,156.7
		c0,0.2,0,0.5,0,0.7c0,0.2,0,0.3,0,0.5c0,0.2,0,0.4-0.1,0.5c0,0.2-0.1,0.4-0.1,0.6c0,0.1,0,0.2-0.1,0.3c0,0.1-0.1,0.2-0.1,0.3
		c-0.4,1.9-1.2,3.6-2.3,5.1c-0.1,0.1-0.2,0.3-0.3,0.4c-0.1,0.1-0.2,0.2-0.3,0.4c-0.1,0.2-0.3,0.3-0.4,0.5c-0.2,0.2-0.4,0.4-0.6,0.6
		c-0.1,0.1-0.2,0.2-0.3,0.3c-0.4,0.4-0.8,0.7-1.2,1c-0.1,0.1-0.3,0.2-0.5,0.3c-0.1,0.1-0.2,0.2-0.4,0.2c-0.1,0.1-0.3,0.2-0.4,0.2
		c-0.2,0.1-0.5,0.3-0.7,0.4c-0.2,0.1-0.4,0.2-0.6,0.3c-0.2,0.1-0.4,0.2-0.6,0.2c-0.2,0.1-0.4,0.1-0.6,0.2c-0.1,0-0.1,0-0.2,0.1
		c-0.2,0.1-0.3,0.1-0.5,0.2c-0.1,0-0.2,0.1-0.3,0.1c-0.1,0-0.2,0.1-0.3,0.1c-0.6,0.2-1.3,0.3-2,0.3c-0.2,0-0.4,0-0.6,0
		c-0.2,0-0.5,0-0.7,0H72c-0.7,0-1.4-0.1-2.1-0.2c-0.2,0-0.5-0.1-0.7-0.1c-0.2,0-0.3-0.1-0.5-0.1c-0.2-0.1-0.4-0.1-0.6-0.2
		c-0.2,0-0.3-0.1-0.4-0.1c-0.5-0.2-1-0.3-1.4-0.6c-0.2-0.1-0.3-0.2-0.5-0.2c-0.2-0.1-0.4-0.2-0.6-0.3c-0.2-0.1-0.3-0.2-0.5-0.3
		c-0.7-0.5-1.4-1-2.1-1.6c-0.1-0.1-0.2-0.2-0.3-0.3c-0.4-0.4-0.8-0.8-1.2-1.3c-0.1-0.2-0.3-0.4-0.4-0.5s-0.3-0.4-0.4-0.6
		c-0.1-0.2-0.3-0.4-0.4-0.6c-0.1-0.2-0.2-0.4-0.3-0.6c-0.2-0.3-0.3-0.7-0.5-1c-0.1-0.2-0.1-0.4-0.2-0.5c-0.2-0.6-0.4-1.2-0.5-1.9
		c-0.1-0.2-0.1-0.5-0.1-0.7c-0.1-0.7-0.2-1.5-0.2-2.2v-1.1c0-0.3,0-0.6,0-0.9c0-0.2,0-0.5,0.1-0.7c0-0.1,0-0.2,0-0.4
		c0-0.2,0.1-0.5,0.1-0.7c0-0.2,0.1-0.4,0.2-0.7c0.2-0.6,0.3-1.2,0.6-1.8c0.1-0.2,0.2-0.4,0.2-0.6c0.1-0.2,0.2-0.5,0.3-0.7
		c0,0,0,0,0-0.1c0.1-0.2,0.2-0.5,0.4-0.7c0.1-0.2,0.3-0.4,0.4-0.7c0.3-0.5,0.6-0.9,1-1.3c0.2-0.2,0.3-0.4,0.5-0.6
		c0.2-0.2,0.4-0.4,0.6-0.6c0.2-0.2,0.4-0.3,0.5-0.5c0,0,0.1-0.1,0.1-0.1c0.2-0.2,0.4-0.3,0.6-0.4l0,0c0.3-0.2,0.6-0.4,0.9-0.6
		c0.3-0.2,0.6-0.4,0.9-0.5c0,0,0,0,0,0c0.3-0.2,0.6-0.3,1-0.4h0c0.3-0.1,0.6-0.2,0.9-0.4c0.3-0.1,0.7-0.2,1-0.3
		c0.2-0.1,0.4-0.1,0.5-0.1c0.3-0.1,0.6-0.1,0.9-0.2c0.2,0,0.3,0,0.5-0.1c0.1,0,0.3,0,0.4,0c0.1,0,0.3,0,0.4,0c0.2,0,0.5,0,0.7,0
		h105.6c0.4,0,0.8,0,1.1,0.1c0.1,0,0.3,0,0.4,0c0.2,0,0.4,0,0.6,0.1c0.3,0.1,0.5,0.1,0.8,0.1c0.6,0.1,1.1,0.3,1.6,0.5
		c0.3,0.1,0.5,0.2,0.8,0.3c0.2,0.1,0.4,0.2,0.6,0.2c0.1,0.1,0.3,0.1,0.4,0.2c0.1,0,0.1,0.1,0.2,0.1c0.3,0.1,0.6,0.3,0.8,0.5
		c0.3,0.2,0.6,0.4,0.9,0.6c0.2,0.2,0.4,0.3,0.7,0.5c0.2,0.2,0.4,0.3,0.6,0.5c0.2,0.2,0.4,0.4,0.6,0.6c0.2,0.2,0.4,0.4,0.6,0.6
		c0.2,0.2,0.3,0.4,0.5,0.6c0.2,0.2,0.3,0.4,0.5,0.6c0.2,0.2,0.3,0.5,0.4,0.7c0.1,0.2,0.3,0.4,0.4,0.7c0.1,0.3,0.3,0.5,0.4,0.8
		c0.1,0.2,0.2,0.4,0.2,0.5c0,0,0,0,0,0.1c0.1,0.3,0.2,0.6,0.3,0.9c0.1,0.2,0.1,0.5,0.2,0.8c0.1,0.3,0.2,0.7,0.2,1.1
		c0,0.2,0.1,0.3,0.1,0.5c0,0.1,0,0.2,0.1,0.4c0,0.2,0.1,0.5,0.1,0.7c0,0.3,0,0.6,0,0.9V156.7L191.6,156.7z"/>
	<path class="st1" d="M84.5,143.6v25.1H72c-3.8,0-7.1-1.8-9.3-4.5c-1.7-2.1-2.7-4.7-2.7-7.5v-1.1c0-3.3,1.4-6.4,3.6-8.6
		c2.2-2.1,5.1-3.4,8.4-3.4H84.5z"/>
	<rect x="102.3" y="143.6" class="st1" width="45.6" height="25.1"/>
	<path class="st1" d="M189.6,155.6v1.1c0,2.9-1,5.5-2.7,7.5c-2.2,2.7-5.6,4.5-9.3,4.5h-11.9v-25.1h11.9c3.3,0,6.2,1.3,8.4,3.4
		C188.2,149.2,189.6,152.2,189.6,155.6z"/>
	<path class="st1" d="M136.2,95.6c0,2.7-5.1,4.9-11.4,4.9s-11.4-2.2-11.4-4.9c0-0.2,0-0.3,0.1-0.4c0,0,0,0,0-0.1
		c0.2-1.3,0.3-2.7,0.4-4c1.1-10.4,2.3-20.8,3.4-31.2c0-4.1,3.3-7.5,7.5-7.5c4.1,0,7.5,3.3,7.5,7.5v0.1c1.1,10.4,2.3,20.8,3.4,31.1
		c0.1,1.3,0.3,2.7,0.4,4c0,0,0,0,0,0.1C136.2,95.3,136.2,95.4,136.2,95.6L136.2,95.6z"/>
</g>
</svg>
