<?xml version="1.0" encoding="UTF-8"?>
<svg id="Capa_2" data-name="Capa 2" xmlns="http://www.w3.org/2000/svg" viewBox="0 0 852.98 174.62">
  <defs>
    <style>
      .cls-1 {
        fill: #fff;
        stroke-width: 0px;
      }
    </style>
  </defs>
  <g id="Capa_4" data-name="Capa 4">
    <g>
      <path class="cls-1" d="M247.71,90.94c9.07,3.27,9.31,3.57,9.43,12.52.04,3.11-.03,6.22,0,9.32.06,4.67.34,9.17-4.26,12.54-1.7,1.24-2.28,4.3-2.91,6.66-5.88,21.78-28.4,42.83-57.04,42.65-42.89-.28-85.78.12-128.66-.12-26.66-.15-48.53-16.55-56.58-41.88-1.14-3.6-2.2-6.8-5.05-9.64-1.7-1.7-2.12-5.03-2.41-7.71-.39-3.69-.17-7.45-.11-11.18.16-9.32.72-10.05,9.89-13.34,7.92-16.23,20.17-28.05,38.06-32.83,6.81-1.82,14.05-2.7,21.11-2.75,39.47-.25,78.94,0,118.41-.16,27.02-.11,47.21,11.01,60.13,35.93ZM130.32,140.44v.02c6.53,0,13.05,0,19.58,0,9.01,0,18.03.2,27.04-.07,10.49-.31,19.23-7.07,22.35-16.75,3.34-10.36.13-20.8-8.37-27.47-5.15-4.04-11.14-5.35-17.46-5.41-9.63-.1-19.27-.03-28.91-.03-19.27,0-38.54-.02-57.81,0-8.76.01-16.72,2.33-22.36,9.43-6.37,8.03-7.16,17.21-3.05,26.33,4.03,8.95,11.64,13.71,21.45,13.88,15.85.27,31.7.07,47.55.07Z"/>
      <path class="cls-1" d="M310.59,155.41V26.17c5.46-.69,10.87-.24,16.94-.33.07,13.68.02,26.89.02,40.1,0,13.25,0,26.49,0,40.45,6.91-6.02,12.6-12.69,18.82-18.81,6.16-6.06,12.34-12.1,18.71-18.33h22.81c-12.32,12.69-24.62,24.15-36.52,36.54,12.3,16.38,24.5,32.64,37.08,49.4h-21.41c-9.06-12.2-18.26-24.59-27.75-37.37-3.63,3.61-7.3,6.94-10.55,10.64-1.06,1.2-1.41,3.33-1.45,5.05-.16,6.99-.06,13.98-.06,21.63-5.5.6-10.74.21-16.65.26Z"/>
      <path class="cls-1" d="M647.28,125.76c5.09,1.79,9.56,3.36,14.36,5.05-2.4,8.69-7.39,15.04-14.18,20.04-8.23,6.05-17.63,7.81-27.67,7.19-8.3-.52-15.83-3.03-22.57-7.94-9.59-6.99-15.06-16.48-16.82-28.09-1.99-13.12-.61-25.68,6.96-37.04,16.57-24.85,47.37-21.44,60.98-9.17,7.74,6.98,11.78,15.86,13.29,25.97.57,3.8.63,7.69.78,11.55.04,1.04-.45,2.11-.82,3.68h-63.2c-2.13,9.65,4.69,20.52,15.06,24.41,6.83,2.56,13.69,2.24,20.49-.34,6.95-2.63,10.33-8.48,13.33-15.29ZM644.09,103.04c-.47-12.86-8.89-21.02-21.81-21.4-13.06-.39-22.75,8.1-24.12,21.4h45.94Z"/>
      <path class="cls-1" d="M387.51,112.12c-.04-15.69,5.49-28.84,18.6-37.91,25.1-17.38,64.13-5.41,69.04,30.77,1.81,13.34-.64,25.62-8.71,36.51-7.16,9.67-16.88,14.98-28.86,16.3-9.74,1.07-19.15.08-27.73-4.82-14.03-8.01-21.07-20.51-22.33-36.44-.12-1.46-.02-2.94-.02-4.41ZM404.96,112.02c.13,2.39.14,4.79.41,7.16,1.44,12.58,10.66,21.92,23.26,23.64,11.1,1.52,22.68-5.13,26.94-15.97,3.77-9.61,3.83-19.49-.09-29.06-6.86-16.72-28.68-21.21-41.84-8.79-6.62,6.25-8.79,14.2-8.68,23.02Z"/>
      <path class="cls-1" d="M565.29,155.25h-16.51c-.11-2.09-.29-4.03-.29-5.97-.03-14.73.07-29.46-.11-44.19-.05-3.81-.73-7.67-1.58-11.4-1.1-4.84-4.41-8.16-8.97-9.76-13.86-4.86-26.71.87-28.68,16.88-.49,4.01-.63,8.07-.66,12.11-.09,11.97-.04,23.93-.05,35.9,0,1.99,0,3.97,0,6.28h-16.64v-85.73h15.78c1.46,3.19.09,6.76.99,10.54.93-1.04,1.66-1.8,2.33-2.62,8.32-10.18,19.39-12.11,31.44-9.83,12.22,2.31,18.81,10.79,21.92,22.26.86,3.16,1.2,6.54,1.22,9.82.11,17.12.05,34.24.03,51.37,0,1.26-.13,2.52-.23,4.32Z"/>
      <path class="cls-1" d="M752.76,94.04c-4.04,1.77-7.7,3.41-11.39,4.97-1.14.48-2.36.79-3.72,1.23-.65-1.39-1.19-2.52-1.71-3.66-6.89-15.22-25.66-19.09-38.24-7.99-5.93,5.23-8.41,11.96-9,19.5-.8,10.22.59,19.84,8.56,27.39,12.31,11.66,31.96,8.34,39.63-6.74.57-1.12,1.13-2.25,1.97-3.93,4.83,2.08,9.49,4.08,14.74,6.33-.94,2.2-1.56,4.28-2.64,6.09-7.2,12.13-17.38,19.58-31.87,20.72-18.04,1.42-31.88-5.32-41.53-20.57-4.12-6.51-6.04-13.7-6.38-21.4-.44-9.92.62-19.52,5.89-28.17,7.9-12.96,19.2-20.46,34.66-21.15,10.41-.46,20.17,1.24,28.45,8.11,6.07,5.04,10.48,11.16,12.57,19.29Z"/>
      <path class="cls-1" d="M773.21,84.71h-16.12v-15.22c1.47-.13,3.05-.47,4.6-.38,7.57.45,13.18-4.76,12.85-13.06-.17-4.39-.03-8.79-.03-13.02,4.46-1.46,10.45-1.55,16.02-.25v26.1h17.64c1.32,5.33.53,10.2.68,15.6h-17.59c-.23,1.87-.54,3.25-.55,4.64-.04,13.25-.04,26.49-.04,39.74,0,.92,0,1.84.08,2.76.49,5.82,3.17,8.65,9.01,9.18,2.72.25,5.48.04,8.47.04,1.14,4.65.62,9.15.34,13.96-8.14,2.54-16.08,2.68-23.63-1.17-8.7-4.44-11.57-12.45-11.68-21.61-.16-13.61-.05-27.23-.06-40.85,0-1.98,0-3.95,0-6.46Z"/>
      <path class="cls-1" d="M73.65,37.42h-18.17c-1.41-11.16,3.33-19.63,10.4-26.83C72.12,4.21,80.02.26,89.13.2c26.42-.19,52.84-.32,79.26,0,18.17.22,35.29,18.02,33.93,37.2-2.84.14-5.81.35-8.79.42-3.08.07-6.17.02-9.01.02-.77-.89-1.35-1.28-1.54-1.82-4.5-12.99-8.67-16-22.54-16.1-6.76-.05-13.52,0-20.85,0-.21,3.75-.33,6.48-.51,9.2-.17,2.43-.4,4.86-.67,7.99h-19.2c-.3-5.49-.6-10.91-.94-17.02-9.41,0-18.38-.45-27.28.15-6.94.47-12.13,4.45-14.9,11.1-.82,1.96-1.58,3.95-2.44,6.11Z"/>
      <path class="cls-1" d="M845.98,55.12c-4,3.26-8.09,4.9-13.01,3.3-4.26-1.38-7.12-4.64-7.4-8.66-.31-4.38,2.05-8.09,6.74-9.6,3.12-1.01,6.46-1.3,9.7-1.94,1.23-.24,2.44-.56,3.55-.81.61-4.2.06-5.63-2.36-6.58-4.23-1.66-7.73-.05-11.48,5.52-1.58-.34-3.31-.71-5.72-1.24.78-1.93,1.14-3.52,1.97-4.79,4.12-6.28,15.46-7.86,21.18-3,2.5,2.13,3.79,4.93,3.8,8.25.02,7.17,0,14.33,0,21.96-1.62.23-3.17.45-4.73.67-.83-1.13-1.52-2.07-2.26-3.08ZM845.85,42.9c-3.24.46-6.12.72-8.94,1.32-3.29.69-4.81,2.64-4.44,5.18.39,2.68,2.94,4.32,6.2,3.98,5.3-.56,7.64-3.76,7.18-10.48Z"/>
    </g>
  </g>
</svg>