<?xml version="1.0" encoding="UTF-8"?>
<svg id="Capa_2" data-name="Capa 2" xmlns="http://www.w3.org/2000/svg" xmlns:xlink="http://www.w3.org/1999/xlink" viewBox="0 0 82.49 93.27">
  <defs>
    <linearGradient id="Degradado_sin_nombre_11" data-name="Degradado sin nombre 11" x1="41.25" y1="3.86" x2="41.25" y2="86.35" gradientUnits="userSpaceOnUse">
      <stop offset=".01" stop-color="#2dd4bf"/>
      <stop offset=".51" stop-color="#1ea697"/>
      <stop offset="1" stop-color="#0f766e"/>
    </linearGradient>
    <filter id="AI_DesenfoqueGaussiano_7">
      <feGaussianBlur stdDeviation="2.2"/>
    </filter>
    <filter id="AI_DesenfoqueGaussiano_7-2" data-name="AI_DesenfoqueGaussiano_7">
      <feGaussianBlur stdDeviation="2.2"/>
    </filter>
  </defs>
  <g id="Capa_4" data-name="Capa 4">
    <g>
      <path d="M0,26.52v40.23c0,2.29,1.22,4.4,3.2,5.54l34.84,20.12c1.98,1.14,4.42,1.14,6.4,0l34.84-20.12c1.98-1.14,3.2-3.26,3.2-5.54V26.52c0-2.29-1.22-4.4-3.2-5.54L44.45.86c-1.98-1.14-4.42-1.14-6.4,0L3.2,20.97c-1.98,1.14-3.2,3.26-3.2,5.54Z" fill="url(#Degradado_sin_nombre_11)" stroke-width="0"/>
      <g>
        <path d="M10.3,66.94l-.36-.21c-1.1-.63-1.77-1.8-1.77-3.07v-.48c0,1.53.81,2.97,2.13,3.75Z" fill="#fff" stroke-width="0"/>
        <path d="M8.17,63.18v.48c0,1.27.68,2.43,1.77,3.07l.36.21c-1.31-.79-2.13-2.22-2.13-3.75h0Z" stroke-width="0"/>
      </g>
      <g filter="url(#AI_DesenfoqueGaussiano_7)">
        <path d="M55.95,14.16l-11.33-6.54c-2.11-1.22-4.73-1.22-6.84,0L9.13,24.17c-2.11,1.22-3.42,3.49-3.42,5.92v13.08c0,.44.23.85.62,1.07.19.11.4.16.62.16s.42-.06.62-.16h0c.38-.22.62-.63.62-1.07v-13.08c0-1.56.84-3.01,2.19-3.79l28.66-16.55s.01,0,.01,0c.67-.38,1.42-.57,2.17-.57s1.51.19,2.19.58l9.48,5.47,1.85,1.07c.38.22.85.22,1.23,0h0c.38-.22.62-.63.62-1.07s-.23-.85-.62-1.07Z" fill="#74f7ce" stroke-width="0"/>
        <path d="M55.95,76.98h0c-.38-.22-.85-.22-1.23,0l-1.85,1.07-9.48,5.47s-.03.02-.05.02c-1.3.73-2.89.75-4.2.05-.04-.02-.08-.05-.13-.07l-28.66-16.54s-.04-.02-.06-.04c-1.31-.79-2.13-2.22-2.13-3.75v-13.08c0-.44-.23-.85-.62-1.07h0c-.38-.22-.85-.22-1.23,0-.38.22-.62.63-.62,1.07v13.08c0,2.43,1.31,4.7,3.42,5.92l28.66,16.55c1.06.61,2.24.91,3.42.91s2.36-.31,3.42-.91l11.33-6.54c.38-.22.62-.63.62-1.07s-.23-.85-.62-1.07Z" fill="#74f7ce" stroke-width="0"/>
        <path d="M73.28,24.17l-11.52-6.65c-.38-.22-.85-.22-1.23,0-.38.22-.62.63-.62,1.07h0c0,.44.24.85.62,1.07l1.85,1.06,4.32,2.49,5.35,3.09c1.35.78,2.19,2.23,2.19,3.79v33.09c0,1.55-.83,3-2.17,3.78,0,0-.01,0-.02.01l-9.67,5.58-1.85,1.06c-.38.22-.62.63-.62,1.07h0c0,.44.23.85.62,1.07.19.11.4.16.62.16s.42-.06.62-.16l11.52-6.65c2.11-1.22,3.42-3.49,3.42-5.92V30.09c0-2.44-1.31-4.71-3.42-5.92Z" fill="#74f7ce" stroke-width="0"/>
      </g>
      <g>
        <path d="M55.95,14.16l-11.33-6.54c-2.11-1.22-4.73-1.22-6.84,0L9.13,24.17c-2.11,1.22-3.42,3.49-3.42,5.92v13.08c0,.44.23.85.62,1.07.19.11.4.16.62.16s.42-.06.62-.16h0c.38-.22.62-.63.62-1.07v-13.08c0-1.56.84-3.01,2.19-3.79l28.66-16.55s.01,0,.01,0c.67-.38,1.42-.57,2.17-.57s1.51.19,2.19.58l9.48,5.47,1.85,1.07c.38.22.85.22,1.23,0h0c.38-.22.62-.63.62-1.07s-.23-.85-.62-1.07Z" fill="#fff" stroke-width="0"/>
        <path d="M55.95,76.98h0c-.38-.22-.85-.22-1.23,0l-1.85,1.07-9.48,5.47s-.03.02-.05.02c-1.3.73-2.89.75-4.2.05-.04-.02-.08-.05-.13-.07l-28.66-16.54s-.04-.02-.06-.04c-1.31-.79-2.13-2.22-2.13-3.75v-13.08c0-.44-.23-.85-.62-1.07h0c-.38-.22-.85-.22-1.23,0-.38.22-.62.63-.62,1.07v13.08c0,2.43,1.31,4.7,3.42,5.92l28.66,16.55c1.06.61,2.24.91,3.42.91s2.36-.31,3.42-.91l11.33-6.54c.38-.22.62-.63.62-1.07s-.23-.85-.62-1.07Z" fill="#fff" stroke-width="0"/>
        <path d="M73.28,24.17l-11.52-6.65c-.38-.22-.85-.22-1.23,0-.38.22-.62.63-.62,1.07h0c0,.44.24.85.62,1.07l1.85,1.06,4.32,2.49,5.35,3.09c1.35.78,2.19,2.23,2.19,3.79v33.09c0,1.55-.83,3-2.17,3.78,0,0-.01,0-.02.01l-9.67,5.58-1.85,1.06c-.38.22-.62.63-.62,1.07h0c0,.44.23.85.62,1.07.19.11.4.16.62.16s.42-.06.62-.16l11.52-6.65c2.11-1.22,3.42-3.49,3.42-5.92V30.09c0-2.44-1.31-4.71-3.42-5.92Z" fill="#fff" stroke-width="0"/>
      </g>
      <g filter="url(#AI_DesenfoqueGaussiano_7-2)">
        <path d="M40.07,67.34h-2.07c-6.22,0-9.64,0-12.07-2.43-2.43-2.43-2.43-5.85-2.43-12.07v-12.42c0-6.22,0-9.64,2.43-12.07,2.43-2.43,5.85-2.43,12.07-2.43h2.07c1.14,0,2.07.93,2.07,2.07s-.93,2.07-2.07,2.07h-2.07c-5.5,0-7.98.05-9.14,1.21s-1.21,3.64-1.21,9.14v12.42c0,5.5.05,7.98,1.21,9.14,1.16,1.16,3.64,1.21,9.14,1.21h2.07c1.14,0,2.07.93,2.07,2.07s-.93,2.07-2.07,2.07Z" fill="#74f7ce" stroke-width="0"/>
        <path d="M47.59,58.02c-.53,0-1.06-.2-1.46-.61-.81-.81-.81-2.12,0-2.93l5.78-5.78h-13.64c-1.14,0-2.07-.93-2.07-2.07s.93-2.07,2.07-2.07h13.64l-5.78-5.78c-.81-.81-.81-2.12,0-2.93.81-.81,2.12-.81,2.93,0l9.32,9.32s0,0,0,0c.2.2.35.43.45.67.1.24.16.51.16.79s-.06.55-.16.79c-.1.24-.25.47-.45.67,0,0,0,0,0,0l-9.32,9.32c-.4.4-.93.61-1.46.61Z" fill="#74f7ce" stroke-width="0"/>
      </g>
      <g>
        <path d="M40.07,28h-2.07c-5.86,0-8.78,0-10.6,1.82-1.82,1.82-1.82,4.75-1.82,10.6v12.42c0,5.86,0,8.78,1.82,10.6,1.82,1.82,4.75,1.82,10.6,1.82h2.07" fill="none" stroke="#fff" stroke-linecap="round" stroke-width="4.14"/>
        <path d="M47.59,37.32l9.32,9.32M56.91,46.64l-9.32,9.32M56.91,46.64h-18.64" fill="none" stroke="#fff" stroke-linecap="round" stroke-width="4.14"/>
      </g>
    </g>
  </g>
</svg>