<?xml version="1.0" encoding="UTF-8"?>
<svg id="Ilust" xmlns="http://www.w3.org/2000/svg" xmlns:xlink="http://www.w3.org/1999/xlink" viewBox="0 0 1066.62 1029.07">
  <defs>
    <style>
      .cls-1 {
        fill: url(#Degradado_sin_nombre_12);
      }

      .cls-1, .cls-2, .cls-3, .cls-4, .cls-5, .cls-6, .cls-7, .cls-8, .cls-9, .cls-10, .cls-11, .cls-12 {
        stroke-width: 0px;
      }

      .cls-2 {
        fill: url(#Degradado_sin_nombre_12-3);
      }

      .cls-13 {
        stroke-width: 1.5px;
      }

      .cls-13, .cls-14 {
        fill: none;
        stroke: #fff;
        stroke-linecap: round;
        stroke-linejoin: round;
      }

      .cls-14 {
        stroke-width: 2.5px;
      }

      .cls-3 {
        fill: #2deecb;
      }

      .cls-4 {
        fill: url(#Degradado_sin_nombre_12-4);
      }

      .cls-5 {
        fill: #fff;
      }

      .cls-6 {
        fill: url(#Degradado_sin_nombre_16);
      }

      .cls-7 {
        fill: url(#Degradado_sin_nombre_9);
      }

      .cls-8 {
        fill: url(#Degradado_sin_nombre_9-4);
      }

      .cls-9 {
        fill: url(#Degradado_sin_nombre_9-3);
      }

      .cls-10 {
        fill: url(#Degradado_sin_nombre_9-2);
      }

      .cls-11 {
        fill: #14b8a6;
      }

      .cls-12 {
        fill: url(#Degradado_sin_nombre_12-2);
      }
    </style>
    <linearGradient id="Degradado_sin_nombre_16" data-name="Degradado sin nombre 16" x1="504.81" y1="887.93" x2="504.81" y2="377.92" gradientUnits="userSpaceOnUse">
      <stop offset=".09" stop-color="#004940"/>
      <stop offset=".96" stop-color="#13b6a4"/>
      <stop offset=".97" stop-color="#14b8a6"/>
    </linearGradient>
    <linearGradient id="Degradado_sin_nombre_9" data-name="Degradado sin nombre 9" x1="819" y1="1016.31" x2="940.88" y2="980.38" gradientUnits="userSpaceOnUse">
      <stop offset="0" stop-color="#14b8a6"/>
      <stop offset=".02" stop-color="#1ab9a8"/>
      <stop offset=".3" stop-color="#6ad2c6"/>
      <stop offset=".54" stop-color="#aae5de"/>
      <stop offset=".75" stop-color="#d8f3f0"/>
      <stop offset=".91" stop-color="#f4fbfb"/>
      <stop offset="1" stop-color="#fff"/>
    </linearGradient>
    <radialGradient id="Degradado_sin_nombre_12" data-name="Degradado sin nombre 12" cx="883.5" cy="919.36" fx="901.21" fy="892.57" r="32.11" gradientUnits="userSpaceOnUse">
      <stop offset="0" stop-color="#fff"/>
      <stop offset=".37" stop-color="#fdfefe"/>
      <stop offset=".5" stop-color="#f6fcfb"/>
      <stop offset=".6" stop-color="#eaf8f7"/>
      <stop offset=".67" stop-color="#d9f3f0"/>
      <stop offset=".74" stop-color="#c3ede8"/>
      <stop offset=".8" stop-color="#a8e4de"/>
      <stop offset=".85" stop-color="#87dbd1"/>
      <stop offset=".9" stop-color="#62cfc3"/>
      <stop offset=".94" stop-color="#39c3b4"/>
      <stop offset=".97" stop-color="#14b8a6"/>
    </radialGradient>
    <linearGradient id="Degradado_sin_nombre_9-2" data-name="Degradado sin nombre 9" x1="920.5" y1="151.87" x2="1042.39" y2="115.94" xlink:href="#Degradado_sin_nombre_9"/>
    <radialGradient id="Degradado_sin_nombre_12-2" data-name="Degradado sin nombre 12" cx="985.01" cy="54.92" fx="1002.71" fy="28.13" r="32.11" xlink:href="#Degradado_sin_nombre_12"/>
    <linearGradient id="Degradado_sin_nombre_9-3" data-name="Degradado sin nombre 9" x1="132.04" y1="251.55" x2="253.93" y2="215.62" xlink:href="#Degradado_sin_nombre_9"/>
    <radialGradient id="Degradado_sin_nombre_12-3" data-name="Degradado sin nombre 12" cx="196.55" cy="154.6" fx="214.25" fy="127.81" r="32.11" xlink:href="#Degradado_sin_nombre_12"/>
    <linearGradient id="Degradado_sin_nombre_9-4" data-name="Degradado sin nombre 9" x1="76.42" y1="972.99" x2="198.31" y2="937.07" xlink:href="#Degradado_sin_nombre_9"/>
    <radialGradient id="Degradado_sin_nombre_12-4" data-name="Degradado sin nombre 12" cx="140.93" cy="876.04" fx="158.63" fy="849.25" r="32.11" xlink:href="#Degradado_sin_nombre_12"/>
  </defs>
  <g id="Lines">
    <path id="Line1" class="cls-14" d="M140.93,903.44v-161.24c0-14.18-11.5-25.67-25.67-25.67H26.92c-14.18,0-25.67-11.5-25.67-25.67v-223.06c0-14.18,11.5-25.67,25.67-25.67h162.24c14.18,0,25.67,11.5,25.67,25.67v282.97c0,14.18,11.5,25.67,25.67,25.67h77.83c14.18,0,25.67-11.5,25.67-25.67v-30.69"/>
    <path id="Line2" class="cls-14" d="M196.55,181.99V56.43c0-14.18,11.5-25.67,25.67-25.67h439.94c14.18,0,25.67,11.5,25.67,25.67v95.18c0,14.18-11.5,25.67-25.67,25.67h-285.83c-14.18,0-25.67,11.5-25.67,25.67v126.04"/>
    <path id="Line3" class="cls-14" d="M985.01,82.31v524.41c0,14.18-11.5,25.67-25.67,25.67h-94.17c-14.18,0-25.67-11.5-25.67-25.67v-139.58c0-14.18,11.5-25.67,25.67-25.67h22.36c14.18,0,25.67-11.5,25.67-25.67v-146.45c0-14.18-11.5-25.67-25.67-25.67h-169.05c-14.18,0-25.67,11.5-25.67,25.67v79.95"/>
    <path id="Line4" class="cls-14" d="M883.5,946.75h-161.64c-14.18,0-25.67,11.5-25.67,25.67v27.16c0,14.18-11.5,25.67-25.67,25.67h-204.44c-14.18,0-25.67-11.5-25.67-25.67v-126.62c0-14.18,11.5-25.67,25.67-25.67h294.44c14.18,0,25.67-11.5,25.67-25.67v-82.42c0-14.18-11.5-25.67-25.67-25.67h-77.92"/>
  </g>
  <g id="Logo">
    <g>
      <path class="cls-3" d="M545.18,662.1c-5.29,0-9.57-4.29-9.57-9.57v-128.82c-3.75-12.91-15.28-21.87-28.42-21.92h-.11c-12.76,0-24.19,8.54-28.24,20.95v46.87c0,5.29-4.29,9.57-9.57,9.57s-9.57-4.29-9.57-9.57v-48.29c0-.88.12-1.76.36-2.61,6.01-21.26,25.33-36.07,47.02-36.07h.18c22.24.09,41.65,15.48,47.2,37.45.19.77.29,1.55.29,2.34v130.09c0,5.29-4.29,9.57-9.57,9.57Z"/>
      <path class="cls-3" d="M505.75,658.42c-5.29,0-9.57-4.29-9.57-9.57v-120.14c0-5.29,4.29-9.57,9.57-9.57s9.57,4.29,9.57,9.57v120.14c0,5.29-4.29,9.57-9.57,9.57Z"/>
      <path class="cls-3" d="M426.89,600.68c-5.29,0-9.57-4.29-9.57-9.57v-72.72c0-.58.05-1.15.15-1.71,2.43-13.32,7.54-25.62,15.21-36.57,13.23-18.89,30.44-28.52,42.55-33.27,4.92-1.93,10.48.49,12.41,5.42,1.93,4.92-.49,10.48-5.41,12.4-9.65,3.79-23.36,11.44-33.86,26.43-5.92,8.45-9.92,17.93-11.9,28.19v71.83c0,5.29-4.29,9.57-9.57,9.57Z"/>
      <path class="cls-3" d="M385.62,604.37c-5.29,0-9.57-4.29-9.57-9.57v-82.31c0-.44.03-.89.09-1.33,1.85-13.18,5.74-25.92,11.56-37.86,6.44-13.21,15.08-25.11,25.66-35.37,3.79-3.68,9.85-3.58,13.53.21,3.68,3.8,3.59,9.85-.21,13.53-8.98,8.71-16.31,18.81-21.78,30.02-4.85,9.94-8.11,20.52-9.72,31.48v81.63c0,5.29-4.29,9.57-9.57,9.57Z"/>
      <path class="cls-3" d="M587.19,621.56c-5.29,0-9.57-4.29-9.57-9.57v-87.95c-.97-9.12-3.62-17.81-7.9-25.84-6.73-12.62-15.99-20.65-22.58-25.17-4.36-2.99-5.47-8.95-2.48-13.31,2.99-4.36,8.94-5.47,13.31-2.48,11.97,8.21,21.88,19.26,28.65,31.95,5.53,10.38,8.93,21.62,10.11,33.4.03.32.05.63.05.95v88.44c0,5.29-4.29,9.57-9.57,9.57Z"/>
      <path class="cls-3" d="M628.83,617.14c-5.29,0-9.57-4.29-9.57-9.57v-83.57c-.07-3.7-.51-7.4-1.3-11-.49-2.25-1.13-4.49-1.89-6.66-1.75-4.99.87-10.45,5.86-12.2,4.99-1.75,10.45.87,12.2,5.86,1.02,2.91,1.87,5.91,2.53,8.92,1.06,4.85,1.65,9.84,1.74,14.82,0,.06,0,.12,0,.18v83.67c0,5.29-4.29,9.57-9.57,9.57Z"/>
      <path class="cls-3" d="M604.27,465.38c-2.85,0-5.66-1.26-7.55-3.68-4.72-6.04-10.06-11.63-15.88-16.62-12.6-10.8-25.06-16.81-33.29-19.94-13.61-5.19-28.39-7.68-42.72-7.24-13.27.42-26.25,3.22-38.57,8.33-4.88,2.03-10.48-.29-12.51-5.18-2.02-4.88.29-10.48,5.18-12.51,14.47-6,29.71-9.29,45.3-9.78,16.82-.55,34.19,2.4,50.14,8.48,13.84,5.27,27.3,13.33,38.93,23.29,6.78,5.81,13.01,12.33,18.51,19.37,3.25,4.17,2.51,10.18-1.65,13.43-1.75,1.37-3.82,2.03-5.88,2.03Z"/>
      <path class="cls-3" d="M397.91,737.28c-.4,0-.81-.03-1.22-.08l-54.29-6.88c-.46-.06-.92-.15-1.37-.28-10.63-2.96-20.41-9.17-27.54-17.48-7.94-9.25-11.15-19.12-12.45-25.77-.05-.24-.09-.49-.12-.74l-5.65-49.38c-.6-5.25,3.17-10,8.42-10.6,5.24-.58,10,3.17,10.6,8.42l5.6,48.99c.9,4.38,3.04,10.7,8.12,16.63,6.01,7.01,13.33,10.07,17.52,11.32l53.56,6.79c5.24.66,8.96,5.45,8.29,10.7-.61,4.83-4.73,8.37-9.48,8.37Z"/>
      <path class="cls-3" d="M304.15,429.2c-.4,0-.81-.02-1.22-.08-5.24-.66-8.96-5.45-8.29-10.7l6.88-54.3c.06-.46.15-.92.28-1.37,2.97-10.63,9.17-20.41,17.48-27.54,9.25-7.94,19.12-11.15,25.77-12.45.25-.05.5-.09.75-.11l49.38-5.65c5.23-.61,10,3.17,10.6,8.42.6,5.25-3.17,10-8.42,10.6l-48.98,5.61c-4.38.9-10.7,3.04-16.63,8.12-7,6.01-10.07,13.32-11.32,17.52l-6.79,53.56c-.61,4.84-4.73,8.37-9.48,8.37Z"/>
      <path class="cls-3" d="M611.71,737.28c-4.75,0-8.87-3.53-9.48-8.37-.66-5.24,3.05-10.03,8.29-10.7l53.56-6.79c4.2-1.26,11.51-4.32,17.53-11.33,5.08-5.92,7.22-12.25,8.12-16.62l5.6-48.99c.6-5.25,5.36-9.01,10.6-8.42,5.25.6,9.02,5.35,8.42,10.6l-5.65,49.38c-.03.25-.07.49-.11.74-1.29,6.65-4.51,16.52-12.45,25.77-7.13,8.31-16.91,14.52-27.54,17.48-.45.13-.91.22-1.37.28l-54.29,6.88c-.41.05-.81.08-1.22.08Z"/>
      <path class="cls-3" d="M705.47,429.2c-4.75,0-8.87-3.53-9.48-8.37l-6.79-53.56c-1.26-4.2-4.32-11.51-11.32-17.52-5.92-5.08-12.25-7.22-16.63-8.12l-48.98-5.61c-5.25-.6-9.02-5.35-8.42-10.6.6-5.25,5.35-9.03,10.6-8.42l49.38,5.65c.25.03.5.07.75.11,6.65,1.3,16.52,4.51,25.77,12.45,8.31,7.13,14.52,16.91,17.48,27.54.13.45.22.91.28,1.37l6.88,54.3c.66,5.24-3.05,10.03-8.29,10.7-.41.05-.81.08-1.22.08Z"/>
    </g>
    <g>
      <path class="cls-6" d="M545.18,662.1c-5.29,0-9.57-4.29-9.57-9.57v-128.82c-3.75-12.91-15.28-21.87-28.42-21.92h-.11c-12.76,0-24.19,8.54-28.24,20.95v46.87c0,5.29-4.29,9.57-9.57,9.57s-9.57-4.29-9.57-9.57v-48.29c0-.88.12-1.76.36-2.61,6.01-21.26,25.33-36.07,47.02-36.07h.18c22.24.09,41.65,15.48,47.2,37.45.19.77.29,1.55.29,2.34v130.09c0,5.29-4.29,9.57-9.57,9.57Z"/>
      <path class="cls-6" d="M505.75,658.42c-5.29,0-9.57-4.29-9.57-9.57v-120.14c0-5.29,4.29-9.57,9.57-9.57s9.57,4.29,9.57,9.57v120.14c0,5.29-4.29,9.57-9.57,9.57Z"/>
      <path class="cls-6" d="M426.89,600.68c-5.29,0-9.57-4.29-9.57-9.57v-72.72c0-.58.05-1.15.15-1.71,2.43-13.32,7.54-25.62,15.21-36.57,13.23-18.89,30.44-28.52,42.55-33.27,4.92-1.93,10.48.49,12.41,5.42,1.93,4.92-.49,10.48-5.41,12.4-9.65,3.79-23.36,11.44-33.86,26.43-5.92,8.45-9.92,17.93-11.9,28.19v71.83c0,5.29-4.29,9.57-9.57,9.57Z"/>
      <path class="cls-6" d="M385.62,604.37c-5.29,0-9.57-4.29-9.57-9.57v-82.31c0-.44.03-.89.09-1.33,1.85-13.18,5.74-25.92,11.56-37.86,6.44-13.21,15.08-25.11,25.66-35.37,3.79-3.68,9.85-3.58,13.53.21,3.68,3.8,3.59,9.85-.21,13.53-8.98,8.71-16.31,18.81-21.78,30.02-4.85,9.94-8.11,20.52-9.72,31.48v81.63c0,5.29-4.29,9.57-9.57,9.57Z"/>
      <path class="cls-6" d="M587.19,621.56c-5.29,0-9.57-4.29-9.57-9.57v-87.95c-.97-9.12-3.62-17.81-7.9-25.84-6.73-12.62-15.99-20.65-22.58-25.17-4.36-2.99-5.47-8.95-2.48-13.31,2.99-4.36,8.94-5.47,13.31-2.48,11.97,8.21,21.88,19.26,28.65,31.95,5.53,10.38,8.93,21.62,10.11,33.4.03.32.05.63.05.95v88.44c0,5.29-4.29,9.57-9.57,9.57Z"/>
      <path class="cls-6" d="M628.83,617.14c-5.29,0-9.57-4.29-9.57-9.57v-83.57c-.07-3.7-.51-7.4-1.3-11-.49-2.25-1.13-4.49-1.89-6.66-1.75-4.99.87-10.45,5.86-12.2,4.99-1.75,10.45.87,12.2,5.86,1.02,2.91,1.87,5.91,2.53,8.92,1.06,4.85,1.65,9.84,1.74,14.82,0,.06,0,.12,0,.18v83.67c0,5.29-4.29,9.57-9.57,9.57Z"/>
      <path class="cls-6" d="M604.27,465.38c-2.85,0-5.66-1.26-7.55-3.68-4.72-6.04-10.06-11.63-15.88-16.62-12.6-10.8-25.06-16.81-33.29-19.94-13.61-5.19-28.39-7.68-42.72-7.24-13.27.42-26.25,3.22-38.57,8.33-4.88,2.03-10.48-.29-12.51-5.18-2.02-4.88.29-10.48,5.18-12.51,14.47-6,29.71-9.29,45.3-9.78,16.82-.55,34.19,2.4,50.14,8.48,13.84,5.27,27.3,13.33,38.93,23.29,6.78,5.81,13.01,12.33,18.51,19.37,3.25,4.17,2.51,10.18-1.65,13.43-1.75,1.37-3.82,2.03-5.88,2.03Z"/>
      <path class="cls-6" d="M397.91,737.28c-.4,0-.81-.03-1.22-.08l-54.29-6.88c-.46-.06-.92-.15-1.37-.28-10.63-2.96-20.41-9.17-27.54-17.48-7.94-9.25-11.15-19.12-12.45-25.77-.05-.24-.09-.49-.12-.74l-5.65-49.38c-.6-5.25,3.17-10,8.42-10.6,5.24-.58,10,3.17,10.6,8.42l5.6,48.99c.9,4.38,3.04,10.7,8.12,16.63,6.01,7.01,13.33,10.07,17.52,11.32l53.56,6.79c5.24.66,8.96,5.45,8.29,10.7-.61,4.83-4.73,8.37-9.48,8.37Z"/>
      <path class="cls-6" d="M304.15,429.2c-.4,0-.81-.02-1.22-.08-5.24-.66-8.96-5.45-8.29-10.7l6.88-54.3c.06-.46.15-.92.28-1.37,2.97-10.63,9.17-20.41,17.48-27.54,9.25-7.94,19.12-11.15,25.77-12.45.25-.05.5-.09.75-.11l49.38-5.65c5.23-.61,10,3.17,10.6,8.42.6,5.25-3.17,10-8.42,10.6l-48.98,5.61c-4.38.9-10.7,3.04-16.63,8.12-7,6.01-10.07,13.32-11.32,17.52l-6.79,53.56c-.61,4.84-4.73,8.37-9.48,8.37Z"/>
      <path class="cls-6" d="M611.71,737.28c-4.75,0-8.87-3.53-9.48-8.37-.66-5.24,3.05-10.03,8.29-10.7l53.56-6.79c4.2-1.26,11.51-4.32,17.53-11.33,5.08-5.92,7.22-12.25,8.12-16.62l5.6-48.99c.6-5.25,5.36-9.01,10.6-8.42,5.25.6,9.02,5.35,8.42,10.6l-5.65,49.38c-.03.25-.07.49-.11.74-1.29,6.65-4.51,16.52-12.45,25.77-7.13,8.31-16.91,14.52-27.54,17.48-.45.13-.91.22-1.37.28l-54.29,6.88c-.41.05-.81.08-1.22.08Z"/>
      <path class="cls-6" d="M705.47,429.2c-4.75,0-8.87-3.53-9.48-8.37l-6.79-53.56c-1.26-4.2-4.32-11.51-11.32-17.52-5.92-5.08-12.25-7.22-16.63-8.12l-48.98-5.61c-5.25-.6-9.02-5.35-8.42-10.6.6-5.25,5.35-9.03,10.6-8.42l49.38,5.65c.25.03.5.07.75.11,6.65,1.3,16.52,4.51,25.77,12.45,8.31,7.13,14.52,16.91,17.48,27.54.13.45.22.91.28,1.37l6.88,54.3c.66,5.24-3.05,10.03-8.29,10.7-.41.05-.81.08-1.22.08Z"/>
    </g>
    <g>
      <path class="cls-13" d="M545.18,662.1c-5.29,0-9.57-4.29-9.57-9.57v-128.82c-3.75-12.91-15.28-21.87-28.42-21.92h-.11c-12.76,0-24.19,8.54-28.24,20.95v46.87c0,5.29-4.29,9.57-9.57,9.57s-9.57-4.29-9.57-9.57v-48.29c0-.88.12-1.76.36-2.61,6.01-21.26,25.33-36.07,47.02-36.07h.18c22.24.09,41.65,15.48,47.2,37.45.19.77.29,1.55.29,2.34v130.09c0,5.29-4.29,9.57-9.57,9.57Z"/>
      <path class="cls-13" d="M505.75,658.42c-5.29,0-9.57-4.29-9.57-9.57v-120.14c0-5.29,4.29-9.57,9.57-9.57s9.57,4.29,9.57,9.57v120.14c0,5.29-4.29,9.57-9.57,9.57Z"/>
      <path class="cls-13" d="M426.89,600.68c-5.29,0-9.57-4.29-9.57-9.57v-72.72c0-.58.05-1.15.15-1.71,2.43-13.32,7.54-25.62,15.21-36.57,13.23-18.89,30.44-28.52,42.55-33.27,4.92-1.93,10.48.49,12.41,5.42,1.93,4.92-.49,10.48-5.41,12.4-9.65,3.79-23.36,11.44-33.86,26.43-5.92,8.45-9.92,17.93-11.9,28.19v71.83c0,5.29-4.29,9.57-9.57,9.57Z"/>
      <path class="cls-13" d="M385.62,604.37c-5.29,0-9.57-4.29-9.57-9.57v-82.31c0-.44.03-.89.09-1.33,1.85-13.18,5.74-25.92,11.56-37.86,6.44-13.21,15.08-25.11,25.66-35.37,3.79-3.68,9.85-3.58,13.53.21,3.68,3.8,3.59,9.85-.21,13.53-8.98,8.71-16.31,18.81-21.78,30.02-4.85,9.94-8.11,20.52-9.72,31.48v81.63c0,5.29-4.29,9.57-9.57,9.57Z"/>
      <path class="cls-13" d="M587.19,621.56c-5.29,0-9.57-4.29-9.57-9.57v-87.95c-.97-9.12-3.62-17.81-7.9-25.84-6.73-12.62-15.99-20.65-22.58-25.17-4.36-2.99-5.47-8.95-2.48-13.31,2.99-4.36,8.94-5.47,13.31-2.48,11.97,8.21,21.88,19.26,28.65,31.95,5.53,10.38,8.93,21.62,10.11,33.4.03.32.05.63.05.95v88.44c0,5.29-4.29,9.57-9.57,9.57Z"/>
      <path class="cls-13" d="M628.83,617.14c-5.29,0-9.57-4.29-9.57-9.57v-83.57c-.07-3.7-.51-7.4-1.3-11-.49-2.25-1.13-4.49-1.89-6.66-1.75-4.99.87-10.45,5.86-12.2,4.99-1.75,10.45.87,12.2,5.86,1.02,2.91,1.87,5.91,2.53,8.92,1.06,4.85,1.65,9.84,1.74,14.82,0,.06,0,.12,0,.18v83.67c0,5.29-4.29,9.57-9.57,9.57Z"/>
      <path class="cls-13" d="M604.27,465.38c-2.85,0-5.66-1.26-7.55-3.68-4.72-6.04-10.06-11.63-15.88-16.62-12.6-10.8-25.06-16.81-33.29-19.94-13.61-5.19-28.39-7.68-42.72-7.24-13.27.42-26.25,3.22-38.57,8.33-4.88,2.03-10.48-.29-12.51-5.18-2.02-4.88.29-10.48,5.18-12.51,14.47-6,29.71-9.29,45.3-9.78,16.82-.55,34.19,2.4,50.14,8.48,13.84,5.27,27.3,13.33,38.93,23.29,6.78,5.81,13.01,12.33,18.51,19.37,3.25,4.17,2.51,10.18-1.65,13.43-1.75,1.37-3.82,2.03-5.88,2.03Z"/>
      <path class="cls-13" d="M397.91,737.28c-.4,0-.81-.03-1.22-.08l-54.29-6.88c-.46-.06-.92-.15-1.37-.28-10.63-2.96-20.41-9.17-27.54-17.48-7.94-9.25-11.15-19.12-12.45-25.77-.05-.24-.09-.49-.12-.74l-5.65-49.38c-.6-5.25,3.17-10,8.42-10.6,5.24-.58,10,3.17,10.6,8.42l5.6,48.99c.9,4.38,3.04,10.7,8.12,16.63,6.01,7.01,13.33,10.07,17.52,11.32l53.56,6.79c5.24.66,8.96,5.45,8.29,10.7-.61,4.83-4.73,8.37-9.48,8.37Z"/>
      <path class="cls-13" d="M304.15,429.2c-.4,0-.81-.02-1.22-.08-5.24-.66-8.96-5.45-8.29-10.7l6.88-54.3c.06-.46.15-.92.28-1.37,2.97-10.63,9.17-20.41,17.48-27.54,9.25-7.94,19.12-11.15,25.77-12.45.25-.05.5-.09.75-.11l49.38-5.65c5.23-.61,10,3.17,10.6,8.42.6,5.25-3.17,10-8.42,10.6l-48.98,5.61c-4.38.9-10.7,3.04-16.63,8.12-7,6.01-10.07,13.32-11.32,17.52l-6.79,53.56c-.61,4.84-4.73,8.37-9.48,8.37Z"/>
      <path class="cls-13" d="M611.71,737.28c-4.75,0-8.87-3.53-9.48-8.37-.66-5.24,3.05-10.03,8.29-10.7l53.56-6.79c4.2-1.26,11.51-4.32,17.53-11.33,5.08-5.92,7.22-12.25,8.12-16.62l5.6-48.99c.6-5.25,5.36-9.01,10.6-8.42,5.25.6,9.02,5.35,8.42,10.6l-5.65,49.38c-.03.25-.07.49-.11.74-1.29,6.65-4.51,16.52-12.45,25.77-7.13,8.31-16.91,14.52-27.54,17.48-.45.13-.91.22-1.37.28l-54.29,6.88c-.41.05-.81.08-1.22.08Z"/>
      <path class="cls-13" d="M705.47,429.2c-4.75,0-8.87-3.53-9.48-8.37l-6.79-53.56c-1.26-4.2-4.32-11.51-11.32-17.52-5.92-5.08-12.25-7.22-16.63-8.12l-48.98-5.61c-5.25-.6-9.02-5.35-8.42-10.6.6-5.25,5.35-9.03,10.6-8.42l49.38,5.65c.25.03.5.07.75.11,6.65,1.3,16.52,4.51,25.77,12.45,8.31,7.13,14.52,16.91,17.48,27.54.13.45.22.91.28,1.37l6.88,54.3c.66,5.24-3.05,10.03-8.29,10.7-.41.05-.81.08-1.22.08Z"/>
    </g>
  </g>
  <g id="User4">
    <path class="cls-11" d="M956.22,946.75c0,40.55-32.87,73.41-73.42,73.41s-73.41-32.86-73.41-73.41,32.87-73.41,73.41-73.41,73.42,32.87,73.42,73.41Z"/>
    <path class="cls-7" d="M946.34,997.5c-14.9,18.63-37.82,30.56-63.53,30.56s-48.64-11.93-63.54-30.56c14.89-18.63,37.82-30.57,63.54-30.57s48.64,11.94,63.53,30.57Z"/>
    <circle class="cls-1" cx="883.5" cy="919.36" r="27.39"/>
    <path class="cls-5" d="M882.81,864.44c-45.39,0-82.32,36.93-82.32,82.32,0,18.89,6.22,36.65,18,51.37,15.72,19.66,39.17,30.94,64.32,30.94s48.59-11.28,64.31-30.94c11.78-14.72,18-32.48,18-51.37,0-45.39-36.92-82.32-82.31-82.32ZM882.8,1020.16c-40.54,0-73.41-32.86-73.41-73.41s32.87-73.41,73.41-73.41,73.42,32.87,73.42,73.41-32.87,73.41-73.42,73.41Z"/>
  </g>
  <g id="User3">
    <path class="cls-11" d="M1057.72,82.31c0,40.55-32.87,73.41-73.42,73.41s-73.41-32.86-73.41-73.41,32.87-73.41,73.41-73.41,73.42,32.87,73.42,73.41Z"/>
    <path class="cls-10" d="M1047.84,133.07c-14.9,18.63-37.82,30.56-63.53,30.56s-48.64-11.93-63.54-30.56c14.89-18.63,37.82-30.57,63.54-30.57s48.64,11.94,63.53,30.57Z"/>
    <circle class="cls-12" cx="985.01" cy="54.92" r="27.39"/>
    <path class="cls-5" d="M984.31,0c-45.39,0-82.32,36.93-82.32,82.32,0,18.89,6.22,36.65,18,51.37,15.72,19.66,39.17,30.94,64.32,30.94s48.59-11.28,64.31-30.94c11.78-14.72,18-32.48,18-51.37,0-45.39-36.92-82.32-82.31-82.32ZM984.3,155.72c-40.54,0-73.41-32.86-73.41-73.41s32.87-73.41,73.41-73.41,73.42,32.87,73.42,73.41-32.87,73.41-73.42,73.41Z"/>
  </g>
  <g id="User2">
    <path class="cls-11" d="M269.26,181.99c0,40.55-32.87,73.41-73.42,73.41s-73.41-32.86-73.41-73.41,32.87-73.41,73.41-73.41,73.42,32.87,73.42,73.41Z"/>
    <path class="cls-9" d="M259.38,232.75c-14.9,18.63-37.82,30.56-63.53,30.56s-48.64-11.93-63.54-30.56c14.89-18.63,37.82-30.57,63.54-30.57s48.64,11.94,63.53,30.57Z"/>
    <circle class="cls-2" cx="196.55" cy="154.6" r="27.39"/>
    <path class="cls-5" d="M195.85,99.68c-45.39,0-82.32,36.93-82.32,82.32,0,18.89,6.22,36.65,18,51.37,15.72,19.66,39.17,30.94,64.32,30.94s48.59-11.28,64.31-30.94c11.78-14.72,18-32.48,18-51.37,0-45.39-36.92-82.32-82.31-82.32ZM195.84,255.4c-40.54,0-73.41-32.86-73.41-73.41s32.87-73.41,73.41-73.41,73.42,32.87,73.42,73.41-32.87,73.41-73.42,73.41Z"/>
  </g>
  <g id="User1">
    <path class="cls-11" d="M213.64,903.43c0,40.55-32.87,73.41-73.42,73.41s-73.41-32.86-73.41-73.41,32.87-73.41,73.41-73.41,73.42,32.87,73.42,73.41Z"/>
    <path class="cls-8" d="M203.76,954.19c-14.9,18.63-37.82,30.56-63.53,30.56s-48.64-11.93-63.54-30.56c14.89-18.63,37.82-30.57,63.54-30.57s48.64,11.94,63.53,30.57Z"/>
    <circle class="cls-4" cx="140.93" cy="876.04" r="27.39"/>
    <path class="cls-5" d="M140.23,821.12c-45.39,0-82.32,36.93-82.32,82.32,0,18.89,6.22,36.65,18,51.37,15.72,19.66,39.17,30.94,64.32,30.94s48.59-11.28,64.31-30.94c11.78-14.72,18-32.48,18-51.37,0-45.39-36.92-82.32-82.31-82.32ZM140.22,976.84c-40.54,0-73.41-32.86-73.41-73.41s32.87-73.41,73.41-73.41,73.42,32.87,73.42,73.41-32.87,73.41-73.42,73.41Z"/>
  </g>
</svg>