<?xml version="1.0" encoding="utf-8"?>
<!-- Generator: Adobe Illustrator 28.1.0, SVG Export Plug-In . SVG Version: 6.00 Build 0)  -->
<svg version="1.1" id="Capa_1" xmlns="http://www.w3.org/2000/svg" xmlns:xlink="http://www.w3.org/1999/xlink" x="0px" y="0px"
	 viewBox="0 0 176.2 40" style="enable-background:new 0 0 176.2 40;" xml:space="preserve">
<style type="text/css">
	.st0{fill:#FFFFFF;}
	.st1{fill-rule:evenodd;clip-rule:evenodd;fill:url(#SVGID_1_);}
	.st2{fill:#FFFFFF;stroke:#FFFFFF;stroke-width:0.2474;stroke-linecap:round;stroke-linejoin:round;stroke-miterlimit:10;}
</style>
<path class="st0" d="M15.4,11.4c0.3,0,0.5,0,0.7,0.1c0.1,0.1,0.2,0.2,0.3,0.3c0.1,0.1,0.1,0.3,0.1,0.7v15.2c0,0.3,0,0.5-0.1,0.7
	c-0.1,0.1-0.2,0.2-0.3,0.3c-0.1,0.1-0.3,0.1-0.7,0.1h-2.5c-0.2,0-0.3,0-0.3,0c-0.1,0-0.1-0.1-0.2-0.1c-0.1,0-0.1-0.1-0.2-0.2
	l-6.8-8.2c-0.2-0.2-0.2-0.3-0.3-0.3c-0.1,0-0.1,0-0.2,0.1c0,0.1,0,0.2,0,0.4v7.3c0,0.3,0,0.5-0.1,0.7c-0.1,0.1-0.2,0.2-0.3,0.3
	c-0.1,0.1-0.3,0.1-0.7,0.1H1c-0.3,0-0.5,0-0.7-0.1c-0.1-0.1-0.2-0.2-0.3-0.3C0,28.1,0,27.9,0,27.6V12.4c0-0.3,0-0.5,0.1-0.7
	c0.1-0.1,0.2-0.2,0.3-0.3c0.1-0.1,0.3-0.1,0.7-0.1h2.5c0.2,0,0.3,0,0.3,0c0.1,0,0.1,0.1,0.2,0.1c0.1,0,0.1,0.1,0.2,0.2l6.8,8.2
	c0.2,0.2,0.2,0.3,0.3,0.3c0.1,0,0.1,0,0.2-0.1c0-0.1,0-0.2,0-0.4v-7.3c0-0.3,0-0.5,0.1-0.7c0.1-0.1,0.2-0.2,0.3-0.3
	c0.1-0.1,0.3-0.1,0.7-0.1H15.4z"/>
<path class="st0" d="M24.8,15.1c-0.1,0-0.2,0-0.2,0c0,0-0.1,0-0.1,0.1c0,0,0,0.1,0,0.2v3.2c0,0.1,0,0.2,0,0.2c0,0,0,0.1,0.1,0.1
	c0,0,0.1,0,0.2,0h6.3c0.3,0,0.5,0,0.7,0.1c0.1,0.1,0.2,0.2,0.3,0.3c0.1,0.1,0.1,0.3,0.1,0.7v1.8c0,0.3,0,0.5-0.1,0.7
	c-0.1,0.1-0.2,0.2-0.3,0.3c-0.1,0.1-0.3,0.1-0.7,0.1h-6.3c-0.1,0-0.2,0-0.2,0c0,0-0.1,0-0.1,0.1c0,0,0,0.1,0,0.2v4.6
	c0,0.3,0,0.5-0.1,0.7c-0.1,0.1-0.2,0.2-0.3,0.3c-0.1,0.1-0.3,0.1-0.7,0.1h-2.9c-0.3,0-0.5,0-0.7-0.1c-0.1-0.1-0.2-0.2-0.3-0.3
	c-0.1-0.1-0.1-0.3-0.1-0.7V12.4c0-0.3,0-0.5,0.1-0.7c0.1-0.1,0.2-0.2,0.3-0.3c0.1-0.1,0.3-0.1,0.7-0.1h11.5c0.3,0,0.5,0,0.7,0.1
	c0.1,0.1,0.2,0.2,0.3,0.3c0.1,0.1,0.1,0.3,0.1,0.7v1.8c0,0.3,0,0.5-0.1,0.7c-0.1,0.1-0.2,0.2-0.3,0.3c-0.1,0.1-0.3,0.1-0.7,0.1H24.8
	z"/>
<linearGradient id="SVGID_1_" gradientUnits="userSpaceOnUse" x1="52.3806" y1="30.8856" x2="65.3164" y2="12.0274" gradientTransform="matrix(1 0 0 -1 0 42)">
	<stop  offset="0" style="stop-color:#CC5CDC"/>
	<stop  offset="0.2448" style="stop-color:#7B66FF"/>
	<stop  offset="0.5208" style="stop-color:#1F8AF0"/>
	<stop  offset="0.7604" style="stop-color:#00D1FF"/>
	<stop  offset="1" style="stop-color:#3DEDD7"/>
</linearGradient>
<path class="st1" d="M48.9,3c0.5-0.1,0.9-0.5,0.8-1c-0.1-0.5-0.5-0.9-1-0.8l-1.9,0.2c-1,0.1-1.8,0.2-2.4,0.3
	c-0.7,0.1-1.2,0.3-1.7,0.6c-0.8,0.5-1.6,1.2-2,2c-0.3,0.5-0.5,1.1-0.6,1.7c-0.1,0.6-0.2,1.4-0.3,2.4l0,0l-0.2,1.9
	c-0.1,0.5,0.3,1,0.8,1c0.5,0.1,1-0.3,1-0.8l0.2-1.8c0.1-1,0.2-1.7,0.3-2.3c0.1-0.5,0.2-0.9,0.4-1.2c0.3-0.5,0.8-1,1.3-1.3
	c0.3-0.2,0.6-0.3,1.2-0.4c0.6-0.1,1.3-0.2,2.3-0.3L48.9,3z M67.2,2c-0.1,0.5,0.3,1,0.8,1l1.9,0.2c1,0.1,1.7,0.2,2.3,0.3
	c0.6,0.1,0.9,0.2,1.2,0.4c0.6,0.3,1,0.8,1.3,1.3c0.2,0.3,0.3,0.6,0.4,1.2c0.1,0.6,0.2,1.3,0.3,2.3l0.2,1.8c0.1,0.5,0.5,0.9,1,0.8
	c0.5-0.1,0.9-0.5,0.8-1l-0.2-1.9l0,0c-0.1-1-0.2-1.8-0.3-2.4c-0.1-0.7-0.3-1.2-0.6-1.7c-0.5-0.8-1.2-1.5-2-2
	c-0.5-0.3-1.1-0.5-1.7-0.6c-0.6-0.1-1.4-0.2-2.4-0.3l-1.9-0.2C67.7,1.1,67.2,1.4,67.2,2z M67.2,38c-0.1-0.5,0.3-1,0.8-1l1.9-0.2
	c1-0.1,1.7-0.2,2.3-0.3c0.6-0.1,0.9-0.2,1.2-0.4c0.6-0.3,1-0.8,1.3-1.3c0.2-0.3,0.3-0.6,0.4-1.2c0.1-0.6,0.2-1.3,0.3-2.3l0.2-1.8
	c0.1-0.5,0.5-0.9,1-0.8c0.5,0.1,0.9,0.5,0.8,1l-0.2,1.9l0,0c-0.1,1-0.2,1.8-0.3,2.4c-0.1,0.7-0.3,1.2-0.6,1.7c-0.5,0.8-1.2,1.5-2,2
	c-0.5,0.3-1.1,0.5-1.7,0.6c-0.6,0.1-1.4,0.2-2.4,0.3l-1.9,0.2C67.7,38.9,67.2,38.5,67.2,38z M49.8,38c0.1-0.5-0.3-1-0.8-1l-1.9-0.2
	c-1-0.1-1.7-0.2-2.3-0.3c-0.6-0.1-0.9-0.2-1.2-0.4c-0.6-0.3-1-0.8-1.3-1.3c-0.2-0.3-0.3-0.6-0.4-1.2c-0.1-0.6-0.2-1.3-0.3-2.3
	l-0.2-1.8c-0.1-0.5-0.5-0.9-1-0.8c-0.5,0.1-0.9,0.5-0.8,1l0.2,1.9l0,0c0.1,1,0.2,1.8,0.3,2.4c0.1,0.7,0.3,1.2,0.6,1.7
	c0.5,0.8,1.2,1.5,2,2c0.5,0.3,1.1,0.5,1.7,0.6c0.6,0.1,1.4,0.2,2.4,0.3l0,0l0,0l1.9,0.2C49.3,38.9,49.7,38.5,49.8,38z M49.3,12.8
	c-0.4,0-0.8,0.4-0.8,0.8v13c0,0.4,0.4,0.8,0.8,0.8h2.5c0.4,0,0.8-0.4,0.8-0.8v-13c0-0.4-0.4-0.8-0.8-0.8H49.3z M56.2,12.8
	c-0.4,0-0.8,0.4-0.8,0.8v13c0,0.4,0.4,0.8,0.8,0.8h6.1c1.6,0,3-0.3,4.3-0.9c1.2-0.6,2.2-1.5,2.9-2.6c0.7-1.1,1-2.4,1-3.9
	c0-1.5-0.3-2.8-1-3.9s-1.7-2-2.9-2.6c-1.2-0.6-2.7-0.9-4.3-0.9H56.2z M65.2,23.1c-0.8,0.7-1.8,1.1-3,1.1h-2.4
	c-0.1,0-0.2-0.1-0.2-0.2v-7.6c0-0.1,0.1-0.2,0.2-0.2h2.4c1.3,0,2.3,0.4,3,1.1c0.8,0.7,1.2,1.7,1.2,3C66.3,21.4,65.9,22.4,65.2,23.1z
	"/>
<g>
	<path class="st2" d="M99.9,25.5h-6.1c-0.1,0-0.2,0.1-0.3,0.2l-0.9,2.7c0,0.1-0.2,0.2-0.3,0.2h-2.8c-0.2,0-0.4-0.2-0.3-0.4l5.7-15.5
		c0-0.1,0.2-0.2,0.3-0.2h3.4c0.1,0,0.2,0.1,0.3,0.2l5.7,15.5c0.1,0.2-0.1,0.4-0.3,0.4h-2.8c-0.1,0-0.2-0.1-0.3-0.2l-0.9-2.7
		C100.1,25.5,100,25.5,99.9,25.5z M99.1,22.5l-2-5.5c-0.1-0.3-0.5-0.3-0.6,0l-2,5.5c-0.1,0.2,0.1,0.4,0.3,0.4h3.9
		C99,22.9,99.2,22.7,99.1,22.5z"/>
	<path class="st2" d="M106.7,13.7c-0.4-0.4-0.6-0.8-0.6-1.3c0-0.5,0.2-1,0.6-1.3s0.9-0.5,1.4-0.5c0.6,0,1.1,0.2,1.4,0.5
		s0.6,0.8,0.6,1.3c0,0.5-0.2,1-0.6,1.3s-0.9,0.5-1.4,0.5C107.6,14.3,107.1,14.1,106.7,13.7z M109.8,16.1v12.1c0,0.2-0.1,0.3-0.3,0.3
		h-2.7c-0.2,0-0.3-0.1-0.3-0.3V16.1c0-0.2,0.1-0.3,0.3-0.3h2.7C109.7,15.8,109.8,15.9,109.8,16.1z"/>
	<path class="st2" d="M117.8,16.2c0.6-0.3,1.3-0.5,2-0.6c0.2,0,0.3,0.1,0.3,0.3V19h-0.9c-1,0-1.8,0.2-2.3,0.7
		c-0.5,0.5-0.8,1.3-0.8,2.5v6.1c0,0.2-0.1,0.3-0.3,0.3h-2.7c-0.2,0-0.3-0.1-0.3-0.3V16.1c0-0.2,0.1-0.3,0.3-0.3h2.7
		c0.2,0,0.3,0.1,0.3,0.3v1.7C116.6,17.1,117.1,16.6,117.8,16.2z"/>
	<path class="st2" d="M122.1,18.7c0.5-1,1.2-1.8,2.2-2.3c0.9-0.5,1.8-0.8,2.9-0.8c0.9,0,1.8,0.2,2.6,0.5c0.8,0.4,1.4,0.8,1.8,1.4
		v-5.8c0-0.2,0.1-0.3,0.3-0.3h2.7c0.2,0,0.3,0.1,0.3,0.3v16.4c0,0.2-0.1,0.3-0.3,0.3h-2.7c-0.2,0-0.3-0.1-0.3-0.3v-1.6
		c-0.4,0.6-1,1.1-1.7,1.5s-1.6,0.6-2.6,0.6c-1.1,0-2.1-0.3-3-0.8c-0.9-0.6-1.6-1.3-2.2-2.3c-0.5-1-0.8-2.2-0.8-3.5
		C121.3,20.8,121.6,19.7,122.1,18.7z M131.1,20.1c-0.3-0.6-0.7-1-1.3-1.3c-0.5-0.3-1.1-0.4-1.7-0.4c-0.6,0-1.2,0.1-1.7,0.4
		c-0.5,0.3-0.9,0.7-1.3,1.3c-0.3,0.6-0.5,1.2-0.5,2c0,0.8,0.2,1.4,0.5,2c0.3,0.6,0.7,1,1.3,1.3c0.5,0.3,1.1,0.5,1.7,0.5
		c0.6,0,1.2-0.1,1.7-0.4s1-0.7,1.3-1.3c0.3-0.6,0.5-1.2,0.5-2C131.6,21.4,131.4,20.7,131.1,20.1z"/>
	<path class="st2" d="M142.9,16.2c0.6-0.3,1.3-0.5,2-0.6c0.2,0,0.3,0.1,0.3,0.3V19h-0.9c-1,0-1.8,0.2-2.3,0.7
		c-0.5,0.5-0.8,1.3-0.8,2.5v6.1c0,0.2-0.1,0.3-0.3,0.3h-2.7c-0.2,0-0.3-0.1-0.3-0.3V16.1c0-0.2,0.1-0.3,0.3-0.3h2.7
		c0.2,0,0.3,0.1,0.3,0.3v1.7C141.6,17.1,142.2,16.6,142.9,16.2z"/>
	<path class="st2" d="M149.6,27.9c-1-0.5-1.8-1.3-2.4-2.3c-0.6-1-0.9-2.1-0.9-3.5c0-1.3,0.3-2.5,0.9-3.5c0.6-1,1.4-1.8,2.4-2.3
		c1-0.5,2.2-0.8,3.4-0.8c1.3,0,2.4,0.3,3.4,0.8c1,0.5,1.8,1.3,2.4,2.3c0.6,1,0.9,2.1,0.9,3.5c0,1.3-0.3,2.5-0.9,3.5
		s-1.4,1.8-2.4,2.3c-1,0.5-2.2,0.8-3.4,0.8C151.7,28.7,150.6,28.5,149.6,27.9z M154.6,25.5c0.5-0.3,0.9-0.7,1.3-1.3
		c0.3-0.6,0.5-1.3,0.5-2.1c0-1.2-0.3-2.1-1-2.8c-0.7-0.7-1.4-1-2.4-1c-0.9,0-1.7,0.3-2.4,1c-0.6,0.7-1,1.6-1,2.8
		c0,1.2,0.3,2.1,0.9,2.8c0.6,0.7,1.4,1,2.3,1C153.5,25.9,154.1,25.8,154.6,25.5z"/>
	<path class="st2" d="M167,16.2c0.7-0.4,1.6-0.6,2.5-0.6c1.1,0,2.1,0.3,3,0.8c0.9,0.5,1.6,1.3,2.1,2.3c0.5,1,0.8,2.1,0.8,3.4
		c0,1.3-0.3,2.5-0.8,3.5c-0.5,1-1.2,1.8-2.1,2.3c-0.9,0.6-1.9,0.8-3,0.8c-1,0-1.8-0.2-2.5-0.6s-1.3-0.9-1.8-1.4v7.6
		c0,0.2-0.1,0.3-0.3,0.3h-2.7c-0.2,0-0.3-0.1-0.3-0.3V16.1c0-0.2,0.1-0.3,0.3-0.3h2.7c0.2,0,0.3,0.1,0.3,0.3v1.5
		C165.7,17,166.3,16.6,167,16.2z M171.7,20.1c-0.3-0.6-0.7-1-1.3-1.3c-0.5-0.3-1.1-0.4-1.7-0.4c-0.6,0-1.2,0.1-1.7,0.4
		c-0.5,0.3-0.9,0.7-1.3,1.3c-0.3,0.6-0.5,1.2-0.5,2s0.2,1.4,0.5,2c0.3,0.6,0.7,1,1.3,1.3c0.5,0.3,1.1,0.4,1.7,0.4
		c0.6,0,1.2-0.2,1.7-0.5c0.5-0.3,0.9-0.7,1.3-1.3c0.3-0.6,0.5-1.2,0.5-2C172.2,21.3,172,20.7,171.7,20.1z"/>
</g>
</svg>
