<?xml version="1.0" encoding="utf-8"?>
<!-- Generator: Adobe Illustrator 28.1.0, SVG Export Plug-In . SVG Version: 6.00 Build 0)  -->
<svg version="1.1" id="OpenChatBoton" xmlns="http://www.w3.org/2000/svg" xmlns:xlink="http://www.w3.org/1999/xlink" x="0px"
 y="0px" viewBox="0 0 249.6 288.2" style="enable-background:new 0 0 249.6 288.2;" xml:space="preserve">
<style type="text/css">
.st0{fill:url(#Base_00000134213855086627274660000013039090807896349868_);stroke:#201F34;stroke-width:2;stroke-miterlimit:10;}
.st1{fill:#201F34;}
.st2{fill:url(#SVGID_1_);}
.st3{fill:url(#SVGID_00000009551535294081793480000016290246599970952621_);}
.st4{fill:#191919;}
</style>

<defs>
  <filter id="shadow" x="-50%" y="-50%" width="200%" height="200%">
    <feDropShadow dx="0" dy="4" stdDeviation="4" flood-color="rgba(0, 0, 0, 0.5)" />
  </filter>
</defs>

<g id="Boton">
  <radialGradient id="Base_00000131338627242697326200000018401365981402234261_" cx="123.8751" cy="107.8206" r="112.979" fx="123.9214" fy="4.6956" gradientUnits="userSpaceOnUse">
    <stop offset="0" style="stop-color:#DBE02D"/>
    <stop offset="0.3925" style="stop-color:#DBB72D"/>
    <stop offset="1" style="stop-color:#DB7A2D"/>
  </radialGradient>

  <polygon id="Base" style="fill:url(#Base_00000131338627242697326200000018401365981402234261_);stroke:#201F34;stroke-width:2;stroke-miterlimit:10;" points="
  248.6,215.6 248.6,72.6 124.8,1 1,72.6 1,215.6 124.8,287.1 "/>

  <g id="Marco">
    <path class="st1" d="M124.8,24.2l103.8,59.9v119.9L124.8,264L21,204.1V84.2L124.8,24.2 M124.8,18.5L16,81.3v125.6l108.8,62.8
    l108.8-62.8V81.3L124.8,18.5L124.8,18.5z"/>
  </g>
</g>

<g id="OpenChat" filter="url(#shadow)">
  <linearGradient id="SVGID_1_" gradientUnits="userSpaceOnUse" x1="508.5867" y1="-485.6239" x2="508.5867" y2="-339.2335" gradientTransform="matrix(-1 1.526000e-03 -1.922829e-03 -1.2591 632.3096 -397.4073)">
    <stop offset="0" style="stop-color:#FBB03B"/>
    <stop offset="1" style="stop-color:#F05A24"/>
  </linearGradient>
  
  <path class="st2" d="M51.4,144.1c0,40.4,32.8,73.2,73.2,73.2s73.2-32.8,73.2-73.2S165,70.9,124.5,70.9S51.4,103.7,51.4,144.1z M83.9,144.1c0-22.4,18.2-40.7,40.7-40.7s40.7,18.2,40.7,40.7s-18.2,40.7-40.7,40.7C102.1,184.8,83.9,166.6,83.9,144.1z"/>
  
  <linearGradient id="SVGID_00000025406775296339507620000002750513688264901298_" gradientUnits="userSpaceOnUse" x1="444.9019" y1="-871.0079" x2="444.9019" y2="-754.1346" gradientTransform="matrix(1.005 -0.2332 0.3203 1.3806 -22.0307 1346.244)">
    <stop offset="0" style="stop-color:#5F2583"/>
    <stop offset="1" style="stop-color:#ED1E79"/>
  </linearGradient>
  
  <path style="fill:url(#SVGID_00000025406775296339507620000002750513688264901298_);" d="M166.9,84.4 c33.3,23.1,41.4,68.5,18.1,101.4c-4.9,7-11,13-18.1,17.9L148,177.1c18.4-12.7,22.9-37.8,10-56c-2.7-3.8-6.1-7.2-10-9.9L166.9,84.4z "/>
  
  <ellipse transform="matrix(0.1602 -0.9871 0.9871 0.1602 -37.6591 243.954)" class="st4" cx="124.5" cy="144.1" rx="40.7" ry="40.7"/>
</g>
</svg>
