<svg width="90" height="74" viewBox="0 0 90 74" fill="none" xmlns="http://www.w3.org/2000/svg">
<g filter="url(#filter0_d_748_2088)">
<g filter="url(#filter1_i_748_2088)">
<path d="M44.7778 4L71.6246 19.5V50.5L44.7778 66L17.931 50.5V19.5L44.7778 4Z" fill="url(#paint0_radial_748_2088)"/>
</g>
<path d="M18.2005 19.6556L44.7778 4.31127L71.355 19.6556V50.3444L44.7778 65.6887L18.2005 50.3444V19.6556Z" stroke="#201F34" stroke-width="0.53913"/>
<path d="M23.1391 22.507L44.7778 10.0139L66.4164 22.507V47.4931L44.7778 59.9862L23.1391 47.4931V22.507Z" stroke="#201F34" stroke-width="1.07826"/>
</g>
<path d="M47.3611 32.4167V22.0834H42.1944V32.4167H31.8611V37.5834H42.1944V47.9167H47.3611V37.5834H57.6944V32.4167H47.3611Z" fill="#201F34"/>
<defs>
<filter id="filter0_d_748_2088" x="8.38647" y="0.765217" width="72.7826" height="72.7826" filterUnits="userSpaceOnUse" color-interpolation-filters="sRGB">
<feFlood flood-opacity="0" result="BackgroundImageFix"/>
<feColorMatrix in="SourceAlpha" type="matrix" values="0 0 0 0 0 0 0 0 0 0 0 0 0 0 0 0 0 0 127 0" result="hardAlpha"/>
<feOffset dy="2.15652"/>
<feGaussianBlur stdDeviation="2.69565"/>
<feComposite in2="hardAlpha" operator="out"/>
<feColorMatrix type="matrix" values="0 0 0 0 0 0 0 0 0 0 0 0 0 0 0 0 0 0 0.25 0"/>
<feBlend mode="normal" in2="BackgroundImageFix" result="effect1_dropShadow_748_2088"/>
<feBlend mode="normal" in="SourceGraphic" in2="effect1_dropShadow_748_2088" result="shape"/>
</filter>
<filter id="filter1_i_748_2088" x="17.931" y="4" width="53.6936" height="62" filterUnits="userSpaceOnUse" color-interpolation-filters="sRGB">
<feFlood flood-opacity="0" result="BackgroundImageFix"/>
<feBlend mode="normal" in="SourceGraphic" in2="BackgroundImageFix" result="shape"/>
<feColorMatrix in="SourceAlpha" type="matrix" values="0 0 0 0 0 0 0 0 0 0 0 0 0 0 0 0 0 0 127 0" result="hardAlpha"/>
<feOffset/>
<feGaussianBlur stdDeviation="5.3913"/>
<feComposite in2="hardAlpha" operator="arithmetic" k2="-1" k3="1"/>
<feColorMatrix type="matrix" values="0 0 0 0 0 0 0 0 0 0 0 0 0 0 0 0 0 0 0.7 0"/>
<feBlend mode="normal" in2="shape" result="effect1_innerShadow_748_2088"/>
</filter>
<radialGradient id="paint0_radial_748_2088" cx="0" cy="0" r="1" gradientUnits="userSpaceOnUse" gradientTransform="translate(44.7778 35) rotate(90) scale(31)">
<stop stop-color="#DBE02D"/>
<stop offset="1" stop-color="#DB7A2D"/>
</radialGradient>
</defs>
</svg>
